G75*
G70*
%OFA0B0*%
%FSLAX24Y24*%
%IPPOS*%
%LPD*%
%AMOC8*
5,1,8,0,0,1.08239X$1,22.5*
%
%ADD10C,0.0946*%
%ADD11R,0.0787X0.0787*%
%ADD12C,0.0600*%
%ADD13C,0.0680*%
%ADD14R,0.0434X0.0218*%
%ADD15R,0.0671X0.0592*%
%ADD16R,0.0592X0.0671*%
%ADD17R,0.1080X0.0460*%
%ADD18R,0.0940X0.0880*%
%ADD19R,0.0380X0.0580*%
%ADD20C,0.0354*%
%ADD21C,0.0434*%
D10*
X002069Y000887D03*
X013486Y000887D03*
X013486Y019785D03*
X002069Y019785D03*
D11*
X001281Y017029D03*
X014273Y006793D03*
D12*
X012277Y000836D03*
X011277Y000836D03*
X010277Y000836D03*
X009277Y000836D03*
X008277Y000836D03*
X007277Y000836D03*
X006277Y000836D03*
X005277Y000836D03*
X004277Y000836D03*
X003277Y000836D03*
X003277Y019836D03*
X004277Y019836D03*
X005277Y019836D03*
X006277Y019836D03*
X007277Y019836D03*
X008277Y019836D03*
X009277Y019836D03*
X010277Y019836D03*
X011277Y019836D03*
X012277Y019836D03*
D13*
X012277Y019836D03*
X011277Y019836D03*
X010277Y019836D03*
X009277Y019836D03*
X008277Y019836D03*
X007277Y019836D03*
X006277Y019836D03*
X005277Y019836D03*
X004277Y019836D03*
X003277Y019836D03*
X003277Y000836D03*
X004277Y000836D03*
X005277Y000836D03*
X006277Y000836D03*
X007277Y000836D03*
X008277Y000836D03*
X009277Y000836D03*
X010277Y000836D03*
X011277Y000836D03*
X012277Y000836D03*
D14*
X006535Y004829D03*
X006535Y005085D03*
X006535Y005341D03*
X006535Y005597D03*
X006535Y005853D03*
X006535Y006109D03*
X006535Y006365D03*
X006535Y006621D03*
X004153Y006621D03*
X004153Y006365D03*
X004153Y006109D03*
X004153Y005853D03*
X004153Y005597D03*
X004153Y005341D03*
X004153Y005085D03*
X004153Y004829D03*
D15*
X001469Y002226D03*
X001469Y002974D03*
X002469Y002974D03*
X002469Y002226D03*
X006594Y003288D03*
X006594Y004037D03*
D16*
X005718Y004225D03*
X004970Y004225D03*
X004970Y003288D03*
X005718Y003288D03*
X009595Y005475D03*
X010343Y005475D03*
X010343Y006413D03*
X009595Y006413D03*
D17*
X010406Y009169D03*
X010406Y009956D03*
X010406Y010744D03*
X010406Y011531D03*
X010406Y014919D03*
X010406Y015706D03*
X010406Y016494D03*
X010406Y017281D03*
X006906Y017281D03*
X006906Y016494D03*
X006906Y015706D03*
X006906Y014919D03*
X006906Y011531D03*
X006906Y010744D03*
X006906Y009956D03*
X006906Y009169D03*
X003406Y009169D03*
X003406Y009956D03*
X003406Y010744D03*
X003406Y011531D03*
X003406Y014919D03*
X003406Y015706D03*
X003406Y016494D03*
X003406Y017281D03*
X013906Y017281D03*
X013906Y016494D03*
X013906Y015706D03*
X013906Y014919D03*
X013906Y011531D03*
X013906Y010744D03*
X013906Y009956D03*
X013906Y009169D03*
D18*
X012568Y008009D03*
X009068Y008009D03*
X005568Y008009D03*
X002068Y008009D03*
X002068Y012691D03*
X002068Y013759D03*
X005568Y013759D03*
X005568Y012691D03*
X009068Y012691D03*
X009068Y013759D03*
X012568Y013759D03*
X012568Y012691D03*
X012568Y018441D03*
X009068Y018441D03*
X005568Y018441D03*
X002068Y018441D03*
D19*
X002219Y006955D03*
X001719Y006955D03*
X001719Y004120D03*
X002219Y004120D03*
D20*
X002969Y005350D03*
X002656Y005850D03*
X003031Y006725D03*
X004156Y007350D03*
X004781Y007725D03*
X004969Y007100D03*
X005469Y007163D03*
X006531Y007538D03*
X007094Y006725D03*
X005906Y005850D03*
X005594Y005350D03*
X009094Y005975D03*
X009094Y004475D03*
X004406Y010225D03*
X007594Y012850D03*
X008156Y012100D03*
X007844Y011225D03*
X012031Y014538D03*
X012781Y015350D03*
D21*
X012781Y015350D03*
X012031Y014538D03*
X008156Y012100D03*
X007844Y011225D03*
X007594Y012850D03*
X004406Y010225D03*
X004781Y007725D03*
X004969Y007100D03*
X005469Y007163D03*
X006531Y007538D03*
X007094Y006725D03*
X005906Y005850D03*
X005594Y005350D03*
X004156Y007350D03*
X003031Y006725D03*
X002656Y005850D03*
X002969Y005350D03*
X009094Y005975D03*
X009094Y004475D03*
M02*
