%
M48
M72
T01C0.0236
T02C0.0400
T03C0.0866
%
T01
X2969Y5350
X2656Y5850
X3031Y6725
X4156Y7350
X4781Y7725
X4969Y7100
X5469Y7163
X6531Y7538
X7094Y6725
X5906Y5850
X5594Y5350
X9094Y5975
X9094Y4475
X4406Y10225
X7594Y12850
X8156Y12100
X7844Y11225
X12031Y14538
X12781Y15350
T02
X12277Y19836
X11277Y19836
X10277Y19836
X9277Y19836
X8277Y19836
X7277Y19836
X6277Y19836
X5277Y19836
X4277Y19836
X3277Y19836
X3277Y836
X4277Y836
X5277Y836
X6277Y836
X7277Y836
X8277Y836
X9277Y836
X10277Y836
X11277Y836
X12277Y836
T03
X2069Y887
X13486Y887
X13486Y19785
X2069Y19785
M30
