G75*
G70*
%OFA0B0*%
%FSLAX24Y24*%
%IPPOS*%
%LPD*%
%AMOC8*
5,1,8,0,0,1.08239X$1,22.5*
%
%ADD10C,0.0946*%
%ADD11C,0.0600*%
%ADD12C,0.0680*%
%ADD13C,0.0354*%
%ADD14C,0.0434*%
D10*
X002069Y000887D03*
X013486Y000887D03*
X013486Y019785D03*
X002069Y019785D03*
D11*
X003277Y019836D03*
X004277Y019836D03*
X005277Y019836D03*
X006277Y019836D03*
X007277Y019836D03*
X008277Y019836D03*
X009277Y019836D03*
X010277Y019836D03*
X011277Y019836D03*
X012277Y019836D03*
X012277Y000836D03*
X011277Y000836D03*
X010277Y000836D03*
X009277Y000836D03*
X008277Y000836D03*
X007277Y000836D03*
X006277Y000836D03*
X005277Y000836D03*
X004277Y000836D03*
X003277Y000836D03*
D12*
X003277Y000836D03*
X004277Y000836D03*
X005277Y000836D03*
X006277Y000836D03*
X007277Y000836D03*
X008277Y000836D03*
X009277Y000836D03*
X010277Y000836D03*
X011277Y000836D03*
X012277Y000836D03*
X012277Y019836D03*
X011277Y019836D03*
X010277Y019836D03*
X009277Y019836D03*
X008277Y019836D03*
X007277Y019836D03*
X006277Y019836D03*
X005277Y019836D03*
X004277Y019836D03*
X003277Y019836D03*
D13*
X007594Y012850D03*
X008156Y012100D03*
X007844Y011225D03*
X006531Y007538D03*
X007094Y006725D03*
X005906Y005850D03*
X005594Y005350D03*
X005469Y007163D03*
X004969Y007100D03*
X004781Y007725D03*
X004156Y007350D03*
X003031Y006725D03*
X002656Y005850D03*
X002969Y005350D03*
X004406Y010225D03*
X009094Y005975D03*
X009094Y004475D03*
X012031Y014538D03*
X012781Y015350D03*
D14*
X012781Y015350D03*
X012031Y014538D03*
X008156Y012100D03*
X007844Y011225D03*
X007594Y012850D03*
X004406Y010225D03*
X004781Y007725D03*
X004969Y007100D03*
X005469Y007163D03*
X006531Y007538D03*
X007094Y006725D03*
X005906Y005850D03*
X005594Y005350D03*
X004156Y007350D03*
X003031Y006725D03*
X002656Y005850D03*
X002969Y005350D03*
X009094Y005975D03*
X009094Y004475D03*
M02*
