G75*
G70*
%OFA0B0*%
%FSLAX24Y24*%
%IPPOS*%
%LPD*%
%AMOC8*
5,1,8,0,0,1.08239X$1,22.5*
%
%ADD10C,0.0600*%
%ADD11C,0.0120*%
%ADD12C,0.0354*%
D10*
X003277Y000836D03*
X004277Y000836D03*
X005277Y000836D03*
X006277Y000836D03*
X007277Y000836D03*
X008277Y000836D03*
X009277Y000836D03*
X010277Y000836D03*
X011277Y000836D03*
X012277Y000836D03*
X012277Y019836D03*
X011277Y019836D03*
X010277Y019836D03*
X009277Y019836D03*
X008277Y019836D03*
X007277Y019836D03*
X006277Y019836D03*
X005277Y019836D03*
X004277Y019836D03*
X003277Y019836D03*
D11*
X000592Y020080D02*
X000592Y000592D01*
X001264Y000592D01*
X001213Y000717D01*
X001213Y001058D01*
X001343Y001372D01*
X001584Y001613D01*
X001898Y001743D01*
X002239Y001743D01*
X002553Y001613D01*
X002794Y001372D01*
X002904Y001106D01*
X002926Y001136D01*
X002977Y001187D01*
X003036Y001230D01*
X003101Y001263D01*
X003169Y001285D01*
X003237Y001296D01*
X003237Y000876D01*
X003317Y000876D01*
X003737Y000876D01*
X003726Y000944D01*
X003703Y001013D01*
X003671Y001077D01*
X003628Y001136D01*
X003577Y001187D01*
X003518Y001230D01*
X003454Y001263D01*
X003385Y001285D01*
X003317Y001296D01*
X003317Y000876D01*
X003317Y000796D01*
X003737Y000796D01*
X003726Y000729D01*
X003703Y000660D01*
X003671Y000595D01*
X003668Y000592D01*
X003880Y000592D01*
X003817Y000745D01*
X003817Y000928D01*
X003887Y001097D01*
X004017Y001226D01*
X004186Y001296D01*
X004369Y001296D01*
X004538Y001226D01*
X004667Y001097D01*
X004737Y000928D01*
X004737Y000745D01*
X004674Y000592D01*
X004880Y000592D01*
X004817Y000745D01*
X004817Y000928D01*
X004887Y001097D01*
X005017Y001226D01*
X005186Y001296D01*
X005369Y001296D01*
X005538Y001226D01*
X005667Y001097D01*
X005737Y000928D01*
X005737Y000745D01*
X005674Y000592D01*
X005880Y000592D01*
X005817Y000745D01*
X005817Y000928D01*
X005887Y001097D01*
X006017Y001226D01*
X006186Y001296D01*
X006369Y001296D01*
X006538Y001226D01*
X006667Y001097D01*
X006737Y000928D01*
X006737Y000745D01*
X006674Y000592D01*
X006880Y000592D01*
X006817Y000745D01*
X006817Y000928D01*
X006887Y001097D01*
X007017Y001226D01*
X007186Y001296D01*
X007369Y001296D01*
X007538Y001226D01*
X007667Y001097D01*
X007737Y000928D01*
X007737Y000745D01*
X007674Y000592D01*
X007880Y000592D01*
X007817Y000745D01*
X007817Y000928D01*
X007887Y001097D01*
X008017Y001226D01*
X008186Y001296D01*
X008369Y001296D01*
X008538Y001226D01*
X008667Y001097D01*
X008737Y000928D01*
X008737Y000745D01*
X008674Y000592D01*
X008886Y000592D01*
X008884Y000595D01*
X008851Y000660D01*
X008828Y000729D01*
X008818Y000796D01*
X009237Y000796D01*
X009237Y000876D01*
X008818Y000876D01*
X008828Y000944D01*
X008851Y001013D01*
X008884Y001077D01*
X008926Y001136D01*
X008977Y001187D01*
X009036Y001230D01*
X009101Y001263D01*
X009169Y001285D01*
X009237Y001296D01*
X009237Y000876D01*
X009317Y000876D01*
X009737Y000876D01*
X009726Y000944D01*
X009703Y001013D01*
X009671Y001077D01*
X009628Y001136D01*
X009577Y001187D01*
X009518Y001230D01*
X009454Y001263D01*
X009385Y001285D01*
X009317Y001296D01*
X009317Y000876D01*
X009317Y000796D01*
X009737Y000796D01*
X009726Y000729D01*
X009703Y000660D01*
X009671Y000595D01*
X009668Y000592D01*
X009880Y000592D01*
X009817Y000745D01*
X009817Y000928D01*
X009887Y001097D01*
X010017Y001226D01*
X010186Y001296D01*
X010369Y001296D01*
X010538Y001226D01*
X010667Y001097D01*
X010737Y000928D01*
X010737Y000745D01*
X010674Y000592D01*
X010880Y000592D01*
X010817Y000745D01*
X010817Y000928D01*
X010887Y001097D01*
X011017Y001226D01*
X011186Y001296D01*
X011369Y001296D01*
X011538Y001226D01*
X011667Y001097D01*
X011714Y000983D01*
X011714Y001466D01*
X011648Y001466D01*
X011554Y001559D01*
X011554Y006367D01*
X011648Y006461D01*
X014962Y006461D01*
X014962Y020080D01*
X014290Y020080D01*
X014342Y019955D01*
X014342Y019615D01*
X014211Y019300D01*
X013971Y019059D01*
X013656Y018929D01*
X013316Y018929D01*
X013001Y019059D01*
X012760Y019300D01*
X012652Y019561D01*
X012538Y019446D01*
X012369Y019376D01*
X012186Y019376D01*
X012017Y019446D01*
X011887Y019576D01*
X011817Y019745D01*
X011817Y019928D01*
X011880Y020080D01*
X011668Y020080D01*
X011671Y020077D01*
X011703Y020013D01*
X011726Y019944D01*
X011737Y019876D01*
X011317Y019876D01*
X011317Y019796D01*
X011317Y019377D01*
X011385Y019388D01*
X011454Y019410D01*
X011518Y019443D01*
X011577Y019485D01*
X011628Y019537D01*
X011671Y019595D01*
X011703Y019660D01*
X011726Y019729D01*
X011737Y019796D01*
X011317Y019796D01*
X011237Y019796D01*
X011237Y019377D01*
X011169Y019388D01*
X011101Y019410D01*
X011036Y019443D01*
X010977Y019485D01*
X010926Y019537D01*
X010884Y019595D01*
X010851Y019660D01*
X010828Y019729D01*
X010818Y019796D01*
X011237Y019796D01*
X011237Y019876D01*
X010818Y019876D01*
X010828Y019944D01*
X010851Y020013D01*
X010884Y020077D01*
X010886Y020080D01*
X010674Y020080D01*
X010737Y019928D01*
X010737Y019745D01*
X010667Y019576D01*
X010538Y019446D01*
X010369Y019376D01*
X010186Y019376D01*
X010017Y019446D01*
X009887Y019576D01*
X009817Y019745D01*
X009817Y019928D01*
X009880Y020080D01*
X009674Y020080D01*
X009737Y019928D01*
X009737Y019745D01*
X009667Y019576D01*
X009538Y019446D01*
X009369Y019376D01*
X009186Y019376D01*
X009017Y019446D01*
X008887Y019576D01*
X008817Y019745D01*
X008817Y019928D01*
X008880Y020080D01*
X008674Y020080D01*
X008737Y019928D01*
X008737Y019745D01*
X008667Y019576D01*
X008538Y019446D01*
X008369Y019376D01*
X008186Y019376D01*
X008017Y019446D01*
X007887Y019576D01*
X007817Y019745D01*
X007817Y019928D01*
X007880Y020080D01*
X007674Y020080D01*
X007737Y019928D01*
X007737Y019745D01*
X007667Y019576D01*
X007538Y019446D01*
X007369Y019376D01*
X007186Y019376D01*
X007017Y019446D01*
X006887Y019576D01*
X006817Y019745D01*
X006817Y019928D01*
X006880Y020080D01*
X006674Y020080D01*
X006737Y019928D01*
X006737Y019745D01*
X006667Y019576D01*
X006538Y019446D01*
X006369Y019376D01*
X006186Y019376D01*
X006017Y019446D01*
X005887Y019576D01*
X005817Y019745D01*
X005817Y019928D01*
X005880Y020080D01*
X005674Y020080D01*
X005737Y019928D01*
X005737Y019745D01*
X005667Y019576D01*
X005538Y019446D01*
X005369Y019376D01*
X005186Y019376D01*
X005017Y019446D01*
X004887Y019576D01*
X004817Y019745D01*
X004817Y019928D01*
X004880Y020080D01*
X004674Y020080D01*
X004737Y019928D01*
X004737Y019745D01*
X004667Y019576D01*
X004538Y019446D01*
X004369Y019376D01*
X004186Y019376D01*
X004017Y019446D01*
X003887Y019576D01*
X003817Y019745D01*
X003817Y019928D01*
X003880Y020080D01*
X003668Y020080D01*
X003671Y020077D01*
X003703Y020013D01*
X003726Y019944D01*
X003737Y019876D01*
X003317Y019876D01*
X003317Y019796D01*
X003317Y019377D01*
X003385Y019388D01*
X003454Y019410D01*
X003518Y019443D01*
X003577Y019485D01*
X003628Y019537D01*
X003671Y019595D01*
X003703Y019660D01*
X003726Y019729D01*
X003737Y019796D01*
X003317Y019796D01*
X003237Y019796D01*
X003237Y019377D01*
X003169Y019388D01*
X003101Y019410D01*
X003036Y019443D01*
X002977Y019485D01*
X002926Y019537D01*
X002900Y019573D01*
X002788Y019304D01*
X002549Y019065D01*
X002237Y018936D01*
X001900Y018936D01*
X001588Y019065D01*
X001349Y019304D01*
X001220Y019616D01*
X001220Y019954D01*
X001272Y020080D01*
X000592Y020080D01*
X000592Y020008D02*
X001242Y020008D01*
X001220Y019890D02*
X000592Y019890D01*
X000592Y019771D02*
X001220Y019771D01*
X001220Y019653D02*
X000592Y019653D01*
X000592Y019534D02*
X001254Y019534D01*
X001303Y019416D02*
X000592Y019416D01*
X000592Y019297D02*
X001356Y019297D01*
X001474Y019179D02*
X000592Y019179D01*
X000592Y019060D02*
X001600Y019060D01*
X001886Y018942D02*
X000592Y018942D01*
X000592Y018823D02*
X014962Y018823D01*
X014962Y018705D02*
X000592Y018705D01*
X000592Y018586D02*
X014962Y018586D01*
X014962Y018468D02*
X000592Y018468D01*
X000592Y018349D02*
X014962Y018349D01*
X014962Y018231D02*
X000592Y018231D01*
X000592Y018112D02*
X014962Y018112D01*
X014962Y017994D02*
X000592Y017994D01*
X000592Y017875D02*
X014962Y017875D01*
X014962Y017757D02*
X000592Y017757D01*
X000592Y017638D02*
X014962Y017638D01*
X014962Y017520D02*
X000592Y017520D01*
X000592Y017401D02*
X014962Y017401D01*
X014962Y017283D02*
X000592Y017283D01*
X000592Y017164D02*
X014962Y017164D01*
X014962Y017046D02*
X000592Y017046D01*
X000592Y016927D02*
X014962Y016927D01*
X014962Y016809D02*
X000592Y016809D01*
X000592Y016690D02*
X014962Y016690D01*
X014962Y016572D02*
X000592Y016572D01*
X000592Y016453D02*
X014962Y016453D01*
X014962Y016335D02*
X000592Y016335D01*
X000592Y016216D02*
X014962Y016216D01*
X014962Y016098D02*
X000592Y016098D01*
X000592Y015979D02*
X014962Y015979D01*
X014962Y015861D02*
X000592Y015861D01*
X000592Y015742D02*
X014962Y015742D01*
X014962Y015624D02*
X012984Y015624D01*
X012972Y015636D02*
X012848Y015687D01*
X012714Y015687D01*
X012590Y015636D01*
X012495Y015541D01*
X012444Y015417D01*
X012444Y015283D01*
X012495Y015159D01*
X012561Y015093D01*
X012561Y014879D01*
X012344Y014662D01*
X012317Y014728D01*
X012222Y014823D01*
X012098Y014875D01*
X011964Y014875D01*
X011840Y014823D01*
X011745Y014728D01*
X011694Y014605D01*
X011694Y014511D01*
X010627Y013445D01*
X007315Y013445D01*
X007186Y013316D01*
X004432Y010562D01*
X004339Y010562D01*
X004215Y010511D01*
X004120Y010416D01*
X004069Y010292D01*
X004069Y010199D01*
X003936Y010066D01*
X003936Y007607D01*
X003870Y007541D01*
X003819Y007417D01*
X003819Y007283D01*
X003870Y007159D01*
X003965Y007064D01*
X004089Y007013D01*
X004223Y007013D01*
X004347Y007064D01*
X004442Y007159D01*
X004477Y007243D01*
X004631Y007105D01*
X004631Y007033D01*
X004668Y006945D01*
X003288Y006945D01*
X003222Y007011D01*
X003098Y007062D01*
X002964Y007062D01*
X002840Y007011D01*
X002745Y006916D01*
X002694Y006792D01*
X002694Y006658D01*
X002745Y006534D01*
X002840Y006439D01*
X002964Y006388D01*
X003098Y006388D01*
X003222Y006439D01*
X003288Y006505D01*
X006837Y006505D01*
X006903Y006439D01*
X007027Y006388D01*
X007161Y006388D01*
X007285Y006439D01*
X007379Y006534D01*
X007431Y006658D01*
X007431Y006792D01*
X007379Y006916D01*
X007285Y007011D01*
X007161Y007062D01*
X007027Y007062D01*
X006903Y007011D01*
X006837Y006945D01*
X005728Y006945D01*
X005754Y006972D01*
X005806Y007095D01*
X005806Y007230D01*
X005754Y007353D01*
X005689Y007419D01*
X005689Y009321D01*
X006311Y009944D01*
X006311Y007794D01*
X006245Y007728D01*
X006194Y007605D01*
X006194Y007470D01*
X006245Y007347D01*
X006340Y007252D01*
X006464Y007200D01*
X006598Y007200D01*
X006722Y007252D01*
X006817Y007347D01*
X006868Y007470D01*
X006868Y007605D01*
X006817Y007728D01*
X006751Y007794D01*
X006751Y009821D01*
X007818Y010888D01*
X007911Y010888D01*
X008035Y010939D01*
X008129Y011034D01*
X008181Y011158D01*
X008181Y011292D01*
X008129Y011416D01*
X008035Y011511D01*
X007924Y011557D01*
X008130Y011763D01*
X008223Y011763D01*
X008347Y011814D01*
X008442Y011909D01*
X008493Y012033D01*
X008493Y012167D01*
X008442Y012291D01*
X008347Y012386D01*
X008223Y012437D01*
X008179Y012437D01*
X008497Y012755D01*
X011060Y012755D01*
X012185Y013880D01*
X013001Y014696D01*
X013001Y015093D01*
X013067Y015159D01*
X013118Y015283D01*
X013118Y015417D01*
X013067Y015541D01*
X012972Y015636D01*
X013082Y015505D02*
X014962Y015505D01*
X014962Y015387D02*
X013118Y015387D01*
X013112Y015268D02*
X014962Y015268D01*
X014962Y015150D02*
X013057Y015150D01*
X013001Y015031D02*
X014962Y015031D01*
X014962Y014913D02*
X013001Y014913D01*
X013001Y014794D02*
X014962Y014794D01*
X014962Y014676D02*
X012980Y014676D01*
X012862Y014557D02*
X014962Y014557D01*
X014962Y014439D02*
X012743Y014439D01*
X012625Y014320D02*
X014962Y014320D01*
X014962Y014202D02*
X012506Y014202D01*
X012388Y014083D02*
X014962Y014083D01*
X014962Y013965D02*
X012269Y013965D01*
X012151Y013846D02*
X014962Y013846D01*
X014962Y013728D02*
X012032Y013728D01*
X011914Y013609D02*
X014962Y013609D01*
X014962Y013491D02*
X011795Y013491D01*
X011677Y013372D02*
X014962Y013372D01*
X014962Y013254D02*
X011558Y013254D01*
X011440Y013135D02*
X014962Y013135D01*
X014962Y013017D02*
X011321Y013017D01*
X011203Y012898D02*
X014962Y012898D01*
X014962Y012780D02*
X011084Y012780D01*
X010969Y012975D02*
X012094Y014100D01*
X012781Y014788D01*
X012781Y015350D01*
X012480Y015505D02*
X000592Y015505D01*
X000592Y015387D02*
X012444Y015387D01*
X012450Y015268D02*
X000592Y015268D01*
X000592Y015150D02*
X012505Y015150D01*
X012561Y015031D02*
X000592Y015031D01*
X000592Y014913D02*
X012561Y014913D01*
X012477Y014794D02*
X012251Y014794D01*
X012339Y014676D02*
X012358Y014676D01*
X012031Y014538D02*
X010719Y013225D01*
X007406Y013225D01*
X004406Y010225D01*
X004156Y009975D01*
X004156Y007350D01*
X003938Y007092D02*
X000592Y007092D01*
X000592Y007210D02*
X003849Y007210D01*
X003819Y007329D02*
X000592Y007329D01*
X000592Y007447D02*
X003831Y007447D01*
X003895Y007566D02*
X000592Y007566D01*
X000592Y007684D02*
X003936Y007684D01*
X003936Y007803D02*
X000592Y007803D01*
X000592Y007921D02*
X003936Y007921D01*
X003936Y008040D02*
X000592Y008040D01*
X000592Y008158D02*
X003936Y008158D01*
X003936Y008277D02*
X000592Y008277D01*
X000592Y008395D02*
X003936Y008395D01*
X003936Y008514D02*
X000592Y008514D01*
X000592Y008632D02*
X003936Y008632D01*
X003936Y008751D02*
X000592Y008751D01*
X000592Y008869D02*
X003936Y008869D01*
X003936Y008988D02*
X000592Y008988D01*
X000592Y009106D02*
X003936Y009106D01*
X003936Y009225D02*
X000592Y009225D01*
X000592Y009343D02*
X003936Y009343D01*
X003936Y009462D02*
X000592Y009462D01*
X000592Y009580D02*
X003936Y009580D01*
X003936Y009699D02*
X000592Y009699D01*
X000592Y009817D02*
X003936Y009817D01*
X003936Y009936D02*
X000592Y009936D01*
X000592Y010054D02*
X003936Y010054D01*
X004042Y010173D02*
X000592Y010173D01*
X000592Y010291D02*
X004069Y010291D01*
X004118Y010410D02*
X000592Y010410D01*
X000592Y010528D02*
X004257Y010528D01*
X004516Y010647D02*
X000592Y010647D01*
X000592Y010765D02*
X004635Y010765D01*
X004753Y010884D02*
X000592Y010884D01*
X000592Y011002D02*
X004872Y011002D01*
X004990Y011121D02*
X000592Y011121D01*
X000592Y011239D02*
X005109Y011239D01*
X005227Y011358D02*
X000592Y011358D01*
X000592Y011476D02*
X005346Y011476D01*
X005464Y011595D02*
X000592Y011595D01*
X000592Y011713D02*
X005583Y011713D01*
X005701Y011832D02*
X000592Y011832D01*
X000592Y011950D02*
X005820Y011950D01*
X005939Y012069D02*
X000592Y012069D01*
X000592Y012187D02*
X006057Y012187D01*
X006176Y012306D02*
X000592Y012306D01*
X000592Y012424D02*
X006294Y012424D01*
X006413Y012543D02*
X000592Y012543D01*
X000592Y012661D02*
X006531Y012661D01*
X006650Y012780D02*
X000592Y012780D01*
X000592Y012898D02*
X006768Y012898D01*
X006887Y013017D02*
X000592Y013017D01*
X000592Y013135D02*
X007005Y013135D01*
X007124Y013254D02*
X000592Y013254D01*
X000592Y013372D02*
X007242Y013372D01*
X007594Y012850D02*
X004406Y009663D01*
X004406Y007600D01*
X004969Y007100D01*
X004656Y006973D02*
X003260Y006973D01*
X003031Y006725D02*
X007094Y006725D01*
X007322Y006973D02*
X014962Y006973D01*
X014962Y006855D02*
X007405Y006855D01*
X007431Y006736D02*
X014962Y006736D01*
X014962Y006618D02*
X007414Y006618D01*
X007344Y006499D02*
X014962Y006499D01*
X014962Y007092D02*
X005804Y007092D01*
X005806Y007210D02*
X006441Y007210D01*
X006622Y007210D02*
X014962Y007210D01*
X014962Y007329D02*
X006799Y007329D01*
X006859Y007447D02*
X014962Y007447D01*
X014962Y007566D02*
X006868Y007566D01*
X006835Y007684D02*
X014962Y007684D01*
X014962Y007803D02*
X006751Y007803D01*
X006751Y007921D02*
X014962Y007921D01*
X014962Y008040D02*
X006751Y008040D01*
X006751Y008158D02*
X014962Y008158D01*
X014962Y008277D02*
X006751Y008277D01*
X006751Y008395D02*
X014962Y008395D01*
X014962Y008514D02*
X006751Y008514D01*
X006751Y008632D02*
X014962Y008632D01*
X014962Y008751D02*
X006751Y008751D01*
X006751Y008869D02*
X014962Y008869D01*
X014962Y008988D02*
X006751Y008988D01*
X006751Y009106D02*
X014962Y009106D01*
X014962Y009225D02*
X006751Y009225D01*
X006751Y009343D02*
X014962Y009343D01*
X014962Y009462D02*
X006751Y009462D01*
X006751Y009580D02*
X014962Y009580D01*
X014962Y009699D02*
X006751Y009699D01*
X006751Y009817D02*
X014962Y009817D01*
X014962Y009936D02*
X006865Y009936D01*
X006984Y010054D02*
X014962Y010054D01*
X014962Y010173D02*
X007102Y010173D01*
X007221Y010291D02*
X014962Y010291D01*
X014962Y010410D02*
X007339Y010410D01*
X007458Y010528D02*
X014962Y010528D01*
X014962Y010647D02*
X007576Y010647D01*
X007695Y010765D02*
X014962Y010765D01*
X014962Y010884D02*
X007813Y010884D01*
X008097Y011002D02*
X014962Y011002D01*
X014962Y011121D02*
X008165Y011121D01*
X008181Y011239D02*
X014962Y011239D01*
X014962Y011358D02*
X008154Y011358D01*
X008069Y011476D02*
X014962Y011476D01*
X014962Y011595D02*
X007962Y011595D01*
X008080Y011713D02*
X014962Y011713D01*
X014962Y011832D02*
X008364Y011832D01*
X008459Y011950D02*
X014962Y011950D01*
X014962Y012069D02*
X008493Y012069D01*
X008485Y012187D02*
X014962Y012187D01*
X014962Y012306D02*
X008427Y012306D01*
X008255Y012424D02*
X014962Y012424D01*
X014962Y012543D02*
X008285Y012543D01*
X008403Y012661D02*
X014962Y012661D01*
X012578Y015624D02*
X000592Y015624D01*
X000592Y014794D02*
X011811Y014794D01*
X011723Y014676D02*
X000592Y014676D01*
X000592Y014557D02*
X011694Y014557D01*
X011621Y014439D02*
X000592Y014439D01*
X000592Y014320D02*
X011503Y014320D01*
X011384Y014202D02*
X000592Y014202D01*
X000592Y014083D02*
X011266Y014083D01*
X011147Y013965D02*
X000592Y013965D01*
X000592Y013846D02*
X011029Y013846D01*
X010910Y013728D02*
X000592Y013728D01*
X000592Y013609D02*
X010792Y013609D01*
X010673Y013491D02*
X000592Y013491D01*
X002251Y018942D02*
X013285Y018942D01*
X013000Y019060D02*
X002537Y019060D01*
X002663Y019179D02*
X012882Y019179D01*
X012763Y019297D02*
X002781Y019297D01*
X002834Y019416D02*
X003090Y019416D01*
X003237Y019416D02*
X003317Y019416D01*
X003317Y019534D02*
X003237Y019534D01*
X003237Y019653D02*
X003317Y019653D01*
X003317Y019771D02*
X003237Y019771D01*
X002929Y019534D02*
X002883Y019534D01*
X003465Y019416D02*
X004091Y019416D01*
X003929Y019534D02*
X003626Y019534D01*
X003700Y019653D02*
X003855Y019653D01*
X003817Y019771D02*
X003733Y019771D01*
X003734Y019890D02*
X003817Y019890D01*
X003850Y020008D02*
X003705Y020008D01*
X004464Y019416D02*
X005091Y019416D01*
X004929Y019534D02*
X004626Y019534D01*
X004699Y019653D02*
X004855Y019653D01*
X004817Y019771D02*
X004737Y019771D01*
X004737Y019890D02*
X004817Y019890D01*
X004850Y020008D02*
X004704Y020008D01*
X005464Y019416D02*
X006091Y019416D01*
X005929Y019534D02*
X005626Y019534D01*
X005699Y019653D02*
X005855Y019653D01*
X005817Y019771D02*
X005737Y019771D01*
X005737Y019890D02*
X005817Y019890D01*
X005850Y020008D02*
X005704Y020008D01*
X006464Y019416D02*
X007091Y019416D01*
X006929Y019534D02*
X006626Y019534D01*
X006699Y019653D02*
X006855Y019653D01*
X006817Y019771D02*
X006737Y019771D01*
X006737Y019890D02*
X006817Y019890D01*
X006850Y020008D02*
X006704Y020008D01*
X007464Y019416D02*
X008091Y019416D01*
X007929Y019534D02*
X007626Y019534D01*
X007699Y019653D02*
X007855Y019653D01*
X007817Y019771D02*
X007737Y019771D01*
X007737Y019890D02*
X007817Y019890D01*
X007850Y020008D02*
X007704Y020008D01*
X008464Y019416D02*
X009091Y019416D01*
X008929Y019534D02*
X008626Y019534D01*
X008699Y019653D02*
X008855Y019653D01*
X008817Y019771D02*
X008737Y019771D01*
X008737Y019890D02*
X008817Y019890D01*
X008850Y020008D02*
X008704Y020008D01*
X009464Y019416D02*
X010091Y019416D01*
X009929Y019534D02*
X009626Y019534D01*
X009699Y019653D02*
X009855Y019653D01*
X009817Y019771D02*
X009737Y019771D01*
X009737Y019890D02*
X009817Y019890D01*
X009850Y020008D02*
X009704Y020008D01*
X010464Y019416D02*
X011090Y019416D01*
X011237Y019416D02*
X011317Y019416D01*
X011317Y019534D02*
X011237Y019534D01*
X011237Y019653D02*
X011317Y019653D01*
X011317Y019771D02*
X011237Y019771D01*
X010929Y019534D02*
X010626Y019534D01*
X010699Y019653D02*
X010854Y019653D01*
X010822Y019771D02*
X010737Y019771D01*
X010737Y019890D02*
X010820Y019890D01*
X010849Y020008D02*
X010704Y020008D01*
X011465Y019416D02*
X012091Y019416D01*
X011929Y019534D02*
X011626Y019534D01*
X011700Y019653D02*
X011855Y019653D01*
X011817Y019771D02*
X011733Y019771D01*
X011734Y019890D02*
X011817Y019890D01*
X011850Y020008D02*
X011705Y020008D01*
X012464Y019416D02*
X012712Y019416D01*
X012663Y019534D02*
X012626Y019534D01*
X013686Y018942D02*
X014962Y018942D01*
X014962Y019060D02*
X013971Y019060D01*
X014090Y019179D02*
X014962Y019179D01*
X014962Y019297D02*
X014208Y019297D01*
X014259Y019416D02*
X014962Y019416D01*
X014962Y019534D02*
X014308Y019534D01*
X014342Y019653D02*
X014962Y019653D01*
X014962Y019771D02*
X014342Y019771D01*
X014342Y019890D02*
X014962Y019890D01*
X014962Y020008D02*
X014320Y020008D01*
X010969Y012975D02*
X010031Y012975D01*
X008406Y012975D01*
X004781Y009350D01*
X004781Y007725D01*
X004514Y007210D02*
X004463Y007210D01*
X004374Y007092D02*
X004631Y007092D01*
X005469Y007163D02*
X005469Y009413D01*
X008156Y012100D01*
X007844Y011225D02*
X006531Y009913D01*
X006531Y007538D01*
X006227Y007684D02*
X005689Y007684D01*
X005689Y007566D02*
X006194Y007566D01*
X006204Y007447D02*
X005689Y007447D01*
X005765Y007329D02*
X006263Y007329D01*
X006311Y007803D02*
X005689Y007803D01*
X005689Y007921D02*
X006311Y007921D01*
X006311Y008040D02*
X005689Y008040D01*
X005689Y008158D02*
X006311Y008158D01*
X006311Y008277D02*
X005689Y008277D01*
X005689Y008395D02*
X006311Y008395D01*
X006311Y008514D02*
X005689Y008514D01*
X005689Y008632D02*
X006311Y008632D01*
X006311Y008751D02*
X005689Y008751D01*
X005689Y008869D02*
X006311Y008869D01*
X006311Y008988D02*
X005689Y008988D01*
X005689Y009106D02*
X006311Y009106D01*
X006311Y009225D02*
X005689Y009225D01*
X005710Y009343D02*
X006311Y009343D01*
X006311Y009462D02*
X005829Y009462D01*
X005947Y009580D02*
X006311Y009580D01*
X006311Y009699D02*
X006066Y009699D01*
X006184Y009817D02*
X006311Y009817D01*
X006303Y009936D02*
X006311Y009936D01*
X005755Y006973D02*
X006865Y006973D01*
X006843Y006499D02*
X003282Y006499D01*
X002913Y006070D02*
X002847Y006136D01*
X002723Y006187D01*
X002589Y006187D01*
X002465Y006136D01*
X002370Y006041D01*
X002319Y005917D01*
X002319Y005783D01*
X002370Y005659D01*
X002465Y005564D01*
X002589Y005513D01*
X002671Y005513D01*
X002631Y005417D01*
X002631Y005283D01*
X002683Y005159D01*
X002778Y005064D01*
X002902Y005013D01*
X003036Y005013D01*
X003160Y005064D01*
X003225Y005130D01*
X005337Y005130D01*
X005403Y005064D01*
X005527Y005013D01*
X005661Y005013D01*
X005785Y005064D01*
X005879Y005159D01*
X005931Y005283D01*
X005931Y005417D01*
X005891Y005513D01*
X005973Y005513D01*
X006097Y005564D01*
X006192Y005659D01*
X006243Y005783D01*
X006243Y005917D01*
X006192Y006041D01*
X006097Y006136D01*
X005973Y006187D01*
X005839Y006187D01*
X005715Y006136D01*
X005649Y006070D01*
X002913Y006070D01*
X002829Y006144D02*
X005734Y006144D01*
X005906Y005850D02*
X002656Y005850D01*
X002484Y006144D02*
X000592Y006144D01*
X000592Y006262D02*
X008905Y006262D01*
X008903Y006261D02*
X008808Y006166D01*
X008756Y006042D01*
X008756Y005908D01*
X008808Y005784D01*
X008874Y005718D01*
X008874Y004732D01*
X008808Y004666D01*
X008756Y004542D01*
X008756Y004408D01*
X008808Y004284D01*
X008903Y004189D01*
X009027Y004138D01*
X009161Y004138D01*
X009285Y004189D01*
X009379Y004284D01*
X009431Y004408D01*
X009431Y004542D01*
X009379Y004666D01*
X009314Y004732D01*
X009314Y005718D01*
X009379Y005784D01*
X009431Y005908D01*
X009431Y006042D01*
X009379Y006166D01*
X009285Y006261D01*
X009161Y006312D01*
X009027Y006312D01*
X008903Y006261D01*
X008798Y006144D02*
X006079Y006144D01*
X006199Y006025D02*
X008756Y006025D01*
X008757Y005907D02*
X006243Y005907D01*
X006243Y005788D02*
X008806Y005788D01*
X008874Y005670D02*
X006196Y005670D01*
X006065Y005551D02*
X008874Y005551D01*
X008874Y005433D02*
X005924Y005433D01*
X005931Y005314D02*
X008874Y005314D01*
X008874Y005196D02*
X005895Y005196D01*
X005797Y005077D02*
X008874Y005077D01*
X008874Y004959D02*
X000592Y004959D01*
X000592Y005077D02*
X002765Y005077D01*
X002668Y005196D02*
X000592Y005196D01*
X000592Y005314D02*
X002631Y005314D01*
X002638Y005433D02*
X000592Y005433D01*
X000592Y005551D02*
X002497Y005551D01*
X002366Y005670D02*
X000592Y005670D01*
X000592Y005788D02*
X002319Y005788D01*
X002319Y005907D02*
X000592Y005907D01*
X000592Y006025D02*
X002364Y006025D01*
X002780Y006499D02*
X000592Y006499D01*
X000592Y006381D02*
X011568Y006381D01*
X011554Y006262D02*
X009282Y006262D01*
X009389Y006144D02*
X011554Y006144D01*
X011554Y006025D02*
X009431Y006025D01*
X009430Y005907D02*
X011554Y005907D01*
X011554Y005788D02*
X009381Y005788D01*
X009314Y005670D02*
X011554Y005670D01*
X011554Y005551D02*
X009314Y005551D01*
X009314Y005433D02*
X011554Y005433D01*
X011554Y005314D02*
X009314Y005314D01*
X009314Y005196D02*
X011554Y005196D01*
X011554Y005077D02*
X009314Y005077D01*
X009314Y004959D02*
X011554Y004959D01*
X011554Y004840D02*
X009314Y004840D01*
X009324Y004722D02*
X011554Y004722D01*
X011554Y004603D02*
X009406Y004603D01*
X009431Y004485D02*
X011554Y004485D01*
X011554Y004366D02*
X009413Y004366D01*
X009343Y004248D02*
X011554Y004248D01*
X011554Y004129D02*
X000592Y004129D01*
X000592Y004011D02*
X011554Y004011D01*
X011554Y003892D02*
X000592Y003892D01*
X000592Y003774D02*
X011554Y003774D01*
X011554Y003655D02*
X000592Y003655D01*
X000592Y003537D02*
X011554Y003537D01*
X011554Y003418D02*
X000592Y003418D01*
X000592Y003300D02*
X011554Y003300D01*
X011554Y003181D02*
X000592Y003181D01*
X000592Y003063D02*
X011554Y003063D01*
X011554Y002944D02*
X000592Y002944D01*
X000592Y002826D02*
X011554Y002826D01*
X011554Y002707D02*
X000592Y002707D01*
X000592Y002589D02*
X011554Y002589D01*
X011554Y002470D02*
X000592Y002470D01*
X000592Y002352D02*
X011554Y002352D01*
X011554Y002233D02*
X000592Y002233D01*
X000592Y002115D02*
X011554Y002115D01*
X011554Y001996D02*
X000592Y001996D01*
X000592Y001878D02*
X011554Y001878D01*
X011554Y001759D02*
X000592Y001759D01*
X000592Y001641D02*
X001650Y001641D01*
X001493Y001522D02*
X000592Y001522D01*
X000592Y001404D02*
X001374Y001404D01*
X001307Y001285D02*
X000592Y001285D01*
X000592Y001167D02*
X001258Y001167D01*
X001213Y001048D02*
X000592Y001048D01*
X000592Y000930D02*
X001213Y000930D01*
X001213Y000811D02*
X000592Y000811D01*
X000592Y000693D02*
X001223Y000693D01*
X002487Y001641D02*
X011554Y001641D01*
X011591Y001522D02*
X002644Y001522D01*
X002763Y001404D02*
X011714Y001404D01*
X011714Y001285D02*
X011396Y001285D01*
X011597Y001167D02*
X011714Y001167D01*
X011714Y001048D02*
X011687Y001048D01*
X011159Y001285D02*
X010396Y001285D01*
X010597Y001167D02*
X010957Y001167D01*
X010867Y001048D02*
X010687Y001048D01*
X010736Y000930D02*
X010818Y000930D01*
X010817Y000811D02*
X010737Y000811D01*
X010716Y000693D02*
X010839Y000693D01*
X010159Y001285D02*
X009384Y001285D01*
X009317Y001285D02*
X009237Y001285D01*
X009170Y001285D02*
X008396Y001285D01*
X008597Y001167D02*
X008957Y001167D01*
X008869Y001048D02*
X008687Y001048D01*
X008736Y000930D02*
X008826Y000930D01*
X008737Y000811D02*
X009237Y000811D01*
X009317Y000811D02*
X009817Y000811D01*
X009818Y000930D02*
X009728Y000930D01*
X009686Y001048D02*
X009867Y001048D01*
X009957Y001167D02*
X009597Y001167D01*
X009317Y001167D02*
X009237Y001167D01*
X009237Y001048D02*
X009317Y001048D01*
X009317Y000930D02*
X009237Y000930D01*
X008840Y000693D02*
X008716Y000693D01*
X008159Y001285D02*
X007396Y001285D01*
X007597Y001167D02*
X007957Y001167D01*
X007867Y001048D02*
X007687Y001048D01*
X007736Y000930D02*
X007818Y000930D01*
X007817Y000811D02*
X007737Y000811D01*
X007716Y000693D02*
X007839Y000693D01*
X007159Y001285D02*
X006396Y001285D01*
X006597Y001167D02*
X006957Y001167D01*
X006867Y001048D02*
X006687Y001048D01*
X006736Y000930D02*
X006818Y000930D01*
X006817Y000811D02*
X006737Y000811D01*
X006716Y000693D02*
X006839Y000693D01*
X006159Y001285D02*
X005396Y001285D01*
X005159Y001285D02*
X004396Y001285D01*
X004159Y001285D02*
X003384Y001285D01*
X003317Y001285D02*
X003237Y001285D01*
X003170Y001285D02*
X002830Y001285D01*
X002879Y001167D02*
X002957Y001167D01*
X003237Y001167D02*
X003317Y001167D01*
X003317Y001048D02*
X003237Y001048D01*
X003237Y000930D02*
X003317Y000930D01*
X003317Y000811D02*
X003817Y000811D01*
X003818Y000930D02*
X003728Y000930D01*
X003686Y001048D02*
X003867Y001048D01*
X003957Y001167D02*
X003597Y001167D01*
X003714Y000693D02*
X003839Y000693D01*
X004716Y000693D02*
X004839Y000693D01*
X004817Y000811D02*
X004737Y000811D01*
X004736Y000930D02*
X004818Y000930D01*
X004867Y001048D02*
X004687Y001048D01*
X004597Y001167D02*
X004957Y001167D01*
X005597Y001167D02*
X005957Y001167D01*
X005867Y001048D02*
X005687Y001048D01*
X005736Y000930D02*
X005818Y000930D01*
X005817Y000811D02*
X005737Y000811D01*
X005716Y000693D02*
X005839Y000693D01*
X008774Y004366D02*
X000592Y004366D01*
X000592Y004248D02*
X008844Y004248D01*
X008756Y004485D02*
X000592Y004485D01*
X000592Y004603D02*
X008782Y004603D01*
X008863Y004722D02*
X000592Y004722D01*
X000592Y004840D02*
X008874Y004840D01*
X009094Y004475D02*
X009094Y005975D01*
X005594Y005350D02*
X002969Y005350D01*
X003172Y005077D02*
X005390Y005077D01*
X002802Y006973D02*
X000592Y006973D01*
X000592Y006855D02*
X002720Y006855D01*
X002694Y006736D02*
X000592Y006736D01*
X000592Y006618D02*
X002711Y006618D01*
X009714Y000693D02*
X009839Y000693D01*
D12*
X009094Y004475D03*
X009094Y005975D03*
X007094Y006725D03*
X006531Y007538D03*
X005469Y007163D03*
X004969Y007100D03*
X004781Y007725D03*
X004156Y007350D03*
X003031Y006725D03*
X002656Y005850D03*
X002969Y005350D03*
X005594Y005350D03*
X005906Y005850D03*
X004406Y010225D03*
X007594Y012850D03*
X008156Y012100D03*
X007844Y011225D03*
X012031Y014538D03*
X012781Y015350D03*
M02*
