G75*
G70*
%OFA0B0*%
%FSLAX24Y24*%
%IPPOS*%
%LPD*%
%AMOC8*
5,1,8,0,0,1.08239X$1,22.5*
%
%ADD10C,0.0080*%
%ADD11C,0.0030*%
%ADD12C,0.0060*%
%ADD13C,0.0217*%
%ADD14R,0.0433X0.0118*%
%ADD15R,0.0551X0.0256*%
%ADD16C,0.0040*%
%ADD17R,0.0295X0.0571*%
%ADD18R,0.0571X0.0295*%
%ADD19R,0.0256X0.0551*%
%ADD20C,0.0100*%
%ADD21C,0.0050*%
%ADD22R,0.0250X0.0250*%
D10*
X003939Y000454D02*
X006596Y000454D01*
X006596Y000651D01*
X006596Y000996D02*
X006596Y001193D01*
X003939Y001193D01*
X003939Y000996D01*
X003939Y000651D02*
X003939Y000454D01*
X006941Y000454D02*
X008614Y000454D01*
X008614Y000651D01*
X008614Y000996D02*
X008614Y001193D01*
X006941Y001193D01*
X006941Y000996D01*
X006941Y000651D02*
X006941Y000454D01*
X009569Y019450D02*
X004007Y019450D01*
X004007Y019618D01*
X004007Y020061D02*
X004007Y020208D01*
X009569Y020208D01*
X009569Y020061D01*
X009962Y020041D02*
X009962Y020208D01*
X012620Y020208D01*
X012620Y020031D01*
X012620Y019647D02*
X012620Y019450D01*
X009962Y019450D01*
X009962Y019647D01*
X009569Y019618D02*
X009569Y019450D01*
D11*
X009354Y019204D02*
X009161Y019011D01*
X009209Y018962D01*
X009306Y018962D01*
X009354Y019011D01*
X009354Y019204D01*
X009306Y019253D01*
X009209Y019253D01*
X009161Y019204D01*
X009161Y019011D01*
X010013Y018982D02*
X010013Y019272D01*
X010158Y019272D01*
X010207Y019224D01*
X010207Y019127D01*
X010158Y019079D01*
X010013Y019079D01*
X010110Y019079D02*
X010207Y018982D01*
X010308Y018982D02*
X010501Y019272D01*
X010308Y019272D02*
X010501Y018982D01*
X010850Y019030D02*
X010899Y018982D01*
X010995Y018982D01*
X011044Y019030D01*
X011044Y019127D01*
X010947Y019127D01*
X010850Y019224D02*
X010850Y019030D01*
X010850Y019224D02*
X010899Y019272D01*
X010995Y019272D01*
X011044Y019224D01*
X011145Y019272D02*
X011145Y018982D01*
X011338Y018982D02*
X011338Y019272D01*
X011439Y019272D02*
X011585Y019272D01*
X011633Y019224D01*
X011633Y019030D01*
X011585Y018982D01*
X011439Y018982D01*
X011439Y019272D01*
X011145Y019272D02*
X011338Y018982D01*
X012021Y019272D02*
X012215Y019272D01*
X012118Y019272D02*
X012118Y018982D01*
X012316Y018982D02*
X012509Y019272D01*
X012316Y019272D02*
X012509Y018982D01*
X014057Y014337D02*
X014119Y014337D01*
X014181Y014275D01*
X014242Y014337D01*
X014304Y014337D01*
X014366Y014275D01*
X014366Y014152D01*
X014304Y014090D01*
X014366Y013969D02*
X013996Y013969D01*
X014057Y014090D02*
X013996Y014152D01*
X013996Y014275D01*
X014057Y014337D01*
X014181Y014275D02*
X014181Y014214D01*
X014366Y013969D02*
X013996Y013722D01*
X014366Y013722D01*
X014304Y013600D02*
X014366Y013539D01*
X014366Y013415D01*
X014304Y013354D01*
X014057Y013354D01*
X013996Y013415D01*
X013996Y013539D01*
X014057Y013600D01*
X010866Y013539D02*
X010866Y013415D01*
X010804Y013354D01*
X010557Y013354D01*
X010496Y013415D01*
X010496Y013539D01*
X010557Y013600D01*
X010496Y013722D02*
X010866Y013969D01*
X010496Y013969D01*
X010681Y014090D02*
X010681Y014337D01*
X010866Y014275D02*
X010496Y014275D01*
X010681Y014090D01*
X010866Y013722D02*
X010496Y013722D01*
X010804Y013600D02*
X010866Y013539D01*
X007366Y013539D02*
X007366Y013415D01*
X007304Y013354D01*
X007057Y013354D01*
X006996Y013415D01*
X006996Y013539D01*
X007057Y013600D01*
X006996Y013722D02*
X007366Y013969D01*
X006996Y013969D01*
X006996Y014090D02*
X007181Y014090D01*
X007119Y014214D01*
X007119Y014275D01*
X007181Y014337D01*
X007304Y014337D01*
X007366Y014275D01*
X007366Y014152D01*
X007304Y014090D01*
X006996Y014090D02*
X006996Y014337D01*
X006996Y013722D02*
X007366Y013722D01*
X007304Y013600D02*
X007366Y013539D01*
X003866Y013539D02*
X003866Y013415D01*
X003804Y013354D01*
X003557Y013354D01*
X003496Y013415D01*
X003496Y013539D01*
X003557Y013600D01*
X003496Y013722D02*
X003866Y013969D01*
X003496Y013969D01*
X003681Y014090D02*
X003557Y014214D01*
X003496Y014337D01*
X003681Y014275D02*
X003681Y014090D01*
X003804Y014090D01*
X003866Y014152D01*
X003866Y014275D01*
X003804Y014337D01*
X003742Y014337D01*
X003681Y014275D01*
X003866Y013722D02*
X003496Y013722D01*
X003804Y013600D02*
X003866Y013539D01*
X003804Y008650D02*
X003557Y008650D01*
X003804Y008403D01*
X003866Y008464D01*
X003866Y008588D01*
X003804Y008650D01*
X003804Y008403D02*
X003557Y008403D01*
X003496Y008464D01*
X003496Y008588D01*
X003557Y008650D01*
X003866Y008281D02*
X003866Y008034D01*
X003866Y007913D02*
X003496Y007913D01*
X003619Y008034D02*
X003496Y008158D01*
X003866Y008158D01*
X003866Y007913D02*
X003496Y007666D01*
X003866Y007666D01*
X003804Y007545D02*
X003866Y007483D01*
X003866Y007359D01*
X003804Y007298D01*
X003557Y007298D01*
X003496Y007359D01*
X003496Y007483D01*
X003557Y007545D01*
X003238Y005114D02*
X003238Y004867D01*
X003238Y004746D02*
X002868Y004746D01*
X002991Y004867D02*
X002868Y004991D01*
X003238Y004991D01*
X003238Y004746D02*
X003115Y004623D01*
X003238Y004499D01*
X002868Y004499D01*
X002929Y004378D02*
X002868Y004316D01*
X002868Y004192D01*
X002929Y004131D01*
X002991Y004131D01*
X003053Y004192D01*
X003053Y004316D01*
X003115Y004378D01*
X003176Y004378D01*
X003238Y004316D01*
X003238Y004192D01*
X003176Y004131D01*
X002989Y003710D02*
X002865Y003587D01*
X002744Y003649D02*
X002744Y003525D01*
X002682Y003463D01*
X002497Y003463D01*
X002497Y003340D02*
X002497Y003710D01*
X002682Y003710D01*
X002744Y003649D01*
X002620Y003463D02*
X002744Y003340D01*
X002865Y003340D02*
X003112Y003340D01*
X002989Y003340D02*
X002989Y003710D01*
X003921Y003423D02*
X003921Y003053D01*
X003921Y003176D02*
X004106Y003176D01*
X004168Y003238D01*
X004168Y003361D01*
X004106Y003423D01*
X003921Y003423D01*
X004045Y003176D02*
X004168Y003053D01*
X004289Y003114D02*
X004351Y003053D01*
X004475Y003053D01*
X004536Y003114D01*
X004536Y003176D01*
X004475Y003238D01*
X004413Y003238D01*
X004475Y003238D02*
X004536Y003299D01*
X004536Y003361D01*
X004475Y003423D01*
X004351Y003423D01*
X004289Y003361D01*
X004289Y004053D02*
X004536Y004053D01*
X004413Y004053D02*
X004413Y004423D01*
X004289Y004299D01*
X004168Y004361D02*
X004106Y004423D01*
X003983Y004423D01*
X003921Y004361D01*
X003921Y004114D01*
X003983Y004053D01*
X004106Y004053D01*
X004168Y004114D01*
X004945Y002287D02*
X005069Y002164D01*
X005069Y001917D01*
X005190Y001917D02*
X005314Y001917D01*
X005252Y001917D02*
X005252Y002287D01*
X005190Y002287D02*
X005314Y002287D01*
X005436Y002225D02*
X005436Y001978D01*
X005497Y001917D01*
X005621Y001917D01*
X005682Y001978D01*
X005682Y002225D01*
X005621Y002287D01*
X005497Y002287D01*
X005436Y002225D01*
X005069Y002102D02*
X004822Y002102D01*
X004822Y002164D02*
X004945Y002287D01*
X004822Y002164D02*
X004822Y001917D01*
X004358Y001749D02*
X004358Y001556D01*
X004310Y001508D01*
X004213Y001508D01*
X004165Y001556D01*
X004358Y001749D01*
X004310Y001798D01*
X004213Y001798D01*
X004165Y001749D01*
X004165Y001556D01*
X003651Y001629D02*
X003651Y001436D01*
X003602Y001388D01*
X003457Y001388D01*
X003457Y001678D01*
X003602Y001678D01*
X003651Y001629D01*
X003356Y001678D02*
X003356Y001388D01*
X003163Y001678D01*
X003163Y001388D01*
X003061Y001436D02*
X003061Y001533D01*
X002965Y001533D01*
X003061Y001629D02*
X003013Y001678D01*
X002916Y001678D01*
X002868Y001629D01*
X002868Y001436D01*
X002916Y001388D01*
X003013Y001388D01*
X003061Y001436D01*
X001425Y003340D02*
X001178Y003340D01*
X001425Y003587D01*
X001425Y003649D01*
X001363Y003710D01*
X001240Y003710D01*
X001178Y003649D01*
X001056Y003649D02*
X001056Y003525D01*
X000995Y003463D01*
X000809Y003463D01*
X000809Y003340D02*
X000809Y003710D01*
X000995Y003710D01*
X001056Y003649D01*
X000933Y003463D02*
X001056Y003340D01*
X006149Y001738D02*
X006197Y001786D01*
X006294Y001786D01*
X006342Y001738D01*
X006342Y001689D01*
X006149Y001496D01*
X006342Y001496D01*
X006838Y001556D02*
X006887Y001508D01*
X006984Y001508D01*
X007032Y001556D01*
X007032Y001604D01*
X006984Y001653D01*
X006887Y001653D01*
X006838Y001701D01*
X006838Y001749D01*
X006887Y001798D01*
X006984Y001798D01*
X007032Y001749D01*
X007133Y001798D02*
X007133Y001508D01*
X007278Y001508D01*
X007327Y001556D01*
X007327Y001749D01*
X007278Y001798D01*
X007133Y001798D01*
X007321Y001917D02*
X007444Y001917D01*
X007382Y001917D02*
X007382Y002287D01*
X007321Y002287D02*
X007444Y002287D01*
X007566Y002225D02*
X007628Y002287D01*
X007751Y002287D01*
X007813Y002225D01*
X007813Y002164D01*
X007566Y001917D01*
X007813Y001917D01*
X007935Y001978D02*
X007935Y002225D01*
X007996Y002287D01*
X008120Y002287D01*
X008181Y002225D01*
X008181Y001978D02*
X008120Y001917D01*
X007996Y001917D01*
X007935Y001978D01*
X007910Y001798D02*
X007862Y001749D01*
X007862Y001701D01*
X007910Y001653D01*
X008007Y001653D01*
X008055Y001604D01*
X008055Y001556D01*
X008007Y001508D01*
X007910Y001508D01*
X007862Y001556D01*
X007910Y001798D02*
X008007Y001798D01*
X008055Y001749D01*
X008157Y001749D02*
X008157Y001556D01*
X008205Y001508D01*
X008302Y001508D01*
X008350Y001556D01*
X008451Y001508D02*
X008645Y001508D01*
X008451Y001508D02*
X008451Y001798D01*
X008350Y001749D02*
X008302Y001798D01*
X008205Y001798D01*
X008157Y001749D01*
X007621Y001701D02*
X007621Y001508D01*
X007621Y001653D02*
X007428Y001653D01*
X007428Y001701D02*
X007428Y001508D01*
X007428Y001701D02*
X007524Y001798D01*
X007621Y001701D01*
X007329Y003240D02*
X007083Y003240D01*
X007021Y003302D01*
X007021Y003425D01*
X007083Y003487D01*
X007083Y003608D02*
X007021Y003670D01*
X007021Y003793D01*
X007083Y003855D01*
X007144Y003855D01*
X007391Y003608D01*
X007391Y003855D01*
X007329Y003487D02*
X007391Y003425D01*
X007391Y003302D01*
X007329Y003240D01*
X008852Y001748D02*
X008852Y001554D01*
X008901Y001506D01*
X008997Y001506D01*
X009046Y001554D01*
X009046Y001651D01*
X008949Y001651D01*
X009046Y001748D02*
X008997Y001796D01*
X008901Y001796D01*
X008852Y001748D01*
X009147Y001796D02*
X009147Y001506D01*
X009340Y001506D02*
X009147Y001796D01*
X009340Y001796D02*
X009340Y001506D01*
X009441Y001506D02*
X009587Y001506D01*
X009635Y001554D01*
X009635Y001748D01*
X009587Y001796D01*
X009441Y001796D01*
X009441Y001506D01*
X009831Y001653D02*
X010024Y001653D01*
X009927Y001749D02*
X009927Y001556D01*
X010125Y001556D02*
X010174Y001508D01*
X010270Y001508D01*
X010319Y001556D01*
X010319Y001604D01*
X010270Y001653D01*
X010222Y001653D01*
X010270Y001653D02*
X010319Y001701D01*
X010319Y001749D01*
X010270Y001798D01*
X010174Y001798D01*
X010125Y001749D01*
X010420Y001798D02*
X010420Y001604D01*
X010517Y001508D01*
X010613Y001604D01*
X010613Y001798D01*
X010838Y001653D02*
X011032Y001653D01*
X011133Y001653D02*
X011230Y001701D01*
X011278Y001701D01*
X011327Y001653D01*
X011327Y001556D01*
X011278Y001508D01*
X011181Y001508D01*
X011133Y001556D01*
X011133Y001653D02*
X011133Y001798D01*
X011327Y001798D01*
X011428Y001798D02*
X011428Y001604D01*
X011524Y001508D01*
X011621Y001604D01*
X011621Y001798D01*
X011715Y001798D02*
X011715Y001604D01*
X011811Y001508D01*
X011908Y001604D01*
X011908Y001798D01*
X012009Y001798D02*
X012009Y001508D01*
X012154Y001508D01*
X012203Y001556D01*
X012203Y001604D01*
X012154Y001653D01*
X012009Y001653D01*
X012009Y001798D02*
X012154Y001798D01*
X012203Y001749D01*
X012203Y001701D01*
X012154Y001653D01*
X012304Y001653D02*
X012497Y001653D01*
X012497Y001701D02*
X012497Y001508D01*
X012304Y001508D02*
X012304Y001701D01*
X012401Y001798D01*
X012497Y001701D01*
X012599Y001798D02*
X012792Y001798D01*
X012695Y001798D02*
X012695Y001508D01*
X012686Y001976D02*
X012810Y001976D01*
X012872Y002038D01*
X012993Y001976D02*
X012993Y002347D01*
X013240Y001976D01*
X013240Y002347D01*
X013361Y002285D02*
X013423Y002347D01*
X013547Y002347D01*
X013608Y002285D01*
X013608Y002223D01*
X013361Y001976D01*
X013608Y001976D01*
X012872Y002285D02*
X012810Y002347D01*
X012686Y002347D01*
X012625Y002285D01*
X012625Y002038D01*
X012686Y001976D01*
X010935Y001749D02*
X010935Y001556D01*
X010921Y005303D02*
X010921Y005673D01*
X011106Y005673D01*
X011168Y005611D01*
X011168Y005488D01*
X011106Y005426D01*
X010921Y005426D01*
X011045Y005426D02*
X011168Y005303D01*
X011289Y005364D02*
X011351Y005303D01*
X011475Y005303D01*
X011536Y005364D01*
X011536Y005488D01*
X011475Y005549D01*
X011413Y005549D01*
X011289Y005488D01*
X011289Y005673D01*
X011536Y005673D01*
X011475Y006240D02*
X011475Y006610D01*
X011289Y006425D01*
X011536Y006425D01*
X011168Y006425D02*
X011106Y006363D01*
X010921Y006363D01*
X010921Y006240D02*
X010921Y006610D01*
X011106Y006610D01*
X011168Y006549D01*
X011168Y006425D01*
X011045Y006363D02*
X011168Y006240D01*
X010804Y007604D02*
X010557Y007604D01*
X010496Y007665D01*
X010496Y007789D01*
X010557Y007850D01*
X010496Y007972D02*
X010866Y008219D01*
X010496Y008219D01*
X010557Y008340D02*
X010619Y008340D01*
X010681Y008402D01*
X010681Y008525D01*
X010742Y008587D01*
X010804Y008587D01*
X010866Y008525D01*
X010866Y008402D01*
X010804Y008340D01*
X010742Y008340D01*
X010681Y008402D01*
X010681Y008525D02*
X010619Y008587D01*
X010557Y008587D01*
X010496Y008525D01*
X010496Y008402D01*
X010557Y008340D01*
X010496Y007972D02*
X010866Y007972D01*
X010804Y007850D02*
X010866Y007789D01*
X010866Y007665D01*
X010804Y007604D01*
X007697Y005762D02*
X007697Y005392D01*
X007574Y005392D02*
X007821Y005392D01*
X007574Y005638D02*
X007697Y005762D01*
X007452Y005700D02*
X007391Y005762D01*
X007267Y005762D01*
X007206Y005700D01*
X007206Y005453D01*
X007267Y005392D01*
X007391Y005392D01*
X007452Y005453D01*
X007083Y005392D02*
X006960Y005392D01*
X007022Y005392D02*
X007022Y005762D01*
X007083Y005762D02*
X006960Y005762D01*
X007057Y007604D02*
X007304Y007604D01*
X007366Y007665D01*
X007366Y007789D01*
X007304Y007850D01*
X007366Y007972D02*
X006996Y007972D01*
X007366Y008219D01*
X006996Y008219D01*
X007057Y008340D02*
X006996Y008402D01*
X006996Y008525D01*
X007057Y008587D01*
X007304Y008587D01*
X007366Y008525D01*
X007366Y008402D01*
X007304Y008340D01*
X007181Y008402D02*
X007181Y008587D01*
X007181Y008402D02*
X007119Y008340D01*
X007057Y008340D01*
X007057Y007850D02*
X006996Y007789D01*
X006996Y007665D01*
X007057Y007604D01*
X013971Y007603D02*
X014033Y007542D01*
X014280Y007542D01*
X014341Y007603D01*
X014341Y007727D01*
X014280Y007788D01*
X014341Y007910D02*
X013971Y007910D01*
X014341Y008157D01*
X013971Y008157D01*
X013971Y008278D02*
X013971Y008525D01*
X014033Y008525D01*
X014280Y008278D01*
X014341Y008278D01*
X014033Y007788D02*
X013971Y007727D01*
X013971Y007603D01*
X007157Y018837D02*
X007034Y018837D01*
X006972Y018899D01*
X006972Y019146D01*
X007034Y019207D01*
X007157Y019207D01*
X007219Y019146D01*
X007219Y018899D01*
X007157Y018837D01*
X006850Y018837D02*
X006726Y018837D01*
X006788Y018837D02*
X006788Y019207D01*
X006726Y019207D02*
X006850Y019207D01*
X006605Y019146D02*
X006605Y019022D01*
X006543Y018960D01*
X006358Y018960D01*
X006358Y018837D02*
X006358Y019207D01*
X006543Y019207D01*
X006605Y019146D01*
X004378Y019190D02*
X004185Y019190D01*
X004185Y019045D01*
X004281Y019093D01*
X004330Y019093D01*
X004378Y019045D01*
X004378Y018948D01*
X004330Y018900D01*
X004233Y018900D01*
X004185Y018948D01*
X003641Y019011D02*
X003641Y019204D01*
X003592Y019253D01*
X003447Y019253D01*
X003447Y018962D01*
X003592Y018962D01*
X003641Y019011D01*
X003346Y018962D02*
X003346Y019253D01*
X003153Y019253D02*
X003346Y018962D01*
X003153Y018962D02*
X003153Y019253D01*
X003052Y019204D02*
X003003Y019253D01*
X002906Y019253D01*
X002858Y019204D01*
X002858Y019011D01*
X002906Y018962D01*
X003003Y018962D01*
X003052Y019011D01*
X003052Y019107D01*
X002955Y019107D01*
X001796Y018976D02*
X001549Y018976D01*
X001427Y018976D02*
X001427Y019347D01*
X001549Y019223D02*
X001672Y019347D01*
X001672Y018976D01*
X001427Y018976D02*
X001181Y019347D01*
X001181Y018976D01*
X001059Y019038D02*
X000997Y018976D01*
X000874Y018976D01*
X000812Y019038D01*
X000812Y019285D01*
X000874Y019347D01*
X000997Y019347D01*
X001059Y019285D01*
D12*
X001219Y002761D02*
X001219Y002439D01*
X001719Y002439D02*
X001719Y002761D01*
X002219Y002761D02*
X002219Y002439D01*
X002719Y002439D02*
X002719Y002761D01*
X004494Y004749D02*
X006193Y004749D01*
X006193Y006702D01*
X004494Y006702D01*
X004494Y004749D01*
X005182Y003538D02*
X005505Y003538D01*
X005505Y003038D02*
X005182Y003038D01*
X009807Y005225D02*
X010130Y005225D01*
X010130Y005725D02*
X009807Y005725D01*
X009807Y006163D02*
X010130Y006163D01*
X010130Y006663D02*
X009807Y006663D01*
X010824Y012068D02*
X010611Y012281D01*
X010824Y012495D01*
X011251Y012495D01*
X011144Y012712D02*
X011251Y012819D01*
X011251Y013032D01*
X011144Y013139D01*
X010931Y013139D01*
X010824Y013032D01*
X010824Y012926D01*
X010931Y012712D01*
X010611Y012712D01*
X010611Y013139D01*
X010931Y012495D02*
X010931Y012068D01*
X010824Y012068D02*
X011251Y012068D01*
X014111Y012281D02*
X014324Y012495D01*
X014751Y012495D01*
X014431Y012495D02*
X014431Y012068D01*
X014324Y012068D02*
X014111Y012281D01*
X014324Y012068D02*
X014751Y012068D01*
X014431Y012712D02*
X014431Y013139D01*
X014751Y013032D02*
X014111Y013032D01*
X014431Y012712D01*
X014431Y017818D02*
X014431Y018245D01*
X014324Y018245D02*
X014751Y018245D01*
X014644Y018462D02*
X014217Y018889D01*
X014644Y018889D01*
X014751Y018782D01*
X014751Y018569D01*
X014644Y018462D01*
X014217Y018462D01*
X014111Y018569D01*
X014111Y018782D01*
X014217Y018889D01*
X014324Y018245D02*
X014111Y018031D01*
X014324Y017818D01*
X014751Y017818D01*
X011251Y017818D02*
X010824Y017818D01*
X010611Y018031D01*
X010824Y018245D01*
X011251Y018245D01*
X011251Y018462D02*
X011251Y018889D01*
X011251Y018676D02*
X010611Y018676D01*
X010824Y018462D01*
X010931Y018245D02*
X010931Y017818D01*
X007751Y017818D02*
X007324Y017818D01*
X007111Y018031D01*
X007324Y018245D01*
X007751Y018245D01*
X007751Y018462D02*
X007324Y018889D01*
X007217Y018889D01*
X007111Y018782D01*
X007111Y018569D01*
X007217Y018462D01*
X007431Y018245D02*
X007431Y017818D01*
X007751Y018462D02*
X007751Y018889D01*
X004251Y018782D02*
X004251Y018569D01*
X004144Y018462D01*
X004251Y018245D02*
X003824Y018245D01*
X003611Y018031D01*
X003824Y017818D01*
X004251Y017818D01*
X003931Y017818D02*
X003931Y018245D01*
X003717Y018462D02*
X003611Y018569D01*
X003611Y018782D01*
X003717Y018889D01*
X003824Y018889D01*
X003931Y018782D01*
X004038Y018889D01*
X004144Y018889D01*
X004251Y018782D01*
X003931Y018782D02*
X003931Y018676D01*
X003717Y013139D02*
X004144Y012712D01*
X004251Y012712D01*
X004251Y012495D02*
X003824Y012495D01*
X003611Y012281D01*
X003824Y012068D01*
X004251Y012068D01*
X003931Y012068D02*
X003931Y012495D01*
X003611Y012712D02*
X003611Y013139D01*
X003717Y013139D01*
X007111Y013139D02*
X007217Y012926D01*
X007431Y012712D01*
X007431Y013032D01*
X007538Y013139D01*
X007644Y013139D01*
X007751Y013032D01*
X007751Y012819D01*
X007644Y012712D01*
X007431Y012712D01*
X007431Y012495D02*
X007431Y012068D01*
X007324Y012068D02*
X007111Y012281D01*
X007324Y012495D01*
X007751Y012495D01*
X007751Y012068D02*
X007324Y012068D01*
D13*
X004704Y006493D03*
D14*
X004251Y006621D03*
X004251Y006365D03*
X004251Y006109D03*
X004251Y005853D03*
X004251Y005597D03*
X004251Y005341D03*
X004251Y005085D03*
X004251Y004829D03*
X006436Y004829D03*
X006436Y005085D03*
X006436Y005341D03*
X006436Y005597D03*
X006436Y005853D03*
X006436Y006109D03*
X006436Y006365D03*
X006436Y006621D03*
D15*
X002468Y002888D03*
X002468Y002308D03*
X001468Y002308D03*
X001468Y002888D03*
D16*
X005203Y003965D02*
X005494Y003965D01*
X005494Y004485D02*
X005194Y004485D01*
X006334Y003813D02*
X006334Y003513D01*
X006853Y003522D02*
X006853Y003813D01*
D17*
X005631Y004225D03*
X005061Y004225D03*
D18*
X006593Y003950D03*
X006593Y003380D03*
D19*
X005636Y003287D03*
X005056Y003287D03*
X009677Y005476D03*
X010257Y005476D03*
X010257Y006413D03*
X009677Y006413D03*
D20*
X009579Y007948D02*
X009816Y007948D01*
X010327Y007948D01*
X010327Y008854D01*
X009816Y008854D01*
X009816Y011846D01*
X010367Y011846D01*
X010367Y012752D01*
X009816Y012752D01*
X009579Y012752D01*
X009816Y012752D02*
X009816Y011846D01*
X008556Y012752D02*
X008280Y012752D01*
X008280Y007948D01*
X008556Y007948D01*
X009816Y007948D02*
X009816Y008854D01*
X011780Y007948D02*
X012056Y007948D01*
X011780Y007948D02*
X011780Y012752D01*
X012056Y012752D01*
X012056Y013698D02*
X011780Y013698D01*
X011780Y018502D01*
X012056Y018502D01*
X013079Y018502D02*
X013316Y018502D01*
X013867Y018502D01*
X013867Y017596D01*
X013316Y017596D01*
X013316Y014604D01*
X013827Y014604D01*
X013827Y013698D01*
X013316Y013698D01*
X013079Y013698D01*
X013316Y013698D02*
X013316Y014604D01*
X013316Y012752D02*
X013079Y012752D01*
X013316Y012752D02*
X013867Y012752D01*
X013867Y011846D01*
X013316Y011846D01*
X013316Y008854D01*
X013827Y008854D01*
X013827Y007948D01*
X013316Y007948D01*
X013079Y007948D01*
X013316Y007948D02*
X013316Y008854D01*
X013316Y011846D02*
X013316Y012752D01*
X010327Y013698D02*
X010327Y014604D01*
X009816Y014604D01*
X009816Y017596D01*
X010367Y017596D01*
X010367Y018502D01*
X009816Y018502D01*
X009579Y018502D01*
X009816Y018502D02*
X009816Y017596D01*
X008556Y018502D02*
X008280Y018502D01*
X008280Y013698D01*
X008556Y013698D01*
X009579Y013698D02*
X009816Y013698D01*
X010327Y013698D01*
X009816Y013698D02*
X009816Y014604D01*
X006827Y014604D02*
X006827Y013698D01*
X006316Y013698D01*
X006079Y013698D01*
X006316Y013698D02*
X006316Y014604D01*
X006316Y017596D01*
X006867Y017596D01*
X006867Y018502D01*
X006316Y018502D01*
X006079Y018502D01*
X006316Y018502D02*
X006316Y017596D01*
X005056Y018502D02*
X004780Y018502D01*
X004780Y013698D01*
X005056Y013698D01*
X005056Y012752D02*
X004780Y012752D01*
X004780Y007948D01*
X005056Y007948D01*
X006079Y007948D02*
X006316Y007948D01*
X006827Y007948D01*
X006827Y008854D01*
X006316Y008854D01*
X006316Y011846D01*
X006867Y011846D01*
X006867Y012752D01*
X006316Y012752D01*
X006079Y012752D01*
X006316Y012752D02*
X006316Y011846D01*
X006316Y014604D02*
X006827Y014604D01*
X003327Y014604D02*
X003327Y013698D01*
X002816Y013698D01*
X002579Y013698D01*
X002816Y013698D02*
X002816Y014604D01*
X002816Y017596D01*
X003367Y017596D01*
X003367Y018502D01*
X002816Y018502D01*
X002579Y018502D01*
X002816Y018502D02*
X002816Y017596D01*
X001556Y018502D02*
X001280Y018502D01*
X001280Y013698D01*
X001556Y013698D01*
X001556Y012752D02*
X001280Y012752D01*
X001280Y007948D01*
X001556Y007948D01*
X002579Y007948D02*
X002816Y007948D01*
X003327Y007948D01*
X003327Y008854D01*
X002816Y008854D01*
X002816Y011846D01*
X003367Y011846D01*
X003367Y012752D01*
X002816Y012752D01*
X002579Y012752D01*
X002816Y012752D02*
X002816Y011846D01*
X002816Y014604D02*
X003327Y014604D01*
X002816Y008854D02*
X002816Y007948D01*
X006316Y007948D02*
X006316Y008854D01*
X013316Y017596D02*
X013316Y018502D01*
D21*
X002717Y006600D02*
X002717Y004475D01*
X001221Y004475D01*
X001221Y006600D01*
X002717Y006600D01*
X002344Y006038D02*
X002344Y005288D01*
X002094Y005288D01*
X002094Y006038D01*
X002344Y006038D01*
X001844Y006038D02*
X001844Y005288D01*
X001594Y005288D01*
X001594Y006038D01*
X001844Y006038D01*
X001844Y005288D02*
X001844Y005038D01*
X001594Y005038D01*
X001594Y005288D01*
X002094Y005288D02*
X002094Y005038D01*
X002344Y005038D01*
X002344Y005288D01*
D22*
X002219Y005163D03*
X001719Y005163D03*
M02*
