G75*
G70*
%OFA0B0*%
%FSLAX24Y24*%
%IPPOS*%
%LPD*%
%AMOC8*
5,1,8,0,0,1.08239X$1,22.5*
%
%ADD10C,0.0000*%
D10*
X000100Y000100D02*
X000100Y020572D01*
X015454Y020572D01*
X015454Y000100D01*
X000100Y000100D01*
X001636Y000887D02*
X001638Y000928D01*
X001644Y000969D01*
X001654Y001009D01*
X001667Y001048D01*
X001684Y001085D01*
X001705Y001121D01*
X001729Y001155D01*
X001756Y001186D01*
X001785Y001214D01*
X001818Y001240D01*
X001852Y001262D01*
X001889Y001281D01*
X001927Y001296D01*
X001967Y001308D01*
X002007Y001316D01*
X002048Y001320D01*
X002090Y001320D01*
X002131Y001316D01*
X002171Y001308D01*
X002211Y001296D01*
X002249Y001281D01*
X002285Y001262D01*
X002320Y001240D01*
X002353Y001214D01*
X002382Y001186D01*
X002409Y001155D01*
X002433Y001121D01*
X002454Y001085D01*
X002471Y001048D01*
X002484Y001009D01*
X002494Y000969D01*
X002500Y000928D01*
X002502Y000887D01*
X002500Y000846D01*
X002494Y000805D01*
X002484Y000765D01*
X002471Y000726D01*
X002454Y000689D01*
X002433Y000653D01*
X002409Y000619D01*
X002382Y000588D01*
X002353Y000560D01*
X002320Y000534D01*
X002286Y000512D01*
X002249Y000493D01*
X002211Y000478D01*
X002171Y000466D01*
X002131Y000458D01*
X002090Y000454D01*
X002048Y000454D01*
X002007Y000458D01*
X001967Y000466D01*
X001927Y000478D01*
X001889Y000493D01*
X001853Y000512D01*
X001818Y000534D01*
X001785Y000560D01*
X001756Y000588D01*
X001729Y000619D01*
X001705Y000653D01*
X001684Y000689D01*
X001667Y000726D01*
X001654Y000765D01*
X001644Y000805D01*
X001638Y000846D01*
X001636Y000887D01*
X013053Y000887D02*
X013055Y000928D01*
X013061Y000969D01*
X013071Y001009D01*
X013084Y001048D01*
X013101Y001085D01*
X013122Y001121D01*
X013146Y001155D01*
X013173Y001186D01*
X013202Y001214D01*
X013235Y001240D01*
X013269Y001262D01*
X013306Y001281D01*
X013344Y001296D01*
X013384Y001308D01*
X013424Y001316D01*
X013465Y001320D01*
X013507Y001320D01*
X013548Y001316D01*
X013588Y001308D01*
X013628Y001296D01*
X013666Y001281D01*
X013702Y001262D01*
X013737Y001240D01*
X013770Y001214D01*
X013799Y001186D01*
X013826Y001155D01*
X013850Y001121D01*
X013871Y001085D01*
X013888Y001048D01*
X013901Y001009D01*
X013911Y000969D01*
X013917Y000928D01*
X013919Y000887D01*
X013917Y000846D01*
X013911Y000805D01*
X013901Y000765D01*
X013888Y000726D01*
X013871Y000689D01*
X013850Y000653D01*
X013826Y000619D01*
X013799Y000588D01*
X013770Y000560D01*
X013737Y000534D01*
X013703Y000512D01*
X013666Y000493D01*
X013628Y000478D01*
X013588Y000466D01*
X013548Y000458D01*
X013507Y000454D01*
X013465Y000454D01*
X013424Y000458D01*
X013384Y000466D01*
X013344Y000478D01*
X013306Y000493D01*
X013270Y000512D01*
X013235Y000534D01*
X013202Y000560D01*
X013173Y000588D01*
X013146Y000619D01*
X013122Y000653D01*
X013101Y000689D01*
X013084Y000726D01*
X013071Y000765D01*
X013061Y000805D01*
X013055Y000846D01*
X013053Y000887D01*
X013053Y019785D02*
X013055Y019826D01*
X013061Y019867D01*
X013071Y019907D01*
X013084Y019946D01*
X013101Y019983D01*
X013122Y020019D01*
X013146Y020053D01*
X013173Y020084D01*
X013202Y020112D01*
X013235Y020138D01*
X013269Y020160D01*
X013306Y020179D01*
X013344Y020194D01*
X013384Y020206D01*
X013424Y020214D01*
X013465Y020218D01*
X013507Y020218D01*
X013548Y020214D01*
X013588Y020206D01*
X013628Y020194D01*
X013666Y020179D01*
X013702Y020160D01*
X013737Y020138D01*
X013770Y020112D01*
X013799Y020084D01*
X013826Y020053D01*
X013850Y020019D01*
X013871Y019983D01*
X013888Y019946D01*
X013901Y019907D01*
X013911Y019867D01*
X013917Y019826D01*
X013919Y019785D01*
X013917Y019744D01*
X013911Y019703D01*
X013901Y019663D01*
X013888Y019624D01*
X013871Y019587D01*
X013850Y019551D01*
X013826Y019517D01*
X013799Y019486D01*
X013770Y019458D01*
X013737Y019432D01*
X013703Y019410D01*
X013666Y019391D01*
X013628Y019376D01*
X013588Y019364D01*
X013548Y019356D01*
X013507Y019352D01*
X013465Y019352D01*
X013424Y019356D01*
X013384Y019364D01*
X013344Y019376D01*
X013306Y019391D01*
X013270Y019410D01*
X013235Y019432D01*
X013202Y019458D01*
X013173Y019486D01*
X013146Y019517D01*
X013122Y019551D01*
X013101Y019587D01*
X013084Y019624D01*
X013071Y019663D01*
X013061Y019703D01*
X013055Y019744D01*
X013053Y019785D01*
X001636Y019785D02*
X001638Y019826D01*
X001644Y019867D01*
X001654Y019907D01*
X001667Y019946D01*
X001684Y019983D01*
X001705Y020019D01*
X001729Y020053D01*
X001756Y020084D01*
X001785Y020112D01*
X001818Y020138D01*
X001852Y020160D01*
X001889Y020179D01*
X001927Y020194D01*
X001967Y020206D01*
X002007Y020214D01*
X002048Y020218D01*
X002090Y020218D01*
X002131Y020214D01*
X002171Y020206D01*
X002211Y020194D01*
X002249Y020179D01*
X002285Y020160D01*
X002320Y020138D01*
X002353Y020112D01*
X002382Y020084D01*
X002409Y020053D01*
X002433Y020019D01*
X002454Y019983D01*
X002471Y019946D01*
X002484Y019907D01*
X002494Y019867D01*
X002500Y019826D01*
X002502Y019785D01*
X002500Y019744D01*
X002494Y019703D01*
X002484Y019663D01*
X002471Y019624D01*
X002454Y019587D01*
X002433Y019551D01*
X002409Y019517D01*
X002382Y019486D01*
X002353Y019458D01*
X002320Y019432D01*
X002286Y019410D01*
X002249Y019391D01*
X002211Y019376D01*
X002171Y019364D01*
X002131Y019356D01*
X002090Y019352D01*
X002048Y019352D01*
X002007Y019356D01*
X001967Y019364D01*
X001927Y019376D01*
X001889Y019391D01*
X001853Y019410D01*
X001818Y019432D01*
X001785Y019458D01*
X001756Y019486D01*
X001729Y019517D01*
X001705Y019551D01*
X001684Y019587D01*
X001667Y019624D01*
X001654Y019663D01*
X001644Y019703D01*
X001638Y019744D01*
X001636Y019785D01*
M02*
