G75*
G70*
%OFA0B0*%
%FSLAX24Y24*%
%IPPOS*%
%LPD*%
%AMOC8*
5,1,8,0,0,1.08239X$1,22.5*
%
%ADD10R,0.0787X0.0787*%
%ADD11R,0.0394X0.0433*%
%ADD12R,0.0433X0.0394*%
%ADD13OC8,0.0600*%
%ADD14C,0.0600*%
%ADD15R,0.0880X0.0480*%
%ADD16R,0.1000X0.1500*%
%ADD17C,0.0660*%
%ADD18R,0.0551X0.0866*%
%ADD19R,0.0551X0.0354*%
%ADD20R,0.0866X0.0551*%
%ADD21R,0.0354X0.0551*%
%ADD22R,0.0236X0.0413*%
%ADD23C,0.1181*%
%ADD24R,0.0460X0.0630*%
%ADD25C,0.0120*%
%ADD26C,0.0354*%
%ADD27C,0.0160*%
%ADD28C,0.0320*%
%ADD29C,0.0080*%
%ADD30C,0.0240*%
D10*
X001306Y003053D03*
X012723Y018407D03*
D11*
X012271Y008761D03*
X011601Y008761D03*
X006129Y003584D03*
X006129Y002915D03*
X002267Y010120D03*
X002267Y010789D03*
D12*
X002034Y005513D03*
X001365Y005513D03*
X003629Y001970D03*
X004298Y001970D03*
X008944Y005611D03*
X009613Y005611D03*
D13*
X008424Y007080D03*
X008424Y008080D03*
X007424Y008080D03*
X007424Y007080D03*
X006424Y007080D03*
X006424Y008080D03*
X005424Y008080D03*
X005424Y007080D03*
X004424Y007080D03*
X004424Y008080D03*
D14*
X004515Y000836D03*
X005515Y000836D03*
X006515Y000836D03*
X007515Y000836D03*
X008515Y000836D03*
X009515Y000836D03*
X010515Y000836D03*
X011515Y000836D03*
X003515Y000836D03*
X002515Y000836D03*
X002515Y019836D03*
X003515Y019836D03*
X004515Y019836D03*
X005515Y019836D03*
X006515Y019836D03*
X007515Y019836D03*
X008515Y019836D03*
X009515Y019836D03*
X010515Y019836D03*
X011515Y019836D03*
D15*
X007251Y006128D03*
X007251Y005218D03*
X007251Y004308D03*
D16*
X004781Y005218D03*
D17*
X002595Y003269D03*
X002595Y002482D03*
D18*
X008196Y003820D03*
D19*
X008196Y002817D03*
D20*
X001326Y006596D03*
D21*
X002330Y006596D03*
D22*
X001838Y008112D03*
X001464Y008112D03*
X001090Y008112D03*
X001090Y009175D03*
X001838Y009175D03*
D23*
X004653Y010021D03*
X004653Y018525D03*
D24*
X001764Y011419D03*
X001164Y011419D03*
D25*
X000776Y002570D02*
X000776Y001557D01*
X000825Y001607D01*
X001137Y001736D01*
X001475Y001736D01*
X001787Y001607D01*
X002026Y001368D01*
X002137Y001099D01*
X002164Y001136D01*
X002215Y001187D01*
X002274Y001230D01*
X002338Y001263D01*
X002407Y001285D01*
X002475Y001296D01*
X002475Y000876D01*
X002555Y000876D01*
X002974Y000876D01*
X002963Y000944D01*
X002941Y001013D01*
X002908Y001077D01*
X002866Y001136D01*
X002814Y001187D01*
X002756Y001230D01*
X002691Y001263D01*
X002622Y001285D01*
X003396Y001285D01*
X003423Y001296D02*
X003254Y001226D01*
X003125Y001097D01*
X003055Y000928D01*
X003055Y000745D01*
X003125Y000576D01*
X003254Y000446D01*
X003423Y000376D01*
X003606Y000376D01*
X003775Y000446D01*
X003905Y000576D01*
X003975Y000745D01*
X003975Y000928D01*
X003905Y001097D01*
X003775Y001226D01*
X003606Y001296D01*
X003423Y001296D01*
X003633Y001285D02*
X004396Y001285D01*
X004423Y001296D02*
X004254Y001226D01*
X004125Y001097D01*
X004055Y000928D01*
X004055Y000745D01*
X004125Y000576D01*
X004254Y000446D01*
X004423Y000376D01*
X004606Y000376D01*
X004775Y000446D01*
X004905Y000576D01*
X004975Y000745D01*
X004975Y000928D01*
X004905Y001097D01*
X004775Y001226D01*
X004606Y001296D01*
X004423Y001296D01*
X004581Y001613D02*
X004618Y001650D01*
X004618Y001650D01*
X005062Y001207D01*
X005179Y001158D01*
X005186Y001158D01*
X005125Y001097D01*
X005055Y000928D01*
X005055Y000745D01*
X005125Y000576D01*
X005254Y000446D01*
X005423Y000376D01*
X005606Y000376D01*
X005775Y000446D01*
X005905Y000576D01*
X005975Y000745D01*
X005975Y000928D01*
X005905Y001097D01*
X005844Y001158D01*
X006186Y001158D01*
X006125Y001097D01*
X006055Y000928D01*
X006055Y000745D01*
X006125Y000576D01*
X006254Y000446D01*
X006423Y000376D01*
X006606Y000376D01*
X006775Y000446D01*
X006905Y000576D01*
X006975Y000745D01*
X006975Y000928D01*
X006905Y001097D01*
X006844Y001158D01*
X007186Y001158D01*
X007125Y001097D01*
X007055Y000928D01*
X007055Y000745D01*
X007125Y000576D01*
X007254Y000446D01*
X007423Y000376D01*
X007606Y000376D01*
X007775Y000446D01*
X007905Y000576D01*
X007975Y000745D01*
X007975Y000928D01*
X007905Y001097D01*
X007844Y001158D01*
X007989Y001158D01*
X008030Y001141D01*
X008165Y001141D01*
X008172Y001144D01*
X008164Y001136D01*
X008121Y001077D01*
X008088Y001013D01*
X008066Y000944D01*
X008055Y000876D01*
X008475Y000876D01*
X008475Y000796D01*
X008555Y000796D01*
X008555Y000876D01*
X008974Y000876D01*
X008963Y000944D01*
X008941Y001013D01*
X008908Y001077D01*
X008866Y001136D01*
X008814Y001187D01*
X008756Y001230D01*
X008691Y001263D01*
X008622Y001285D01*
X009396Y001285D01*
X009423Y001296D02*
X009254Y001226D01*
X009125Y001097D01*
X009055Y000928D01*
X009055Y000745D01*
X009125Y000576D01*
X009254Y000446D01*
X009423Y000376D01*
X009606Y000376D01*
X009775Y000446D01*
X009905Y000576D01*
X009975Y000745D01*
X009975Y000924D01*
X010055Y000844D01*
X010055Y000745D01*
X010125Y000576D01*
X010254Y000446D01*
X010423Y000376D01*
X010606Y000376D01*
X010775Y000446D01*
X010905Y000576D01*
X010975Y000745D01*
X010975Y000924D01*
X011055Y000844D01*
X011055Y000745D01*
X011125Y000576D01*
X011151Y000549D01*
X011150Y000357D01*
X001976Y000357D01*
X002026Y000406D01*
X002112Y000614D01*
X002121Y000595D01*
X002164Y000537D01*
X002215Y000485D01*
X002274Y000443D01*
X002338Y000410D01*
X002407Y000388D01*
X002475Y000377D01*
X002475Y000796D01*
X002555Y000796D01*
X002555Y000876D01*
X002555Y001296D01*
X002622Y001285D01*
X002555Y001285D02*
X002475Y001285D01*
X002408Y001285D02*
X002060Y001285D01*
X002109Y001167D02*
X002195Y001167D01*
X002475Y001167D02*
X002555Y001167D01*
X002555Y001048D02*
X002475Y001048D01*
X002475Y000930D02*
X002555Y000930D01*
X002555Y000811D02*
X003055Y000811D01*
X002974Y000796D02*
X002555Y000796D01*
X002555Y000377D01*
X002622Y000388D01*
X002691Y000410D01*
X002756Y000443D01*
X002814Y000485D01*
X002866Y000537D01*
X002908Y000595D01*
X002941Y000660D01*
X002963Y000729D01*
X002974Y000796D01*
X002952Y000693D02*
X003076Y000693D01*
X003126Y000574D02*
X002893Y000574D01*
X002773Y000456D02*
X003245Y000456D01*
X003056Y000930D02*
X002966Y000930D01*
X002923Y001048D02*
X003105Y001048D01*
X003195Y001167D02*
X002835Y001167D01*
X002555Y000693D02*
X002475Y000693D01*
X002475Y000574D02*
X002555Y000574D01*
X002555Y000456D02*
X002475Y000456D01*
X002256Y000456D02*
X002046Y000456D01*
X002095Y000574D02*
X002137Y000574D01*
X001991Y001404D02*
X004865Y001404D01*
X004747Y001522D02*
X001872Y001522D01*
X001706Y001641D02*
X003322Y001641D01*
X003314Y001645D02*
X003351Y001624D01*
X003391Y001613D01*
X003591Y001613D01*
X003591Y001932D01*
X003667Y001932D01*
X003667Y001613D01*
X003867Y001613D01*
X003907Y001624D01*
X003944Y001645D01*
X003964Y001665D01*
X004015Y001613D01*
X004581Y001613D01*
X004608Y001641D02*
X004628Y001641D01*
X004633Y001285D02*
X004984Y001285D01*
X004835Y001167D02*
X005159Y001167D01*
X005105Y001048D02*
X004925Y001048D01*
X004974Y000930D02*
X005056Y000930D01*
X005055Y000811D02*
X004975Y000811D01*
X004953Y000693D02*
X005076Y000693D01*
X005126Y000574D02*
X004903Y000574D01*
X004785Y000456D02*
X005245Y000456D01*
X005785Y000456D02*
X006245Y000456D01*
X006126Y000574D02*
X005903Y000574D01*
X005953Y000693D02*
X006076Y000693D01*
X006055Y000811D02*
X005975Y000811D01*
X005974Y000930D02*
X006056Y000930D01*
X006105Y001048D02*
X005925Y001048D01*
X006785Y000456D02*
X007245Y000456D01*
X007126Y000574D02*
X006903Y000574D01*
X006953Y000693D02*
X007076Y000693D01*
X007055Y000811D02*
X006975Y000811D01*
X006974Y000930D02*
X007056Y000930D01*
X007105Y001048D02*
X006925Y001048D01*
X007785Y000456D02*
X008256Y000456D01*
X008274Y000443D02*
X008338Y000410D01*
X008407Y000388D01*
X008475Y000377D01*
X008475Y000796D01*
X008055Y000796D01*
X008066Y000729D01*
X008088Y000660D01*
X008121Y000595D01*
X008164Y000537D01*
X008215Y000485D01*
X008274Y000443D01*
X008137Y000574D02*
X007903Y000574D01*
X007953Y000693D02*
X008078Y000693D01*
X007975Y000811D02*
X008475Y000811D01*
X008475Y000876D02*
X008475Y001296D01*
X008407Y001285D01*
X008369Y001272D01*
X008383Y001287D01*
X008435Y001411D01*
X008435Y001545D01*
X008383Y001669D01*
X008304Y001748D01*
X008387Y001783D01*
X008482Y001878D01*
X008533Y002001D01*
X008533Y002136D01*
X008516Y002177D01*
X008516Y002479D01*
X008538Y002479D01*
X008565Y002506D01*
X008565Y002402D01*
X008614Y002285D01*
X008704Y002195D01*
X009602Y001296D01*
X009423Y001296D01*
X009495Y001404D02*
X008432Y001404D01*
X008435Y001522D02*
X009376Y001522D01*
X009258Y001641D02*
X008395Y001641D01*
X008330Y001759D02*
X009139Y001759D01*
X009021Y001878D02*
X008482Y001878D01*
X008531Y001996D02*
X008902Y001996D01*
X008784Y002115D02*
X008533Y002115D01*
X008516Y002233D02*
X008665Y002233D01*
X008586Y002352D02*
X008516Y002352D01*
X008516Y002470D02*
X008565Y002470D01*
X008565Y003127D02*
X008538Y003154D01*
X007854Y003154D01*
X007760Y003060D01*
X007760Y002573D01*
X007854Y002479D01*
X007876Y002479D01*
X007876Y002389D01*
X005474Y002389D01*
X005121Y002742D01*
X005031Y002832D01*
X004913Y002881D01*
X004214Y002881D01*
X003554Y003541D01*
X003437Y003589D01*
X002968Y003589D01*
X002873Y003685D01*
X002693Y003759D01*
X002498Y003759D01*
X002318Y003685D01*
X002180Y003547D01*
X002105Y003367D01*
X002105Y003172D01*
X002180Y002992D01*
X002299Y002872D01*
X002276Y002856D01*
X002222Y002801D01*
X002176Y002739D01*
X002141Y002670D01*
X002118Y002597D01*
X002105Y002520D01*
X002105Y002501D01*
X002577Y002501D01*
X002577Y002463D01*
X002614Y002463D01*
X002614Y001992D01*
X002634Y001992D01*
X002710Y002004D01*
X002784Y002028D01*
X002852Y002063D01*
X002915Y002108D01*
X002969Y002163D01*
X003015Y002225D01*
X003050Y002294D01*
X003073Y002367D01*
X003085Y002443D01*
X003085Y002463D01*
X002614Y002463D01*
X002614Y002501D01*
X003085Y002501D01*
X003085Y002520D01*
X003073Y002597D01*
X003050Y002670D01*
X003015Y002739D01*
X002969Y002801D01*
X002915Y002856D01*
X002892Y002872D01*
X002968Y002949D01*
X003240Y002949D01*
X003863Y002327D01*
X003667Y002327D01*
X003667Y002009D01*
X003591Y002009D01*
X003591Y002327D01*
X003391Y002327D01*
X003351Y002316D01*
X003314Y002295D01*
X003284Y002265D01*
X003263Y002229D01*
X003252Y002188D01*
X003252Y002009D01*
X003591Y002009D01*
X003591Y001932D01*
X003252Y001932D01*
X003252Y001752D01*
X003263Y001711D01*
X003284Y001675D01*
X003314Y001645D01*
X003252Y001759D02*
X000776Y001759D01*
X000776Y001641D02*
X000906Y001641D01*
X000776Y001878D02*
X003252Y001878D01*
X003252Y002115D02*
X002921Y002115D01*
X003019Y002233D02*
X003266Y002233D01*
X003068Y002352D02*
X003838Y002352D01*
X003720Y002470D02*
X002614Y002470D01*
X002577Y002470D02*
X000776Y002470D01*
X000846Y002499D02*
X000776Y002570D01*
X000846Y002499D02*
X001766Y002499D01*
X001860Y002593D01*
X001860Y003513D01*
X001766Y003606D01*
X000846Y003606D01*
X000776Y003536D01*
X000776Y006211D01*
X000826Y006160D01*
X001045Y006160D01*
X001045Y005833D01*
X000989Y005777D01*
X000989Y005250D01*
X001045Y005194D01*
X001045Y005149D01*
X001094Y005031D01*
X001184Y004941D01*
X001572Y004553D01*
X001690Y004504D01*
X003111Y004504D01*
X004303Y003313D01*
X004420Y003264D01*
X005809Y003264D01*
X005824Y003250D01*
X005804Y003230D01*
X005783Y003193D01*
X005772Y003153D01*
X005772Y002953D01*
X006091Y002953D01*
X006091Y002877D01*
X006167Y002877D01*
X006167Y002953D01*
X006486Y002953D01*
X006486Y003153D01*
X006475Y003193D01*
X006454Y003230D01*
X006434Y003250D01*
X006449Y003264D01*
X006590Y003264D01*
X006708Y003313D01*
X007303Y003908D01*
X007656Y003908D01*
X007760Y003804D01*
X007760Y003321D01*
X007854Y003227D01*
X008538Y003227D01*
X008565Y003255D01*
X008565Y003127D01*
X008565Y003181D02*
X006478Y003181D01*
X006486Y003063D02*
X007763Y003063D01*
X007760Y002944D02*
X006167Y002944D01*
X006167Y002877D02*
X006486Y002877D01*
X006486Y002677D01*
X006475Y002637D01*
X006454Y002600D01*
X006424Y002570D01*
X006388Y002549D01*
X006347Y002538D01*
X006167Y002538D01*
X006167Y002877D01*
X006167Y002826D02*
X006091Y002826D01*
X006091Y002877D02*
X006091Y002538D01*
X005911Y002538D01*
X005870Y002549D01*
X005834Y002570D01*
X005804Y002600D01*
X005783Y002637D01*
X005772Y002677D01*
X005772Y002877D01*
X006091Y002877D01*
X006091Y002944D02*
X004151Y002944D01*
X004032Y003063D02*
X005772Y003063D01*
X005780Y003181D02*
X003914Y003181D01*
X003795Y003300D02*
X004335Y003300D01*
X004197Y003418D02*
X003677Y003418D01*
X003558Y003537D02*
X004079Y003537D01*
X003960Y003655D02*
X002903Y003655D01*
X002963Y002944D02*
X003246Y002944D01*
X003364Y002826D02*
X002945Y002826D01*
X003031Y002707D02*
X003483Y002707D01*
X003601Y002589D02*
X003075Y002589D01*
X002614Y002352D02*
X002577Y002352D01*
X002577Y002463D02*
X002577Y001992D01*
X002557Y001992D01*
X002481Y002004D01*
X002407Y002028D01*
X002339Y002063D01*
X002276Y002108D01*
X002222Y002163D01*
X002176Y002225D01*
X002141Y002294D01*
X002118Y002367D01*
X002105Y002443D01*
X002105Y002463D01*
X002577Y002463D01*
X002577Y002233D02*
X002614Y002233D01*
X002614Y002115D02*
X002577Y002115D01*
X002577Y001996D02*
X002614Y001996D01*
X002660Y001996D02*
X003591Y001996D01*
X003591Y001878D02*
X003667Y001878D01*
X003667Y001759D02*
X003591Y001759D01*
X003591Y001641D02*
X003667Y001641D01*
X003936Y001641D02*
X003988Y001641D01*
X003835Y001167D02*
X004195Y001167D01*
X004105Y001048D02*
X003925Y001048D01*
X003974Y000930D02*
X004056Y000930D01*
X004055Y000811D02*
X003975Y000811D01*
X003953Y000693D02*
X004076Y000693D01*
X004126Y000574D02*
X003903Y000574D01*
X003785Y000456D02*
X004245Y000456D01*
X003667Y002115D02*
X003591Y002115D01*
X003591Y002233D02*
X003667Y002233D01*
X002531Y001996D02*
X000776Y001996D01*
X000776Y002115D02*
X002270Y002115D01*
X002172Y002233D02*
X000776Y002233D01*
X000776Y002352D02*
X002123Y002352D01*
X002116Y002589D02*
X001856Y002589D01*
X001860Y002707D02*
X002160Y002707D01*
X002246Y002826D02*
X001860Y002826D01*
X001860Y002944D02*
X002228Y002944D01*
X002151Y003063D02*
X001860Y003063D01*
X001860Y003181D02*
X002105Y003181D01*
X002105Y003300D02*
X001860Y003300D01*
X001860Y003418D02*
X002127Y003418D01*
X002176Y003537D02*
X001836Y003537D01*
X002288Y003655D02*
X000776Y003655D01*
X000776Y003537D02*
X000776Y003537D01*
X000776Y003774D02*
X003842Y003774D01*
X003723Y003892D02*
X000776Y003892D01*
X000776Y004011D02*
X003605Y004011D01*
X003486Y004129D02*
X000776Y004129D01*
X000776Y004248D02*
X003368Y004248D01*
X003249Y004366D02*
X000776Y004366D01*
X000776Y004485D02*
X003131Y004485D01*
X003562Y004959D02*
X004121Y004959D01*
X004121Y005077D02*
X003444Y005077D01*
X003425Y005096D02*
X003307Y005144D01*
X001886Y005144D01*
X001874Y005157D01*
X001996Y005157D01*
X001996Y005475D01*
X002073Y005475D01*
X002073Y005552D01*
X001996Y005552D01*
X001996Y005870D01*
X001797Y005870D01*
X001756Y005859D01*
X001720Y005838D01*
X001700Y005818D01*
X001685Y005833D01*
X001685Y006160D01*
X001825Y006160D01*
X001919Y006254D01*
X001919Y006938D01*
X001825Y007032D01*
X001370Y007032D01*
X001370Y007379D01*
X001893Y007379D01*
X001996Y007422D01*
X002075Y007500D01*
X002118Y007603D01*
X002118Y008168D01*
X002116Y008172D01*
X002116Y008385D01*
X002022Y008479D01*
X001653Y008479D01*
X001643Y008468D01*
X001603Y008479D01*
X001464Y008479D01*
X001464Y008112D01*
X001464Y008112D01*
X001464Y008479D01*
X001324Y008479D01*
X001285Y008468D01*
X001274Y008479D01*
X000905Y008479D01*
X000811Y008385D01*
X000811Y008172D01*
X000810Y008168D01*
X000810Y007015D01*
X000776Y006981D01*
X000776Y011075D01*
X000784Y011042D01*
X000806Y011006D01*
X000835Y010976D01*
X000872Y010955D01*
X000913Y010944D01*
X001109Y010944D01*
X001109Y011213D01*
X001122Y011199D01*
X001219Y011199D01*
X001219Y010944D01*
X001415Y010944D01*
X001455Y010955D01*
X001456Y010955D01*
X001467Y010944D01*
X001564Y010944D01*
X001564Y010185D01*
X001512Y010134D01*
X001461Y010010D01*
X001461Y009875D01*
X001512Y009752D01*
X001607Y009657D01*
X001731Y009605D01*
X001865Y009605D01*
X001989Y009657D01*
X002076Y009743D01*
X002090Y009743D01*
X002090Y009727D01*
X002005Y009641D01*
X001963Y009541D01*
X001653Y009541D01*
X001559Y009448D01*
X001559Y008902D01*
X001653Y008808D01*
X002022Y008808D01*
X002116Y008902D01*
X002116Y008993D01*
X002215Y009092D01*
X002236Y009113D01*
X002357Y009113D01*
X002481Y009165D01*
X002484Y009167D01*
X002484Y008395D01*
X002601Y008278D01*
X003857Y007022D01*
X003834Y007032D01*
X003700Y007032D01*
X003576Y006980D01*
X003481Y006885D01*
X003430Y006762D01*
X003430Y006638D01*
X003306Y006638D01*
X003182Y006587D01*
X003103Y006507D01*
X003068Y006590D01*
X002973Y006685D01*
X002850Y006736D01*
X003430Y006736D01*
X003468Y006855D02*
X002667Y006855D01*
X002667Y006938D02*
X002573Y007032D01*
X002086Y007032D01*
X001993Y006938D01*
X001993Y006254D01*
X002086Y006160D01*
X002476Y006160D01*
X002479Y006159D01*
X002546Y006159D01*
X002591Y006113D01*
X002715Y006062D01*
X002850Y006062D01*
X002973Y006113D01*
X003053Y006193D01*
X003087Y006110D01*
X003173Y006024D01*
X003173Y005990D01*
X003034Y005851D01*
X002912Y005851D01*
X002788Y005799D01*
X002693Y005704D01*
X002642Y005580D01*
X002642Y005446D01*
X002693Y005322D01*
X002788Y005228D01*
X002912Y005176D01*
X003046Y005176D01*
X003170Y005228D01*
X003265Y005322D01*
X003316Y005446D01*
X003316Y005568D01*
X003430Y005681D01*
X003430Y005643D01*
X003481Y005519D01*
X003576Y005424D01*
X003700Y005373D01*
X003834Y005373D01*
X003958Y005424D01*
X004053Y005519D01*
X004104Y005643D01*
X004104Y005777D01*
X004053Y005901D01*
X003967Y005987D01*
X003967Y006418D01*
X004053Y006503D01*
X004104Y006627D01*
X004104Y006750D01*
X004234Y006620D01*
X004615Y006620D01*
X004884Y006890D01*
X004884Y007271D01*
X004775Y007380D01*
X004841Y007380D01*
X004964Y007257D01*
X004964Y006890D01*
X005234Y006620D01*
X005615Y006620D01*
X005884Y006890D01*
X005884Y007271D01*
X005615Y007540D01*
X005247Y007540D01*
X005124Y007663D01*
X005007Y007780D01*
X004775Y007780D01*
X004884Y007890D01*
X004884Y008271D01*
X004615Y008540D01*
X004247Y008540D01*
X004105Y008683D01*
X004105Y009508D01*
X004227Y009385D01*
X004503Y009271D01*
X004802Y009271D01*
X005078Y009385D01*
X005224Y009531D01*
X005224Y008531D01*
X004964Y008271D01*
X004964Y007890D01*
X005234Y007620D01*
X005615Y007620D01*
X005884Y007890D01*
X005884Y008271D01*
X005624Y008531D01*
X005624Y017324D01*
X006764Y018464D01*
X006776Y018464D01*
X006776Y018353D01*
X006341Y017918D01*
X006224Y017801D01*
X006224Y008531D01*
X005964Y008271D01*
X005964Y007890D01*
X006234Y007620D01*
X006615Y007620D01*
X006884Y007890D01*
X006884Y008271D01*
X006624Y008531D01*
X006624Y017635D01*
X007059Y018070D01*
X007071Y018070D01*
X007071Y017959D01*
X006929Y017817D01*
X006929Y008277D01*
X006964Y008242D01*
X006964Y007890D01*
X007234Y007620D01*
X007615Y007620D01*
X007701Y007706D01*
X007701Y007640D01*
X007601Y007540D01*
X007234Y007540D01*
X006964Y007271D01*
X006964Y006890D01*
X007234Y006620D01*
X007615Y006620D01*
X007884Y006890D01*
X007884Y007257D01*
X007983Y007357D01*
X008101Y007474D01*
X008101Y007753D01*
X008234Y007620D01*
X008615Y007620D01*
X008685Y007690D01*
X008685Y007624D01*
X008601Y007540D01*
X008234Y007540D01*
X007964Y007271D01*
X007964Y006890D01*
X008234Y006620D01*
X008615Y006620D01*
X008884Y006890D01*
X008884Y007257D01*
X008968Y007341D01*
X009085Y007458D01*
X009085Y019399D01*
X008906Y019578D01*
X008975Y019745D01*
X008975Y019928D01*
X008905Y020097D01*
X008775Y020226D01*
X008606Y020296D01*
X008423Y020296D01*
X008254Y020226D01*
X008125Y020097D01*
X008055Y019928D01*
X008055Y019745D01*
X008125Y019576D01*
X008254Y019446D01*
X008423Y019376D01*
X008542Y019376D01*
X008685Y019234D01*
X008685Y008470D01*
X008615Y008540D01*
X008356Y008540D01*
X008377Y008561D01*
X008494Y008679D01*
X008494Y019179D01*
X007961Y019712D01*
X007975Y019745D01*
X007975Y019928D01*
X007905Y020097D01*
X007775Y020226D01*
X007606Y020296D01*
X007423Y020296D01*
X007254Y020226D01*
X007125Y020097D01*
X007055Y019928D01*
X007055Y019745D01*
X007125Y019576D01*
X007254Y019446D01*
X007423Y019376D01*
X007606Y019376D01*
X007695Y019413D01*
X008094Y019013D01*
X008094Y008844D01*
X008041Y008791D01*
X008041Y008828D01*
X007990Y008952D01*
X007904Y009038D01*
X007904Y017343D01*
X007990Y017429D01*
X008041Y017553D01*
X008041Y017687D01*
X007990Y017811D01*
X007895Y017906D01*
X007771Y017957D01*
X007746Y017957D01*
X007746Y018080D01*
X007694Y018204D01*
X007599Y018299D01*
X007476Y018351D01*
X007450Y018351D01*
X007450Y018474D01*
X007399Y018598D01*
X007304Y018693D01*
X007180Y018744D01*
X007155Y018744D01*
X007155Y018868D01*
X007104Y018992D01*
X007009Y019087D01*
X006885Y019138D01*
X006860Y019138D01*
X006860Y019262D01*
X006808Y019385D01*
X006756Y019438D01*
X006775Y019446D01*
X006905Y019576D01*
X006975Y019745D01*
X006975Y019928D01*
X006905Y020097D01*
X006775Y020226D01*
X006606Y020296D01*
X006423Y020296D01*
X006254Y020226D01*
X006125Y020097D01*
X006055Y019928D01*
X006055Y019745D01*
X006125Y019576D01*
X006254Y019446D01*
X006285Y019434D01*
X006237Y019385D01*
X006185Y019262D01*
X006185Y019140D01*
X005390Y018345D01*
X005403Y018376D01*
X005403Y018674D01*
X005289Y018950D01*
X005078Y019161D01*
X004802Y019276D01*
X004503Y019276D01*
X004227Y019161D01*
X004016Y018950D01*
X003908Y018688D01*
X003908Y019583D01*
X003975Y019745D01*
X003975Y019928D01*
X003905Y020097D01*
X003775Y020226D01*
X003606Y020296D01*
X003423Y020296D01*
X003254Y020226D01*
X003125Y020097D01*
X003055Y019928D01*
X003055Y019745D01*
X003103Y019628D01*
X002985Y019579D01*
X002890Y019484D01*
X002839Y019360D01*
X002839Y019239D01*
X002779Y019179D01*
X002779Y019067D01*
X002706Y019140D01*
X002706Y019262D01*
X002655Y019385D01*
X002645Y019395D01*
X002691Y019410D01*
X002756Y019443D01*
X002814Y019485D01*
X002866Y019537D01*
X002908Y019595D01*
X002941Y019660D01*
X002963Y019729D01*
X002974Y019796D01*
X002555Y019796D01*
X002555Y019876D01*
X002974Y019876D01*
X002963Y019944D01*
X002941Y020013D01*
X002908Y020077D01*
X002866Y020136D01*
X002814Y020187D01*
X002756Y020230D01*
X002691Y020263D01*
X002622Y020285D01*
X002555Y020296D01*
X002555Y019876D01*
X002475Y019876D01*
X002475Y020296D01*
X002407Y020285D01*
X002338Y020263D01*
X002274Y020230D01*
X002215Y020187D01*
X002164Y020136D01*
X002121Y020077D01*
X002112Y020059D01*
X002026Y020266D01*
X001976Y020316D01*
X012053Y020316D01*
X012004Y020266D01*
X011919Y020062D01*
X011905Y020097D01*
X011775Y020226D01*
X011606Y020296D01*
X011423Y020296D01*
X011254Y020226D01*
X011125Y020097D01*
X011055Y019928D01*
X011055Y019745D01*
X011088Y019665D01*
X009774Y018351D01*
X009774Y019446D01*
X009775Y019446D01*
X009905Y019576D01*
X009975Y019745D01*
X009975Y019928D01*
X009905Y020097D01*
X009775Y020226D01*
X009606Y020296D01*
X009423Y020296D01*
X009254Y020226D01*
X009125Y020097D01*
X009055Y019928D01*
X009055Y019745D01*
X009125Y019576D01*
X009254Y019446D01*
X009374Y019397D01*
X009374Y007267D01*
X009288Y007181D01*
X009237Y007057D01*
X009237Y006923D01*
X009288Y006799D01*
X009383Y006704D01*
X009507Y006653D01*
X009641Y006653D01*
X009765Y006704D01*
X009860Y006799D01*
X009911Y006923D01*
X009911Y007057D01*
X009860Y007181D01*
X009774Y007267D01*
X009774Y007297D01*
X009777Y007294D01*
X009900Y007243D01*
X010035Y007243D01*
X010159Y007294D01*
X010253Y007389D01*
X010305Y007513D01*
X010305Y007647D01*
X010253Y007771D01*
X010168Y007857D01*
X010168Y007897D01*
X010174Y007881D01*
X010269Y007787D01*
X010393Y007735D01*
X010527Y007735D01*
X010651Y007787D01*
X010745Y007881D01*
X010797Y008005D01*
X010797Y008140D01*
X010745Y008263D01*
X010660Y008349D01*
X010660Y008780D01*
X010933Y009054D01*
X011263Y009054D01*
X011255Y009040D01*
X011245Y008999D01*
X011245Y008800D01*
X011563Y008800D01*
X011563Y008723D01*
X011640Y008723D01*
X011640Y008385D01*
X011819Y008385D01*
X011860Y008396D01*
X011896Y008417D01*
X011926Y008447D01*
X011933Y008459D01*
X012008Y008385D01*
X012364Y008385D01*
X012523Y008226D01*
X012523Y008005D01*
X012438Y007919D01*
X012386Y007795D01*
X012386Y007661D01*
X012438Y007537D01*
X012532Y007442D01*
X012656Y007391D01*
X012790Y007391D01*
X012914Y007442D01*
X013009Y007537D01*
X013061Y007661D01*
X013061Y007795D01*
X013009Y007919D01*
X012923Y008005D01*
X012923Y008392D01*
X012806Y008509D01*
X012628Y008687D01*
X012628Y009044D01*
X012534Y009138D01*
X012236Y009138D01*
X011920Y009454D01*
X010768Y009454D01*
X010650Y009336D01*
X010260Y008946D01*
X010260Y008349D01*
X010174Y008263D01*
X010168Y008248D01*
X010168Y018179D01*
X011382Y019393D01*
X011423Y019376D01*
X011606Y019376D01*
X011775Y019446D01*
X011895Y019566D01*
X012004Y019304D01*
X012243Y019065D01*
X012495Y018961D01*
X012263Y018961D01*
X012170Y018867D01*
X012170Y017947D01*
X012263Y017853D01*
X013183Y017853D01*
X013254Y017924D01*
X013254Y006461D01*
X011082Y006461D01*
X010989Y006367D01*
X010989Y001815D01*
X010464Y002340D01*
X010346Y002389D01*
X010076Y002389D01*
X010035Y002406D01*
X009900Y002406D01*
X009777Y002354D01*
X009682Y002259D01*
X009641Y002162D01*
X009205Y002599D01*
X009205Y005255D01*
X009227Y005255D01*
X009279Y005306D01*
X009298Y005287D01*
X009335Y005265D01*
X009376Y005255D01*
X009575Y005255D01*
X009575Y005573D01*
X009652Y005573D01*
X009652Y005650D01*
X009990Y005650D01*
X009990Y005829D01*
X009979Y005870D01*
X009958Y005907D01*
X010989Y005907D01*
X010989Y006025D02*
X007851Y006025D01*
X007851Y006068D02*
X007851Y005867D01*
X007840Y005826D01*
X007819Y005790D01*
X007789Y005760D01*
X007752Y005739D01*
X007712Y005728D01*
X007311Y005728D01*
X007311Y006068D01*
X007311Y006188D01*
X007851Y006188D01*
X007851Y006389D01*
X007840Y006430D01*
X007819Y006466D01*
X007789Y006496D01*
X007752Y006517D01*
X007712Y006528D01*
X007311Y006528D01*
X007311Y006188D01*
X007191Y006188D01*
X007191Y006528D01*
X006789Y006528D01*
X006749Y006517D01*
X006712Y006496D01*
X006682Y006466D01*
X006661Y006430D01*
X006651Y006389D01*
X006651Y006188D01*
X007191Y006188D01*
X007191Y006068D01*
X007311Y006068D01*
X007851Y006068D01*
X007851Y005907D02*
X008599Y005907D01*
X008567Y005875D02*
X008661Y005968D01*
X009227Y005968D01*
X009279Y005916D01*
X009298Y005936D01*
X009335Y005957D01*
X009376Y005968D01*
X009575Y005968D01*
X009575Y005650D01*
X009652Y005650D01*
X009652Y005968D01*
X009851Y005968D01*
X009891Y005957D01*
X009928Y005936D01*
X009958Y005907D01*
X009990Y005788D02*
X010989Y005788D01*
X010989Y005670D02*
X009990Y005670D01*
X009990Y005573D02*
X009652Y005573D01*
X009652Y005255D01*
X009851Y005255D01*
X009891Y005265D01*
X009928Y005287D01*
X009958Y005316D01*
X009979Y005353D01*
X009990Y005394D01*
X009990Y005573D01*
X009990Y005551D02*
X010989Y005551D01*
X010989Y005433D02*
X009990Y005433D01*
X009955Y005314D02*
X010989Y005314D01*
X010989Y005196D02*
X009205Y005196D01*
X009205Y005077D02*
X010989Y005077D01*
X010989Y004959D02*
X009205Y004959D01*
X009205Y004840D02*
X010989Y004840D01*
X010989Y004722D02*
X009205Y004722D01*
X009205Y004603D02*
X010989Y004603D01*
X010989Y004485D02*
X009205Y004485D01*
X009205Y004366D02*
X010989Y004366D01*
X010989Y004248D02*
X009205Y004248D01*
X009205Y004129D02*
X010989Y004129D01*
X010989Y004011D02*
X009205Y004011D01*
X009205Y003892D02*
X010989Y003892D01*
X010989Y003774D02*
X009205Y003774D01*
X009205Y003655D02*
X010989Y003655D01*
X010989Y003537D02*
X009205Y003537D01*
X009205Y003418D02*
X010989Y003418D01*
X010989Y003300D02*
X009205Y003300D01*
X009205Y003181D02*
X010989Y003181D01*
X010989Y003063D02*
X009205Y003063D01*
X009205Y002944D02*
X010989Y002944D01*
X010989Y002826D02*
X009205Y002826D01*
X009205Y002707D02*
X010989Y002707D01*
X010989Y002589D02*
X009215Y002589D01*
X009334Y002470D02*
X010989Y002470D01*
X010989Y002352D02*
X010435Y002352D01*
X010571Y002233D02*
X010989Y002233D01*
X010989Y002115D02*
X010689Y002115D01*
X010808Y001996D02*
X010989Y001996D01*
X010989Y001878D02*
X010926Y001878D01*
X010975Y000811D02*
X011055Y000811D01*
X011076Y000693D02*
X010953Y000693D01*
X010903Y000574D02*
X011126Y000574D01*
X011151Y000456D02*
X010785Y000456D01*
X010245Y000456D02*
X009785Y000456D01*
X009903Y000574D02*
X010126Y000574D01*
X010076Y000693D02*
X009953Y000693D01*
X009975Y000811D02*
X010055Y000811D01*
X009245Y000456D02*
X008773Y000456D01*
X008756Y000443D02*
X008814Y000485D01*
X008866Y000537D01*
X008908Y000595D01*
X008941Y000660D01*
X008963Y000729D01*
X008974Y000796D01*
X008555Y000796D01*
X008555Y000377D01*
X008622Y000388D01*
X008691Y000410D01*
X008756Y000443D01*
X008893Y000574D02*
X009126Y000574D01*
X009076Y000693D02*
X008952Y000693D01*
X009055Y000811D02*
X008555Y000811D01*
X008555Y000876D02*
X008475Y000876D01*
X008475Y000930D02*
X008555Y000930D01*
X008555Y000876D02*
X008555Y001296D01*
X008622Y001285D01*
X008555Y001285D02*
X008475Y001285D01*
X008408Y001285D02*
X008381Y001285D01*
X008475Y001167D02*
X008555Y001167D01*
X008555Y001048D02*
X008475Y001048D01*
X008475Y000693D02*
X008555Y000693D01*
X008555Y000574D02*
X008475Y000574D01*
X008475Y000456D02*
X008555Y000456D01*
X008966Y000930D02*
X009056Y000930D01*
X009105Y001048D02*
X008923Y001048D01*
X008835Y001167D02*
X009195Y001167D01*
X009571Y002233D02*
X009671Y002233D01*
X009774Y002352D02*
X009452Y002352D01*
X008106Y001048D02*
X007925Y001048D01*
X007974Y000930D02*
X008064Y000930D01*
X007876Y002470D02*
X005393Y002470D01*
X005274Y002589D02*
X005816Y002589D01*
X005772Y002707D02*
X005156Y002707D01*
X005037Y002826D02*
X005772Y002826D01*
X006091Y002707D02*
X006167Y002707D01*
X006167Y002589D02*
X006091Y002589D01*
X006442Y002589D02*
X007760Y002589D01*
X007760Y002707D02*
X006486Y002707D01*
X006486Y002826D02*
X007760Y002826D01*
X007782Y003300D02*
X006675Y003300D01*
X006813Y003418D02*
X007760Y003418D01*
X007760Y003537D02*
X006931Y003537D01*
X007050Y003655D02*
X007760Y003655D01*
X007760Y003774D02*
X007168Y003774D01*
X007287Y003892D02*
X007672Y003892D01*
X008055Y004414D02*
X007980Y004489D01*
X007889Y004579D01*
X007851Y004596D01*
X007851Y004614D01*
X007757Y004708D01*
X006744Y004708D01*
X006651Y004614D01*
X006651Y004161D01*
X006421Y003931D01*
X006392Y003961D01*
X005866Y003961D01*
X005809Y003904D01*
X004616Y003904D01*
X003515Y005006D01*
X003425Y005096D01*
X003257Y005314D02*
X004121Y005314D01*
X004121Y005196D02*
X003093Y005196D01*
X002866Y005196D02*
X002356Y005196D01*
X002349Y005189D02*
X002379Y005218D01*
X002400Y005255D01*
X002411Y005295D01*
X002411Y005475D01*
X002073Y005475D01*
X002073Y005157D01*
X002272Y005157D01*
X002313Y005167D01*
X002349Y005189D01*
X002411Y005314D02*
X002702Y005314D01*
X002648Y005433D02*
X002411Y005433D01*
X002411Y005552D02*
X002411Y005731D01*
X002400Y005772D01*
X002379Y005808D01*
X002349Y005838D01*
X002313Y005859D01*
X002272Y005870D01*
X002073Y005870D01*
X002073Y005552D01*
X002411Y005552D01*
X002411Y005670D02*
X002679Y005670D01*
X002642Y005551D02*
X002073Y005551D01*
X002073Y005433D02*
X001996Y005433D01*
X001996Y005314D02*
X002073Y005314D01*
X002073Y005196D02*
X001996Y005196D01*
X001996Y005670D02*
X002073Y005670D01*
X002073Y005788D02*
X001996Y005788D01*
X001685Y005907D02*
X003090Y005907D01*
X003172Y006025D02*
X001685Y006025D01*
X001685Y006144D02*
X002561Y006144D01*
X002391Y005788D02*
X002777Y005788D01*
X003004Y006144D02*
X003073Y006144D01*
X003041Y006618D02*
X003257Y006618D01*
X002850Y006736D02*
X002715Y006736D01*
X002667Y006736D01*
X002667Y006716D02*
X002667Y006938D01*
X002632Y006973D02*
X003568Y006973D01*
X003788Y007092D02*
X001370Y007092D01*
X001370Y007210D02*
X003669Y007210D01*
X003551Y007329D02*
X001370Y007329D01*
X001884Y006973D02*
X002028Y006973D01*
X001993Y006855D02*
X001919Y006855D01*
X001919Y006736D02*
X001993Y006736D01*
X001993Y006618D02*
X001919Y006618D01*
X001919Y006499D02*
X001993Y006499D01*
X001993Y006381D02*
X001919Y006381D01*
X001919Y006262D02*
X001993Y006262D01*
X002667Y006716D02*
X002715Y006736D01*
X003314Y007566D02*
X002102Y007566D01*
X002118Y007684D02*
X003195Y007684D01*
X003077Y007803D02*
X002118Y007803D01*
X002118Y007921D02*
X002958Y007921D01*
X002840Y008040D02*
X002118Y008040D01*
X002118Y008158D02*
X002721Y008158D01*
X002603Y008277D02*
X002116Y008277D01*
X002105Y008395D02*
X002484Y008395D01*
X002484Y008514D02*
X000776Y008514D01*
X000776Y008632D02*
X002484Y008632D01*
X002484Y008751D02*
X000776Y008751D01*
X000776Y008869D02*
X000844Y008869D01*
X000811Y008902D02*
X000905Y008808D01*
X001274Y008808D01*
X001368Y008902D01*
X001368Y009448D01*
X001274Y009541D01*
X000905Y009541D01*
X000811Y009448D01*
X000811Y008902D01*
X000811Y008988D02*
X000776Y008988D01*
X000776Y009106D02*
X000811Y009106D01*
X000811Y009225D02*
X000776Y009225D01*
X000776Y009343D02*
X000811Y009343D01*
X000825Y009462D02*
X000776Y009462D01*
X000776Y009580D02*
X001979Y009580D01*
X002031Y009699D02*
X002062Y009699D01*
X002229Y009106D02*
X002484Y009106D01*
X002484Y008988D02*
X002116Y008988D01*
X002083Y008869D02*
X002484Y008869D01*
X002022Y007447D02*
X003432Y007447D01*
X004104Y006736D02*
X004118Y006736D01*
X004100Y006618D02*
X013254Y006618D01*
X013254Y006736D02*
X009797Y006736D01*
X009883Y006855D02*
X013254Y006855D01*
X013254Y006973D02*
X009911Y006973D01*
X009897Y007092D02*
X013254Y007092D01*
X013254Y007210D02*
X009830Y007210D01*
X010193Y007329D02*
X013254Y007329D01*
X013254Y007447D02*
X012919Y007447D01*
X013021Y007566D02*
X013254Y007566D01*
X013254Y007684D02*
X013061Y007684D01*
X013057Y007803D02*
X013254Y007803D01*
X013254Y007921D02*
X013007Y007921D01*
X012923Y008040D02*
X013254Y008040D01*
X013254Y008158D02*
X012923Y008158D01*
X012923Y008277D02*
X013254Y008277D01*
X013254Y008395D02*
X012920Y008395D01*
X012806Y008509D02*
X012806Y008509D01*
X012801Y008514D02*
X013254Y008514D01*
X013254Y008632D02*
X012683Y008632D01*
X012628Y008751D02*
X013254Y008751D01*
X013254Y008869D02*
X012628Y008869D01*
X012628Y008988D02*
X013254Y008988D01*
X013254Y009106D02*
X012566Y009106D01*
X012149Y009225D02*
X013254Y009225D01*
X013254Y009343D02*
X012031Y009343D01*
X011563Y008751D02*
X010660Y008751D01*
X010660Y008632D02*
X011245Y008632D01*
X011245Y008723D02*
X011245Y008524D01*
X011255Y008483D01*
X011276Y008447D01*
X011306Y008417D01*
X011343Y008396D01*
X011383Y008385D01*
X011563Y008385D01*
X011563Y008723D01*
X011245Y008723D01*
X011245Y008869D02*
X010749Y008869D01*
X010867Y008988D02*
X011245Y008988D01*
X011247Y008514D02*
X010660Y008514D01*
X010660Y008395D02*
X011346Y008395D01*
X011563Y008395D02*
X011640Y008395D01*
X011640Y008514D02*
X011563Y008514D01*
X011563Y008632D02*
X011640Y008632D01*
X011857Y008395D02*
X011997Y008395D01*
X012473Y008277D02*
X010732Y008277D01*
X010789Y008158D02*
X012523Y008158D01*
X012523Y008040D02*
X010797Y008040D01*
X010762Y007921D02*
X012440Y007921D01*
X012389Y007803D02*
X010667Y007803D01*
X010290Y007684D02*
X012386Y007684D01*
X012426Y007566D02*
X010305Y007566D01*
X010277Y007447D02*
X012528Y007447D01*
X013254Y006499D02*
X007784Y006499D01*
X007851Y006381D02*
X011002Y006381D01*
X010989Y006262D02*
X007851Y006262D01*
X007730Y006736D02*
X008118Y006736D01*
X007999Y006855D02*
X007849Y006855D01*
X007884Y006973D02*
X007964Y006973D01*
X007964Y007092D02*
X007884Y007092D01*
X007884Y007210D02*
X007964Y007210D01*
X007955Y007329D02*
X008022Y007329D01*
X008074Y007447D02*
X008140Y007447D01*
X008101Y007566D02*
X008627Y007566D01*
X008678Y007684D02*
X008685Y007684D01*
X008955Y007329D02*
X009374Y007329D01*
X009374Y007447D02*
X009074Y007447D01*
X009085Y007566D02*
X009374Y007566D01*
X009374Y007684D02*
X009085Y007684D01*
X009085Y007803D02*
X009374Y007803D01*
X009374Y007921D02*
X009085Y007921D01*
X009085Y008040D02*
X009374Y008040D01*
X009374Y008158D02*
X009085Y008158D01*
X009085Y008277D02*
X009374Y008277D01*
X009374Y008395D02*
X009085Y008395D01*
X009085Y008514D02*
X009374Y008514D01*
X009374Y008632D02*
X009085Y008632D01*
X009085Y008751D02*
X009374Y008751D01*
X009374Y008869D02*
X009085Y008869D01*
X009085Y008988D02*
X009374Y008988D01*
X009374Y009106D02*
X009085Y009106D01*
X009085Y009225D02*
X009374Y009225D01*
X009374Y009343D02*
X009085Y009343D01*
X009085Y009462D02*
X009374Y009462D01*
X009374Y009580D02*
X009085Y009580D01*
X009085Y009699D02*
X009374Y009699D01*
X009374Y009817D02*
X009085Y009817D01*
X009085Y009936D02*
X009374Y009936D01*
X009374Y010054D02*
X009085Y010054D01*
X009085Y010173D02*
X009374Y010173D01*
X009374Y010291D02*
X009085Y010291D01*
X009085Y010410D02*
X009374Y010410D01*
X009374Y010528D02*
X009085Y010528D01*
X009085Y010647D02*
X009374Y010647D01*
X009374Y010765D02*
X009085Y010765D01*
X009085Y010884D02*
X009374Y010884D01*
X009374Y011002D02*
X009085Y011002D01*
X009085Y011121D02*
X009374Y011121D01*
X009374Y011239D02*
X009085Y011239D01*
X009085Y011358D02*
X009374Y011358D01*
X009374Y011476D02*
X009085Y011476D01*
X009085Y011595D02*
X009374Y011595D01*
X009374Y011713D02*
X009085Y011713D01*
X009085Y011832D02*
X009374Y011832D01*
X009374Y011950D02*
X009085Y011950D01*
X009085Y012069D02*
X009374Y012069D01*
X009374Y012187D02*
X009085Y012187D01*
X009085Y012306D02*
X009374Y012306D01*
X009374Y012424D02*
X009085Y012424D01*
X009085Y012543D02*
X009374Y012543D01*
X009374Y012661D02*
X009085Y012661D01*
X009085Y012780D02*
X009374Y012780D01*
X009374Y012898D02*
X009085Y012898D01*
X009085Y013017D02*
X009374Y013017D01*
X009374Y013135D02*
X009085Y013135D01*
X009085Y013254D02*
X009374Y013254D01*
X009374Y013372D02*
X009085Y013372D01*
X009085Y013491D02*
X009374Y013491D01*
X009374Y013609D02*
X009085Y013609D01*
X009085Y013728D02*
X009374Y013728D01*
X009374Y013846D02*
X009085Y013846D01*
X009085Y013965D02*
X009374Y013965D01*
X009374Y014083D02*
X009085Y014083D01*
X009085Y014202D02*
X009374Y014202D01*
X009374Y014320D02*
X009085Y014320D01*
X009085Y014439D02*
X009374Y014439D01*
X009374Y014557D02*
X009085Y014557D01*
X009085Y014676D02*
X009374Y014676D01*
X009374Y014794D02*
X009085Y014794D01*
X009085Y014913D02*
X009374Y014913D01*
X009374Y015031D02*
X009085Y015031D01*
X009085Y015150D02*
X009374Y015150D01*
X009374Y015268D02*
X009085Y015268D01*
X009085Y015387D02*
X009374Y015387D01*
X009374Y015505D02*
X009085Y015505D01*
X009085Y015624D02*
X009374Y015624D01*
X009374Y015742D02*
X009085Y015742D01*
X009085Y015861D02*
X009374Y015861D01*
X009374Y015979D02*
X009085Y015979D01*
X009085Y016098D02*
X009374Y016098D01*
X009374Y016216D02*
X009085Y016216D01*
X009085Y016335D02*
X009374Y016335D01*
X009374Y016453D02*
X009085Y016453D01*
X009085Y016572D02*
X009374Y016572D01*
X009374Y016690D02*
X009085Y016690D01*
X009085Y016809D02*
X009374Y016809D01*
X009374Y016927D02*
X009085Y016927D01*
X009085Y017046D02*
X009374Y017046D01*
X009374Y017164D02*
X009085Y017164D01*
X009085Y017283D02*
X009374Y017283D01*
X009374Y017401D02*
X009085Y017401D01*
X009085Y017520D02*
X009374Y017520D01*
X009374Y017638D02*
X009085Y017638D01*
X009085Y017757D02*
X009374Y017757D01*
X009374Y017875D02*
X009085Y017875D01*
X009085Y017994D02*
X009374Y017994D01*
X009374Y018112D02*
X009085Y018112D01*
X009085Y018231D02*
X009374Y018231D01*
X009374Y018349D02*
X009085Y018349D01*
X009085Y018468D02*
X009374Y018468D01*
X009374Y018586D02*
X009085Y018586D01*
X009085Y018705D02*
X009374Y018705D01*
X009374Y018823D02*
X009085Y018823D01*
X009085Y018942D02*
X009374Y018942D01*
X009374Y019060D02*
X009085Y019060D01*
X009085Y019179D02*
X009374Y019179D01*
X009374Y019297D02*
X009085Y019297D01*
X009069Y019416D02*
X009328Y019416D01*
X009166Y019534D02*
X008950Y019534D01*
X008937Y019653D02*
X009093Y019653D01*
X009055Y019771D02*
X008975Y019771D01*
X008975Y019890D02*
X009055Y019890D01*
X009088Y020008D02*
X008941Y020008D01*
X008875Y020127D02*
X009155Y020127D01*
X009300Y020245D02*
X008730Y020245D01*
X008300Y020245D02*
X007730Y020245D01*
X007875Y020127D02*
X008155Y020127D01*
X008088Y020008D02*
X007941Y020008D01*
X007975Y019890D02*
X008055Y019890D01*
X008055Y019771D02*
X007975Y019771D01*
X008021Y019653D02*
X008093Y019653D01*
X008139Y019534D02*
X008166Y019534D01*
X008258Y019416D02*
X008328Y019416D01*
X008376Y019297D02*
X008621Y019297D01*
X008685Y019179D02*
X008494Y019179D01*
X008494Y019060D02*
X008685Y019060D01*
X008685Y018942D02*
X008494Y018942D01*
X008494Y018823D02*
X008685Y018823D01*
X008685Y018705D02*
X008494Y018705D01*
X008494Y018586D02*
X008685Y018586D01*
X008685Y018468D02*
X008494Y018468D01*
X008494Y018349D02*
X008685Y018349D01*
X008685Y018231D02*
X008494Y018231D01*
X008494Y018112D02*
X008685Y018112D01*
X008685Y017994D02*
X008494Y017994D01*
X008494Y017875D02*
X008685Y017875D01*
X008685Y017757D02*
X008494Y017757D01*
X008494Y017638D02*
X008685Y017638D01*
X008685Y017520D02*
X008494Y017520D01*
X008494Y017401D02*
X008685Y017401D01*
X008685Y017283D02*
X008494Y017283D01*
X008494Y017164D02*
X008685Y017164D01*
X008685Y017046D02*
X008494Y017046D01*
X008494Y016927D02*
X008685Y016927D01*
X008685Y016809D02*
X008494Y016809D01*
X008494Y016690D02*
X008685Y016690D01*
X008685Y016572D02*
X008494Y016572D01*
X008494Y016453D02*
X008685Y016453D01*
X008685Y016335D02*
X008494Y016335D01*
X008494Y016216D02*
X008685Y016216D01*
X008685Y016098D02*
X008494Y016098D01*
X008494Y015979D02*
X008685Y015979D01*
X008685Y015861D02*
X008494Y015861D01*
X008494Y015742D02*
X008685Y015742D01*
X008685Y015624D02*
X008494Y015624D01*
X008494Y015505D02*
X008685Y015505D01*
X008685Y015387D02*
X008494Y015387D01*
X008494Y015268D02*
X008685Y015268D01*
X008685Y015150D02*
X008494Y015150D01*
X008494Y015031D02*
X008685Y015031D01*
X008685Y014913D02*
X008494Y014913D01*
X008494Y014794D02*
X008685Y014794D01*
X008685Y014676D02*
X008494Y014676D01*
X008494Y014557D02*
X008685Y014557D01*
X008685Y014439D02*
X008494Y014439D01*
X008494Y014320D02*
X008685Y014320D01*
X008685Y014202D02*
X008494Y014202D01*
X008494Y014083D02*
X008685Y014083D01*
X008685Y013965D02*
X008494Y013965D01*
X008494Y013846D02*
X008685Y013846D01*
X008685Y013728D02*
X008494Y013728D01*
X008494Y013609D02*
X008685Y013609D01*
X008685Y013491D02*
X008494Y013491D01*
X008494Y013372D02*
X008685Y013372D01*
X008685Y013254D02*
X008494Y013254D01*
X008494Y013135D02*
X008685Y013135D01*
X008685Y013017D02*
X008494Y013017D01*
X008494Y012898D02*
X008685Y012898D01*
X008685Y012780D02*
X008494Y012780D01*
X008494Y012661D02*
X008685Y012661D01*
X008685Y012543D02*
X008494Y012543D01*
X008494Y012424D02*
X008685Y012424D01*
X008685Y012306D02*
X008494Y012306D01*
X008494Y012187D02*
X008685Y012187D01*
X008685Y012069D02*
X008494Y012069D01*
X008494Y011950D02*
X008685Y011950D01*
X008685Y011832D02*
X008494Y011832D01*
X008494Y011713D02*
X008685Y011713D01*
X008685Y011595D02*
X008494Y011595D01*
X008494Y011476D02*
X008685Y011476D01*
X008685Y011358D02*
X008494Y011358D01*
X008494Y011239D02*
X008685Y011239D01*
X008685Y011121D02*
X008494Y011121D01*
X008494Y011002D02*
X008685Y011002D01*
X008685Y010884D02*
X008494Y010884D01*
X008494Y010765D02*
X008685Y010765D01*
X008685Y010647D02*
X008494Y010647D01*
X008494Y010528D02*
X008685Y010528D01*
X008685Y010410D02*
X008494Y010410D01*
X008494Y010291D02*
X008685Y010291D01*
X008685Y010173D02*
X008494Y010173D01*
X008494Y010054D02*
X008685Y010054D01*
X008685Y009936D02*
X008494Y009936D01*
X008494Y009817D02*
X008685Y009817D01*
X008685Y009699D02*
X008494Y009699D01*
X008494Y009580D02*
X008685Y009580D01*
X008685Y009462D02*
X008494Y009462D01*
X008494Y009343D02*
X008685Y009343D01*
X008685Y009225D02*
X008494Y009225D01*
X008494Y009106D02*
X008685Y009106D01*
X008685Y008988D02*
X008494Y008988D01*
X008494Y008869D02*
X008685Y008869D01*
X008685Y008751D02*
X008494Y008751D01*
X008448Y008632D02*
X008685Y008632D01*
X008685Y008514D02*
X008642Y008514D01*
X008094Y008869D02*
X008024Y008869D01*
X007954Y008988D02*
X008094Y008988D01*
X008094Y009106D02*
X007904Y009106D01*
X007904Y009225D02*
X008094Y009225D01*
X008094Y009343D02*
X007904Y009343D01*
X007904Y009462D02*
X008094Y009462D01*
X008094Y009580D02*
X007904Y009580D01*
X007904Y009699D02*
X008094Y009699D01*
X008094Y009817D02*
X007904Y009817D01*
X007904Y009936D02*
X008094Y009936D01*
X008094Y010054D02*
X007904Y010054D01*
X007904Y010173D02*
X008094Y010173D01*
X008094Y010291D02*
X007904Y010291D01*
X007904Y010410D02*
X008094Y010410D01*
X008094Y010528D02*
X007904Y010528D01*
X007904Y010647D02*
X008094Y010647D01*
X008094Y010765D02*
X007904Y010765D01*
X007904Y010884D02*
X008094Y010884D01*
X008094Y011002D02*
X007904Y011002D01*
X007904Y011121D02*
X008094Y011121D01*
X008094Y011239D02*
X007904Y011239D01*
X007904Y011358D02*
X008094Y011358D01*
X008094Y011476D02*
X007904Y011476D01*
X007904Y011595D02*
X008094Y011595D01*
X008094Y011713D02*
X007904Y011713D01*
X007904Y011832D02*
X008094Y011832D01*
X008094Y011950D02*
X007904Y011950D01*
X007904Y012069D02*
X008094Y012069D01*
X008094Y012187D02*
X007904Y012187D01*
X007904Y012306D02*
X008094Y012306D01*
X008094Y012424D02*
X007904Y012424D01*
X007904Y012543D02*
X008094Y012543D01*
X008094Y012661D02*
X007904Y012661D01*
X007904Y012780D02*
X008094Y012780D01*
X008094Y012898D02*
X007904Y012898D01*
X007904Y013017D02*
X008094Y013017D01*
X008094Y013135D02*
X007904Y013135D01*
X007904Y013254D02*
X008094Y013254D01*
X008094Y013372D02*
X007904Y013372D01*
X007904Y013491D02*
X008094Y013491D01*
X008094Y013609D02*
X007904Y013609D01*
X007904Y013728D02*
X008094Y013728D01*
X008094Y013846D02*
X007904Y013846D01*
X007904Y013965D02*
X008094Y013965D01*
X008094Y014083D02*
X007904Y014083D01*
X007904Y014202D02*
X008094Y014202D01*
X008094Y014320D02*
X007904Y014320D01*
X007904Y014439D02*
X008094Y014439D01*
X008094Y014557D02*
X007904Y014557D01*
X007904Y014676D02*
X008094Y014676D01*
X008094Y014794D02*
X007904Y014794D01*
X007904Y014913D02*
X008094Y014913D01*
X008094Y015031D02*
X007904Y015031D01*
X007904Y015150D02*
X008094Y015150D01*
X008094Y015268D02*
X007904Y015268D01*
X007904Y015387D02*
X008094Y015387D01*
X008094Y015505D02*
X007904Y015505D01*
X007904Y015624D02*
X008094Y015624D01*
X008094Y015742D02*
X007904Y015742D01*
X007904Y015861D02*
X008094Y015861D01*
X008094Y015979D02*
X007904Y015979D01*
X007904Y016098D02*
X008094Y016098D01*
X008094Y016216D02*
X007904Y016216D01*
X007904Y016335D02*
X008094Y016335D01*
X008094Y016453D02*
X007904Y016453D01*
X007904Y016572D02*
X008094Y016572D01*
X008094Y016690D02*
X007904Y016690D01*
X007904Y016809D02*
X008094Y016809D01*
X008094Y016927D02*
X007904Y016927D01*
X007904Y017046D02*
X008094Y017046D01*
X008094Y017164D02*
X007904Y017164D01*
X007904Y017283D02*
X008094Y017283D01*
X008094Y017401D02*
X007962Y017401D01*
X008027Y017520D02*
X008094Y017520D01*
X008094Y017638D02*
X008041Y017638D01*
X008012Y017757D02*
X008094Y017757D01*
X008094Y017875D02*
X007925Y017875D01*
X008094Y017994D02*
X007746Y017994D01*
X007733Y018112D02*
X008094Y018112D01*
X008094Y018231D02*
X007668Y018231D01*
X007479Y018349D02*
X008094Y018349D01*
X008094Y018468D02*
X007450Y018468D01*
X007404Y018586D02*
X008094Y018586D01*
X008094Y018705D02*
X007276Y018705D01*
X007155Y018823D02*
X008094Y018823D01*
X008094Y018942D02*
X007125Y018942D01*
X007035Y019060D02*
X008047Y019060D01*
X007929Y019179D02*
X006860Y019179D01*
X006845Y019297D02*
X007810Y019297D01*
X007328Y019416D02*
X006778Y019416D01*
X006863Y019534D02*
X007166Y019534D01*
X007093Y019653D02*
X006937Y019653D01*
X006975Y019771D02*
X007055Y019771D01*
X007055Y019890D02*
X006975Y019890D01*
X006941Y020008D02*
X007088Y020008D01*
X007155Y020127D02*
X006875Y020127D01*
X006730Y020245D02*
X007300Y020245D01*
X006300Y020245D02*
X005730Y020245D01*
X005775Y020226D02*
X005606Y020296D01*
X005423Y020296D01*
X005254Y020226D01*
X005125Y020097D01*
X005055Y019928D01*
X005055Y019745D01*
X005125Y019576D01*
X005254Y019446D01*
X005423Y019376D01*
X005606Y019376D01*
X005775Y019446D01*
X005905Y019576D01*
X005975Y019745D01*
X005975Y019928D01*
X005905Y020097D01*
X005775Y020226D01*
X005875Y020127D02*
X006155Y020127D01*
X006088Y020008D02*
X005941Y020008D01*
X005975Y019890D02*
X006055Y019890D01*
X006055Y019771D02*
X005975Y019771D01*
X005937Y019653D02*
X006093Y019653D01*
X006166Y019534D02*
X005863Y019534D01*
X005701Y019416D02*
X006267Y019416D01*
X006200Y019297D02*
X003908Y019297D01*
X003908Y019179D02*
X004269Y019179D01*
X004126Y019060D02*
X003908Y019060D01*
X003908Y018942D02*
X004013Y018942D01*
X003964Y018823D02*
X003908Y018823D01*
X003908Y018705D02*
X003914Y018705D01*
X003908Y019416D02*
X004328Y019416D01*
X004254Y019446D02*
X004125Y019576D01*
X004055Y019745D01*
X004055Y019928D01*
X004125Y020097D01*
X004254Y020226D01*
X004423Y020296D01*
X004606Y020296D01*
X004775Y020226D01*
X004905Y020097D01*
X004975Y019928D01*
X004975Y019745D01*
X004905Y019576D01*
X004775Y019446D01*
X004606Y019376D01*
X004423Y019376D01*
X004254Y019446D01*
X004166Y019534D02*
X003908Y019534D01*
X003937Y019653D02*
X004093Y019653D01*
X004055Y019771D02*
X003975Y019771D01*
X003975Y019890D02*
X004055Y019890D01*
X004088Y020008D02*
X003941Y020008D01*
X003875Y020127D02*
X004155Y020127D01*
X004300Y020245D02*
X003730Y020245D01*
X003300Y020245D02*
X002726Y020245D01*
X002872Y020127D02*
X003155Y020127D01*
X003088Y020008D02*
X002943Y020008D01*
X002972Y019890D02*
X003055Y019890D01*
X003055Y019771D02*
X002970Y019771D01*
X002937Y019653D02*
X003093Y019653D01*
X002940Y019534D02*
X002863Y019534D01*
X002862Y019416D02*
X002702Y019416D01*
X002692Y019297D02*
X002839Y019297D01*
X002779Y019179D02*
X002706Y019179D01*
X002458Y018823D02*
X000776Y018823D01*
X000776Y018705D02*
X002484Y018705D01*
X002484Y018797D02*
X002484Y011166D01*
X002305Y011166D01*
X002305Y010827D01*
X002228Y010827D01*
X002228Y011166D01*
X002154Y011166D01*
X002154Y011800D01*
X002060Y011894D01*
X001467Y011894D01*
X001456Y011883D01*
X001455Y011883D01*
X001415Y011894D01*
X001219Y011894D01*
X001219Y011639D01*
X001122Y011639D01*
X001109Y011625D01*
X001109Y011894D01*
X000913Y011894D01*
X000872Y011883D01*
X000835Y011862D01*
X000806Y011832D01*
X000784Y011796D01*
X000776Y011762D01*
X000776Y019115D01*
X000825Y019065D01*
X001137Y018936D01*
X001475Y018936D01*
X001787Y019065D01*
X002026Y019304D01*
X002137Y019573D01*
X002164Y019537D01*
X002208Y019493D01*
X002178Y019480D01*
X002083Y019385D01*
X002032Y019262D01*
X002032Y019127D01*
X002083Y019003D01*
X002178Y018909D01*
X002302Y018857D01*
X002423Y018857D01*
X002484Y018797D01*
X002484Y018586D02*
X000776Y018586D01*
X000776Y018468D02*
X002484Y018468D01*
X002484Y018349D02*
X000776Y018349D01*
X000776Y018231D02*
X002484Y018231D01*
X002484Y018112D02*
X000776Y018112D01*
X000776Y017994D02*
X002484Y017994D01*
X002484Y017875D02*
X000776Y017875D01*
X000776Y017757D02*
X002484Y017757D01*
X002484Y017638D02*
X000776Y017638D01*
X000776Y017520D02*
X002484Y017520D01*
X002484Y017401D02*
X000776Y017401D01*
X000776Y017283D02*
X002484Y017283D01*
X002484Y017164D02*
X000776Y017164D01*
X000776Y017046D02*
X002484Y017046D01*
X002484Y016927D02*
X000776Y016927D01*
X000776Y016809D02*
X002484Y016809D01*
X002484Y016690D02*
X000776Y016690D01*
X000776Y016572D02*
X002484Y016572D01*
X002484Y016453D02*
X000776Y016453D01*
X000776Y016335D02*
X002484Y016335D01*
X002484Y016216D02*
X000776Y016216D01*
X000776Y016098D02*
X002484Y016098D01*
X002484Y015979D02*
X000776Y015979D01*
X000776Y015861D02*
X002484Y015861D01*
X002484Y015742D02*
X000776Y015742D01*
X000776Y015624D02*
X002484Y015624D01*
X002484Y015505D02*
X000776Y015505D01*
X000776Y015387D02*
X002484Y015387D01*
X002484Y015268D02*
X000776Y015268D01*
X000776Y015150D02*
X002484Y015150D01*
X002484Y015031D02*
X000776Y015031D01*
X000776Y014913D02*
X002484Y014913D01*
X002484Y014794D02*
X000776Y014794D01*
X000776Y014676D02*
X002484Y014676D01*
X002484Y014557D02*
X000776Y014557D01*
X000776Y014439D02*
X002484Y014439D01*
X002484Y014320D02*
X000776Y014320D01*
X000776Y014202D02*
X002484Y014202D01*
X002484Y014083D02*
X000776Y014083D01*
X000776Y013965D02*
X002484Y013965D01*
X002484Y013846D02*
X000776Y013846D01*
X000776Y013728D02*
X002484Y013728D01*
X002484Y013609D02*
X000776Y013609D01*
X000776Y013491D02*
X002484Y013491D01*
X002484Y013372D02*
X000776Y013372D01*
X000776Y013254D02*
X002484Y013254D01*
X002484Y013135D02*
X000776Y013135D01*
X000776Y013017D02*
X002484Y013017D01*
X002484Y012898D02*
X000776Y012898D01*
X000776Y012780D02*
X002484Y012780D01*
X002484Y012661D02*
X000776Y012661D01*
X000776Y012543D02*
X002484Y012543D01*
X002484Y012424D02*
X000776Y012424D01*
X000776Y012306D02*
X002484Y012306D01*
X002484Y012187D02*
X000776Y012187D01*
X000776Y012069D02*
X002484Y012069D01*
X002484Y011950D02*
X000776Y011950D01*
X000776Y011832D02*
X000805Y011832D01*
X001109Y011832D02*
X001219Y011832D01*
X001219Y011713D02*
X001109Y011713D01*
X001214Y011419D02*
X001714Y011419D01*
X002154Y011476D02*
X002484Y011476D01*
X002484Y011358D02*
X002154Y011358D01*
X002154Y011239D02*
X002484Y011239D01*
X002305Y011121D02*
X002228Y011121D01*
X002228Y011002D02*
X002305Y011002D01*
X002305Y010884D02*
X002228Y010884D01*
X002154Y011595D02*
X002484Y011595D01*
X002484Y011713D02*
X002154Y011713D01*
X002122Y011832D02*
X002484Y011832D01*
X001564Y010884D02*
X000776Y010884D01*
X000776Y011002D02*
X000809Y011002D01*
X000776Y010765D02*
X001564Y010765D01*
X001564Y010647D02*
X000776Y010647D01*
X000776Y010528D02*
X001564Y010528D01*
X001564Y010410D02*
X000776Y010410D01*
X000776Y010291D02*
X001564Y010291D01*
X001551Y010173D02*
X000776Y010173D01*
X000776Y010054D02*
X001479Y010054D01*
X001461Y009936D02*
X000776Y009936D01*
X000776Y009817D02*
X001485Y009817D01*
X001565Y009699D02*
X000776Y009699D01*
X001354Y009462D02*
X001573Y009462D01*
X001559Y009343D02*
X001368Y009343D01*
X001368Y009225D02*
X001559Y009225D01*
X001559Y009106D02*
X001368Y009106D01*
X001368Y008988D02*
X001559Y008988D01*
X001592Y008869D02*
X001335Y008869D01*
X001464Y008395D02*
X001464Y008395D01*
X001464Y008277D02*
X001464Y008277D01*
X001464Y008158D02*
X001464Y008158D01*
X000822Y008395D02*
X000776Y008395D01*
X000776Y008277D02*
X000811Y008277D01*
X000810Y008158D02*
X000776Y008158D01*
X000776Y008040D02*
X000810Y008040D01*
X000810Y007921D02*
X000776Y007921D01*
X000776Y007803D02*
X000810Y007803D01*
X000810Y007684D02*
X000776Y007684D01*
X000776Y007566D02*
X000810Y007566D01*
X000810Y007447D02*
X000776Y007447D01*
X000776Y007329D02*
X000810Y007329D01*
X000810Y007210D02*
X000776Y007210D01*
X000776Y007092D02*
X000810Y007092D01*
X000776Y006144D02*
X001045Y006144D01*
X001045Y006025D02*
X000776Y006025D01*
X000776Y005907D02*
X001045Y005907D01*
X001000Y005788D02*
X000776Y005788D01*
X000776Y005670D02*
X000989Y005670D01*
X000989Y005551D02*
X000776Y005551D01*
X000776Y005433D02*
X000989Y005433D01*
X000989Y005314D02*
X000776Y005314D01*
X000776Y005196D02*
X001043Y005196D01*
X001075Y005077D02*
X000776Y005077D01*
X000776Y004959D02*
X001167Y004959D01*
X001285Y004840D02*
X000776Y004840D01*
X000776Y004722D02*
X001404Y004722D01*
X001522Y004603D02*
X000776Y004603D01*
X003311Y005433D02*
X003568Y005433D01*
X003468Y005551D02*
X003316Y005551D01*
X003418Y005670D02*
X003430Y005670D01*
X003966Y005433D02*
X004121Y005433D01*
X004121Y005551D02*
X004066Y005551D01*
X004104Y005670D02*
X004121Y005670D01*
X004121Y005788D02*
X004099Y005788D01*
X004121Y005907D02*
X004047Y005907D01*
X004121Y006025D02*
X003967Y006025D01*
X003967Y006144D02*
X007191Y006144D01*
X007191Y006068D02*
X006651Y006068D01*
X006651Y005867D01*
X006661Y005826D01*
X006682Y005790D01*
X006712Y005760D01*
X006749Y005739D01*
X006789Y005728D01*
X007191Y005728D01*
X007191Y006068D01*
X007191Y006025D02*
X007311Y006025D01*
X007311Y005907D02*
X007191Y005907D01*
X007191Y005788D02*
X007311Y005788D01*
X007311Y006144D02*
X010989Y006144D01*
X010253Y007803D02*
X010222Y007803D01*
X010187Y008277D02*
X010168Y008277D01*
X010168Y008395D02*
X010260Y008395D01*
X010260Y008514D02*
X010168Y008514D01*
X010168Y008632D02*
X010260Y008632D01*
X010260Y008751D02*
X010168Y008751D01*
X010168Y008869D02*
X010260Y008869D01*
X010302Y008988D02*
X010168Y008988D01*
X010168Y009106D02*
X010420Y009106D01*
X010539Y009225D02*
X010168Y009225D01*
X010168Y009343D02*
X010657Y009343D01*
X010168Y009462D02*
X013254Y009462D01*
X013254Y009580D02*
X010168Y009580D01*
X010168Y009699D02*
X013254Y009699D01*
X013254Y009817D02*
X010168Y009817D01*
X010168Y009936D02*
X013254Y009936D01*
X013254Y010054D02*
X010168Y010054D01*
X010168Y010173D02*
X013254Y010173D01*
X013254Y010291D02*
X010168Y010291D01*
X010168Y010410D02*
X013254Y010410D01*
X013254Y010528D02*
X010168Y010528D01*
X010168Y010647D02*
X013254Y010647D01*
X013254Y010765D02*
X010168Y010765D01*
X010168Y010884D02*
X013254Y010884D01*
X013254Y011002D02*
X010168Y011002D01*
X010168Y011121D02*
X013254Y011121D01*
X013254Y011239D02*
X010168Y011239D01*
X010168Y011358D02*
X013254Y011358D01*
X013254Y011476D02*
X010168Y011476D01*
X010168Y011595D02*
X013254Y011595D01*
X013254Y011713D02*
X010168Y011713D01*
X010168Y011832D02*
X013254Y011832D01*
X013254Y011950D02*
X010168Y011950D01*
X010168Y012069D02*
X013254Y012069D01*
X013254Y012187D02*
X010168Y012187D01*
X010168Y012306D02*
X013254Y012306D01*
X013254Y012424D02*
X010168Y012424D01*
X010168Y012543D02*
X013254Y012543D01*
X013254Y012661D02*
X010168Y012661D01*
X010168Y012780D02*
X013254Y012780D01*
X013254Y012898D02*
X010168Y012898D01*
X010168Y013017D02*
X013254Y013017D01*
X013254Y013135D02*
X010168Y013135D01*
X010168Y013254D02*
X013254Y013254D01*
X013254Y013372D02*
X010168Y013372D01*
X010168Y013491D02*
X013254Y013491D01*
X013254Y013609D02*
X010168Y013609D01*
X010168Y013728D02*
X013254Y013728D01*
X013254Y013846D02*
X010168Y013846D01*
X010168Y013965D02*
X013254Y013965D01*
X013254Y014083D02*
X010168Y014083D01*
X010168Y014202D02*
X013254Y014202D01*
X013254Y014320D02*
X010168Y014320D01*
X010168Y014439D02*
X013254Y014439D01*
X013254Y014557D02*
X010168Y014557D01*
X010168Y014676D02*
X013254Y014676D01*
X013254Y014794D02*
X010168Y014794D01*
X010168Y014913D02*
X013254Y014913D01*
X013254Y015031D02*
X010168Y015031D01*
X010168Y015150D02*
X013254Y015150D01*
X013254Y015268D02*
X010168Y015268D01*
X010168Y015387D02*
X013254Y015387D01*
X013254Y015505D02*
X010168Y015505D01*
X010168Y015624D02*
X013254Y015624D01*
X013254Y015742D02*
X010168Y015742D01*
X010168Y015861D02*
X013254Y015861D01*
X013254Y015979D02*
X010168Y015979D01*
X010168Y016098D02*
X013254Y016098D01*
X013254Y016216D02*
X010168Y016216D01*
X010168Y016335D02*
X013254Y016335D01*
X013254Y016453D02*
X010168Y016453D01*
X010168Y016572D02*
X013254Y016572D01*
X013254Y016690D02*
X010168Y016690D01*
X010168Y016809D02*
X013254Y016809D01*
X013254Y016927D02*
X010168Y016927D01*
X010168Y017046D02*
X013254Y017046D01*
X013254Y017164D02*
X010168Y017164D01*
X010168Y017283D02*
X013254Y017283D01*
X013254Y017401D02*
X010168Y017401D01*
X010168Y017520D02*
X013254Y017520D01*
X013254Y017638D02*
X010168Y017638D01*
X010168Y017757D02*
X013254Y017757D01*
X013254Y017875D02*
X013205Y017875D01*
X012255Y019060D02*
X011049Y019060D01*
X010930Y018942D02*
X012244Y018942D01*
X012170Y018823D02*
X010812Y018823D01*
X010693Y018705D02*
X012170Y018705D01*
X012170Y018586D02*
X010575Y018586D01*
X010456Y018468D02*
X012170Y018468D01*
X012170Y018349D02*
X010338Y018349D01*
X010219Y018231D02*
X012170Y018231D01*
X012170Y018112D02*
X010168Y018112D01*
X010168Y017994D02*
X012170Y017994D01*
X012242Y017875D02*
X010168Y017875D01*
X009891Y018468D02*
X009774Y018468D01*
X009774Y018586D02*
X010009Y018586D01*
X010128Y018705D02*
X009774Y018705D01*
X009774Y018823D02*
X010246Y018823D01*
X010365Y018942D02*
X009774Y018942D01*
X009774Y019060D02*
X010483Y019060D01*
X010602Y019179D02*
X009774Y019179D01*
X009774Y019297D02*
X010720Y019297D01*
X010691Y019410D02*
X010756Y019443D01*
X010814Y019485D01*
X010866Y019537D01*
X010908Y019595D01*
X010941Y019660D01*
X010963Y019729D01*
X010974Y019796D01*
X010555Y019796D01*
X010555Y019876D01*
X010974Y019876D01*
X010963Y019944D01*
X010941Y020013D01*
X010908Y020077D01*
X010866Y020136D01*
X010814Y020187D01*
X010756Y020230D01*
X010691Y020263D01*
X010622Y020285D01*
X010555Y020296D01*
X010555Y019876D01*
X010475Y019876D01*
X010475Y019796D01*
X010555Y019796D01*
X010555Y019377D01*
X010622Y019388D01*
X010691Y019410D01*
X010702Y019416D02*
X010839Y019416D01*
X010863Y019534D02*
X010957Y019534D01*
X010937Y019653D02*
X011076Y019653D01*
X011055Y019771D02*
X010970Y019771D01*
X010972Y019890D02*
X011055Y019890D01*
X011088Y020008D02*
X010943Y020008D01*
X010872Y020127D02*
X011155Y020127D01*
X011300Y020245D02*
X010726Y020245D01*
X010555Y020245D02*
X010475Y020245D01*
X010475Y020296D02*
X010475Y019876D01*
X010055Y019876D01*
X010066Y019944D01*
X010088Y020013D01*
X010121Y020077D01*
X010164Y020136D01*
X010215Y020187D01*
X010274Y020230D01*
X010338Y020263D01*
X010407Y020285D01*
X010475Y020296D01*
X010475Y020127D02*
X010555Y020127D01*
X010555Y020008D02*
X010475Y020008D01*
X010475Y019890D02*
X010555Y019890D01*
X010555Y019771D02*
X010475Y019771D01*
X010475Y019796D02*
X010475Y019377D01*
X010407Y019388D01*
X010338Y019410D01*
X010274Y019443D01*
X010215Y019485D01*
X010164Y019537D01*
X010121Y019595D01*
X010088Y019660D01*
X010066Y019729D01*
X010055Y019796D01*
X010475Y019796D01*
X010475Y019653D02*
X010555Y019653D01*
X010555Y019534D02*
X010475Y019534D01*
X010475Y019416D02*
X010555Y019416D01*
X010327Y019416D02*
X009774Y019416D01*
X009863Y019534D02*
X010166Y019534D01*
X010092Y019653D02*
X009937Y019653D01*
X009975Y019771D02*
X010059Y019771D01*
X010057Y019890D02*
X009975Y019890D01*
X009941Y020008D02*
X010087Y020008D01*
X010157Y020127D02*
X009875Y020127D01*
X009730Y020245D02*
X010304Y020245D01*
X011286Y019297D02*
X012011Y019297D01*
X011958Y019416D02*
X011701Y019416D01*
X011863Y019534D02*
X011908Y019534D01*
X012129Y019179D02*
X011167Y019179D01*
X011875Y020127D02*
X011946Y020127D01*
X011995Y020245D02*
X011730Y020245D01*
X007071Y017994D02*
X006982Y017994D01*
X006987Y017875D02*
X006864Y017875D01*
X006929Y017757D02*
X006745Y017757D01*
X006627Y017638D02*
X006929Y017638D01*
X006929Y017520D02*
X006624Y017520D01*
X006624Y017401D02*
X006929Y017401D01*
X006929Y017283D02*
X006624Y017283D01*
X006624Y017164D02*
X006929Y017164D01*
X006929Y017046D02*
X006624Y017046D01*
X006624Y016927D02*
X006929Y016927D01*
X006929Y016809D02*
X006624Y016809D01*
X006624Y016690D02*
X006929Y016690D01*
X006929Y016572D02*
X006624Y016572D01*
X006624Y016453D02*
X006929Y016453D01*
X006929Y016335D02*
X006624Y016335D01*
X006624Y016216D02*
X006929Y016216D01*
X006929Y016098D02*
X006624Y016098D01*
X006624Y015979D02*
X006929Y015979D01*
X006929Y015861D02*
X006624Y015861D01*
X006624Y015742D02*
X006929Y015742D01*
X006929Y015624D02*
X006624Y015624D01*
X006624Y015505D02*
X006929Y015505D01*
X006929Y015387D02*
X006624Y015387D01*
X006624Y015268D02*
X006929Y015268D01*
X006929Y015150D02*
X006624Y015150D01*
X006624Y015031D02*
X006929Y015031D01*
X006929Y014913D02*
X006624Y014913D01*
X006624Y014794D02*
X006929Y014794D01*
X006929Y014676D02*
X006624Y014676D01*
X006624Y014557D02*
X006929Y014557D01*
X006929Y014439D02*
X006624Y014439D01*
X006624Y014320D02*
X006929Y014320D01*
X006929Y014202D02*
X006624Y014202D01*
X006624Y014083D02*
X006929Y014083D01*
X006929Y013965D02*
X006624Y013965D01*
X006624Y013846D02*
X006929Y013846D01*
X006929Y013728D02*
X006624Y013728D01*
X006624Y013609D02*
X006929Y013609D01*
X006929Y013491D02*
X006624Y013491D01*
X006624Y013372D02*
X006929Y013372D01*
X006929Y013254D02*
X006624Y013254D01*
X006624Y013135D02*
X006929Y013135D01*
X006929Y013017D02*
X006624Y013017D01*
X006624Y012898D02*
X006929Y012898D01*
X006929Y012780D02*
X006624Y012780D01*
X006624Y012661D02*
X006929Y012661D01*
X006929Y012543D02*
X006624Y012543D01*
X006624Y012424D02*
X006929Y012424D01*
X006929Y012306D02*
X006624Y012306D01*
X006624Y012187D02*
X006929Y012187D01*
X006929Y012069D02*
X006624Y012069D01*
X006624Y011950D02*
X006929Y011950D01*
X006929Y011832D02*
X006624Y011832D01*
X006624Y011713D02*
X006929Y011713D01*
X006929Y011595D02*
X006624Y011595D01*
X006624Y011476D02*
X006929Y011476D01*
X006929Y011358D02*
X006624Y011358D01*
X006624Y011239D02*
X006929Y011239D01*
X006929Y011121D02*
X006624Y011121D01*
X006624Y011002D02*
X006929Y011002D01*
X006929Y010884D02*
X006624Y010884D01*
X006624Y010765D02*
X006929Y010765D01*
X006929Y010647D02*
X006624Y010647D01*
X006624Y010528D02*
X006929Y010528D01*
X006929Y010410D02*
X006624Y010410D01*
X006624Y010291D02*
X006929Y010291D01*
X006929Y010173D02*
X006624Y010173D01*
X006624Y010054D02*
X006929Y010054D01*
X006929Y009936D02*
X006624Y009936D01*
X006624Y009817D02*
X006929Y009817D01*
X006929Y009699D02*
X006624Y009699D01*
X006624Y009580D02*
X006929Y009580D01*
X006929Y009462D02*
X006624Y009462D01*
X006624Y009343D02*
X006929Y009343D01*
X006929Y009225D02*
X006624Y009225D01*
X006624Y009106D02*
X006929Y009106D01*
X006929Y008988D02*
X006624Y008988D01*
X006624Y008869D02*
X006929Y008869D01*
X006929Y008751D02*
X006624Y008751D01*
X006624Y008632D02*
X006929Y008632D01*
X006929Y008514D02*
X006642Y008514D01*
X006760Y008395D02*
X006929Y008395D01*
X006929Y008277D02*
X006879Y008277D01*
X006884Y008158D02*
X006964Y008158D01*
X006964Y008040D02*
X006884Y008040D01*
X006884Y007921D02*
X006964Y007921D01*
X007051Y007803D02*
X006797Y007803D01*
X006678Y007684D02*
X007170Y007684D01*
X007140Y007447D02*
X006708Y007447D01*
X006615Y007540D02*
X006884Y007271D01*
X006884Y006890D01*
X006615Y006620D01*
X006234Y006620D01*
X005964Y006890D01*
X005964Y007271D01*
X006234Y007540D01*
X006615Y007540D01*
X006827Y007329D02*
X007022Y007329D01*
X006964Y007210D02*
X006884Y007210D01*
X006884Y007092D02*
X006964Y007092D01*
X006964Y006973D02*
X006884Y006973D01*
X006849Y006855D02*
X006999Y006855D01*
X007118Y006736D02*
X006730Y006736D01*
X006717Y006499D02*
X004048Y006499D01*
X003967Y006381D02*
X006651Y006381D01*
X006651Y006262D02*
X003967Y006262D01*
X004121Y006034D02*
X004121Y004402D01*
X004214Y004308D01*
X005347Y004308D01*
X005441Y004402D01*
X005441Y004898D01*
X006664Y004898D01*
X006744Y004818D01*
X007757Y004818D01*
X007837Y004898D01*
X008565Y004898D01*
X008565Y004386D01*
X008538Y004414D01*
X008055Y004414D01*
X007984Y004485D02*
X008565Y004485D01*
X008565Y004603D02*
X007851Y004603D01*
X007779Y004840D02*
X008565Y004840D01*
X008565Y004722D02*
X005441Y004722D01*
X005441Y004840D02*
X006722Y004840D01*
X006651Y004603D02*
X005441Y004603D01*
X005441Y004485D02*
X006651Y004485D01*
X006651Y004366D02*
X005405Y004366D01*
X005441Y005538D02*
X005441Y006034D01*
X005347Y006128D01*
X004214Y006128D01*
X004121Y006034D01*
X004730Y006736D02*
X005118Y006736D01*
X004999Y006855D02*
X004849Y006855D01*
X004884Y006973D02*
X004964Y006973D01*
X004964Y007092D02*
X004884Y007092D01*
X004884Y007210D02*
X004964Y007210D01*
X004893Y007329D02*
X004827Y007329D01*
X005103Y007684D02*
X005170Y007684D01*
X005222Y007566D02*
X007627Y007566D01*
X007678Y007684D02*
X007701Y007684D01*
X008101Y007684D02*
X008170Y007684D01*
X008884Y007210D02*
X009317Y007210D01*
X009251Y007092D02*
X008884Y007092D01*
X008884Y006973D02*
X009237Y006973D01*
X009265Y006855D02*
X008849Y006855D01*
X008730Y006736D02*
X009351Y006736D01*
X009575Y005907D02*
X009652Y005907D01*
X009652Y005788D02*
X009575Y005788D01*
X009575Y005670D02*
X009652Y005670D01*
X009652Y005551D02*
X009575Y005551D01*
X009575Y005433D02*
X009652Y005433D01*
X009652Y005314D02*
X009575Y005314D01*
X008565Y005538D02*
X007837Y005538D01*
X007757Y005618D01*
X006744Y005618D01*
X006664Y005538D01*
X005441Y005538D01*
X005441Y005551D02*
X006677Y005551D01*
X006684Y005788D02*
X005441Y005788D01*
X005441Y005670D02*
X008567Y005670D01*
X008567Y005622D02*
X008565Y005616D01*
X008565Y005538D01*
X008565Y005551D02*
X007824Y005551D01*
X007817Y005788D02*
X008567Y005788D01*
X008567Y005875D02*
X008567Y005622D01*
X007311Y006262D02*
X007191Y006262D01*
X007191Y006381D02*
X007311Y006381D01*
X007311Y006499D02*
X007191Y006499D01*
X006651Y006025D02*
X005441Y006025D01*
X005441Y005907D02*
X006651Y005907D01*
X006118Y006736D02*
X005730Y006736D01*
X005849Y006855D02*
X005999Y006855D01*
X005964Y006973D02*
X005884Y006973D01*
X005884Y007092D02*
X005964Y007092D01*
X005964Y007210D02*
X005884Y007210D01*
X005827Y007329D02*
X006022Y007329D01*
X006140Y007447D02*
X005708Y007447D01*
X005678Y007684D02*
X006170Y007684D01*
X006051Y007803D02*
X005797Y007803D01*
X005884Y007921D02*
X005964Y007921D01*
X005964Y008040D02*
X005884Y008040D01*
X005884Y008158D02*
X005964Y008158D01*
X005970Y008277D02*
X005879Y008277D01*
X005760Y008395D02*
X006088Y008395D01*
X006207Y008514D02*
X005642Y008514D01*
X005624Y008632D02*
X006224Y008632D01*
X006224Y008751D02*
X005624Y008751D01*
X005624Y008869D02*
X006224Y008869D01*
X006224Y008988D02*
X005624Y008988D01*
X005624Y009106D02*
X006224Y009106D01*
X006224Y009225D02*
X005624Y009225D01*
X005624Y009343D02*
X006224Y009343D01*
X006224Y009462D02*
X005624Y009462D01*
X005624Y009580D02*
X006224Y009580D01*
X006224Y009699D02*
X005624Y009699D01*
X005624Y009817D02*
X006224Y009817D01*
X006224Y009936D02*
X005624Y009936D01*
X005624Y010054D02*
X006224Y010054D01*
X006224Y010173D02*
X005624Y010173D01*
X005624Y010291D02*
X006224Y010291D01*
X006224Y010410D02*
X005624Y010410D01*
X005624Y010528D02*
X006224Y010528D01*
X006224Y010647D02*
X005624Y010647D01*
X005624Y010765D02*
X006224Y010765D01*
X006224Y010884D02*
X005624Y010884D01*
X005624Y011002D02*
X006224Y011002D01*
X006224Y011121D02*
X005624Y011121D01*
X005624Y011239D02*
X006224Y011239D01*
X006224Y011358D02*
X005624Y011358D01*
X005624Y011476D02*
X006224Y011476D01*
X006224Y011595D02*
X005624Y011595D01*
X005624Y011713D02*
X006224Y011713D01*
X006224Y011832D02*
X005624Y011832D01*
X005624Y011950D02*
X006224Y011950D01*
X006224Y012069D02*
X005624Y012069D01*
X005624Y012187D02*
X006224Y012187D01*
X006224Y012306D02*
X005624Y012306D01*
X005624Y012424D02*
X006224Y012424D01*
X006224Y012543D02*
X005624Y012543D01*
X005624Y012661D02*
X006224Y012661D01*
X006224Y012780D02*
X005624Y012780D01*
X005624Y012898D02*
X006224Y012898D01*
X006224Y013017D02*
X005624Y013017D01*
X005624Y013135D02*
X006224Y013135D01*
X006224Y013254D02*
X005624Y013254D01*
X005624Y013372D02*
X006224Y013372D01*
X006224Y013491D02*
X005624Y013491D01*
X005624Y013609D02*
X006224Y013609D01*
X006224Y013728D02*
X005624Y013728D01*
X005624Y013846D02*
X006224Y013846D01*
X006224Y013965D02*
X005624Y013965D01*
X005624Y014083D02*
X006224Y014083D01*
X006224Y014202D02*
X005624Y014202D01*
X005624Y014320D02*
X006224Y014320D01*
X006224Y014439D02*
X005624Y014439D01*
X005624Y014557D02*
X006224Y014557D01*
X006224Y014676D02*
X005624Y014676D01*
X005624Y014794D02*
X006224Y014794D01*
X006224Y014913D02*
X005624Y014913D01*
X005624Y015031D02*
X006224Y015031D01*
X006224Y015150D02*
X005624Y015150D01*
X005624Y015268D02*
X006224Y015268D01*
X006224Y015387D02*
X005624Y015387D01*
X005624Y015505D02*
X006224Y015505D01*
X006224Y015624D02*
X005624Y015624D01*
X005624Y015742D02*
X006224Y015742D01*
X006224Y015861D02*
X005624Y015861D01*
X005624Y015979D02*
X006224Y015979D01*
X006224Y016098D02*
X005624Y016098D01*
X005624Y016216D02*
X006224Y016216D01*
X006224Y016335D02*
X005624Y016335D01*
X005624Y016453D02*
X006224Y016453D01*
X006224Y016572D02*
X005624Y016572D01*
X005624Y016690D02*
X006224Y016690D01*
X006224Y016809D02*
X005624Y016809D01*
X005624Y016927D02*
X006224Y016927D01*
X006224Y017046D02*
X005624Y017046D01*
X005624Y017164D02*
X006224Y017164D01*
X006224Y017283D02*
X005624Y017283D01*
X005701Y017401D02*
X006224Y017401D01*
X006224Y017520D02*
X005820Y017520D01*
X005938Y017638D02*
X006224Y017638D01*
X006224Y017757D02*
X006057Y017757D01*
X006175Y017875D02*
X006298Y017875D01*
X006341Y017918D02*
X006341Y017918D01*
X006294Y017994D02*
X006417Y017994D01*
X006412Y018112D02*
X006535Y018112D01*
X006531Y018231D02*
X006654Y018231D01*
X006649Y018349D02*
X006772Y018349D01*
X006185Y019179D02*
X005037Y019179D01*
X005179Y019060D02*
X006105Y019060D01*
X005987Y018942D02*
X005292Y018942D01*
X005342Y018823D02*
X005868Y018823D01*
X005750Y018705D02*
X005391Y018705D01*
X005403Y018586D02*
X005631Y018586D01*
X005513Y018468D02*
X005403Y018468D01*
X005392Y018349D02*
X005394Y018349D01*
X005328Y019416D02*
X004701Y019416D01*
X004863Y019534D02*
X005166Y019534D01*
X005093Y019653D02*
X004937Y019653D01*
X004975Y019771D02*
X005055Y019771D01*
X005055Y019890D02*
X004975Y019890D01*
X004941Y020008D02*
X005088Y020008D01*
X005155Y020127D02*
X004875Y020127D01*
X004730Y020245D02*
X005300Y020245D01*
X002555Y020245D02*
X002475Y020245D01*
X002475Y020127D02*
X002555Y020127D01*
X002555Y020008D02*
X002475Y020008D01*
X002475Y019890D02*
X002555Y019890D01*
X002304Y020245D02*
X002034Y020245D01*
X002084Y020127D02*
X002157Y020127D01*
X002166Y019534D02*
X002121Y019534D01*
X002113Y019416D02*
X002072Y019416D01*
X002047Y019297D02*
X002019Y019297D01*
X002032Y019179D02*
X001900Y019179D01*
X001774Y019060D02*
X002060Y019060D01*
X002145Y018942D02*
X001488Y018942D01*
X001124Y018942D02*
X000776Y018942D01*
X000776Y019060D02*
X000838Y019060D01*
X001109Y011121D02*
X001219Y011121D01*
X001219Y011002D02*
X001109Y011002D01*
X004105Y009462D02*
X004151Y009462D01*
X004105Y009343D02*
X004329Y009343D01*
X004105Y009225D02*
X005224Y009225D01*
X005224Y009343D02*
X004976Y009343D01*
X005154Y009462D02*
X005224Y009462D01*
X005224Y009106D02*
X004105Y009106D01*
X004105Y008988D02*
X005224Y008988D01*
X005224Y008869D02*
X004105Y008869D01*
X004105Y008751D02*
X005224Y008751D01*
X005224Y008632D02*
X004155Y008632D01*
X004642Y008514D02*
X005207Y008514D01*
X005088Y008395D02*
X004760Y008395D01*
X004879Y008277D02*
X004970Y008277D01*
X004964Y008158D02*
X004884Y008158D01*
X004884Y008040D02*
X004964Y008040D01*
X004964Y007921D02*
X004884Y007921D01*
X004797Y007803D02*
X005051Y007803D01*
X004121Y004840D02*
X003681Y004840D01*
X003799Y004722D02*
X004121Y004722D01*
X004121Y004603D02*
X003918Y004603D01*
X004036Y004485D02*
X004121Y004485D01*
X004155Y004366D02*
X004156Y004366D01*
X004273Y004248D02*
X006651Y004248D01*
X006619Y004129D02*
X004392Y004129D01*
X004510Y004011D02*
X006500Y004011D01*
D26*
X006966Y002521D03*
X008097Y001478D03*
X008196Y002069D03*
X009968Y002069D03*
X009574Y006990D03*
X009968Y007580D03*
X010460Y008072D03*
X012723Y007728D03*
X007704Y008761D03*
X006129Y005759D03*
X005509Y002600D03*
X004751Y001970D03*
X002979Y005513D03*
X003373Y006301D03*
X003767Y006694D03*
X003767Y005710D03*
X002782Y006399D03*
X003668Y008368D03*
X003373Y009746D03*
X002290Y009450D03*
X001798Y009943D03*
X007408Y018013D03*
X007704Y017620D03*
X007113Y018407D03*
X006818Y018801D03*
X006523Y019194D03*
X003373Y018801D03*
X003176Y019293D03*
X002369Y019194D03*
D27*
X002330Y006596D02*
X002527Y006399D01*
X002782Y006399D01*
D28*
X003244Y004824D02*
X001753Y004824D01*
X001365Y005213D01*
X001365Y005513D01*
X001365Y006596D01*
X001326Y006596D01*
X003244Y004824D02*
X004484Y003584D01*
X006129Y003584D01*
X006527Y003584D01*
X007251Y004308D01*
X007708Y004308D01*
X008196Y003820D01*
X008196Y002817D02*
X008196Y002069D01*
X005342Y002069D01*
X004849Y002561D01*
X004082Y002561D01*
X003373Y003269D01*
X002595Y003269D01*
X004298Y001970D02*
X004751Y001970D01*
X005243Y001478D01*
X008097Y001478D01*
X008885Y002466D02*
X008885Y005218D01*
X008885Y005552D01*
X008944Y005611D01*
X008885Y005218D02*
X007251Y005218D01*
X004781Y005218D01*
X003373Y009746D02*
X003373Y018801D01*
X008885Y002466D02*
X010515Y000836D01*
X011515Y000836D02*
X010282Y002069D01*
X009968Y002069D01*
D29*
X009574Y006990D02*
X009574Y019836D01*
X009515Y019836D01*
X008885Y019317D02*
X008515Y019687D01*
X008515Y019836D01*
X008885Y019317D02*
X008885Y007541D01*
X008424Y007080D01*
X007901Y007557D02*
X007901Y008368D01*
X008294Y008761D01*
X008294Y019096D01*
X007554Y019836D01*
X007515Y019836D01*
X006818Y018801D02*
X005424Y017407D01*
X005424Y008080D01*
X004924Y007580D02*
X003964Y007580D01*
X002979Y008565D01*
X002979Y019096D01*
X003176Y019293D01*
X003708Y019643D02*
X003515Y019836D01*
X003708Y019643D02*
X003708Y008407D01*
X003668Y008368D01*
X003905Y008600D02*
X003905Y016576D01*
X006523Y019194D01*
X007113Y018407D02*
X006424Y017718D01*
X006424Y008080D01*
X007129Y008360D02*
X007416Y008072D01*
X007420Y008073D01*
X007423Y008076D01*
X007424Y008080D01*
X007129Y008360D02*
X007129Y017734D01*
X007408Y018013D01*
X007704Y017620D02*
X007704Y008761D01*
X007901Y007557D02*
X007424Y007080D01*
X005424Y007080D02*
X004924Y007580D01*
X004424Y007080D02*
X004082Y007080D01*
X002684Y008478D01*
X002684Y018880D01*
X002369Y019194D01*
X001764Y011419D02*
X001764Y009943D01*
X001798Y009943D01*
X002267Y010120D02*
X002290Y010120D01*
X002290Y009450D01*
X002015Y009175D01*
X001838Y009175D01*
X003767Y006694D02*
X003767Y005710D01*
X003373Y005907D02*
X003373Y006301D01*
X003373Y005907D02*
X002979Y005513D01*
X004424Y008080D02*
X003905Y008600D01*
X009968Y007580D02*
X009968Y018261D01*
X011542Y019836D01*
X011515Y019836D01*
X011838Y009254D02*
X010850Y009254D01*
X010460Y008863D01*
X010460Y008072D01*
X011838Y009254D02*
X012330Y008761D01*
X012271Y008761D01*
X012723Y008309D01*
X012723Y007728D01*
D30*
X001838Y007659D02*
X001090Y007659D01*
X001090Y006596D01*
X001326Y006596D01*
X001227Y006596D01*
X001090Y007659D02*
X001090Y008112D01*
X001838Y008112D02*
X001838Y007659D01*
M02*
