%
M48
M72
T01C0.0236
T02C0.0315
T03C0.0400
T04C0.0787
T05C0.0866
%
T01
X2979Y5513
X3373Y6301
X3767Y6694
X3767Y5710
X2782Y6399
X3668Y8368
X3373Y9746
X2290Y9450
X1798Y9943
X6129Y5759
X5509Y2600
X4751Y1970
X6966Y2521
X8097Y1478
X8196Y2069
X9968Y2069
X9574Y6990
X9968Y7580
X10460Y8072
X12723Y7728
X7704Y8761
X7704Y17620
X7408Y18013
X7113Y18407
X6818Y18801
X6523Y19194
X3373Y18801
X3176Y19293
X2369Y19194
T02
X2595Y3269
X2595Y2482
T03
X2515Y836
X3515Y836
X4515Y836
X5515Y836
X6515Y836
X7515Y836
X8515Y836
X9515Y836
X10515Y836
X11515Y836
X8424Y7080
X8424Y8080
X7424Y8080
X7424Y7080
X6424Y7080
X6424Y8080
X5424Y8080
X5424Y7080
X4424Y7080
X4424Y8080
X4515Y19836
X5515Y19836
X6515Y19836
X7515Y19836
X8515Y19836
X9515Y19836
X10515Y19836
X11515Y19836
X3515Y19836
X2515Y19836
T04
X4653Y18525
X4653Y10021
T05
X1306Y887
X12723Y887
X12723Y19785
X1306Y19785
M30
