G75*
G70*
%OFA0B0*%
%FSLAX24Y24*%
%IPPOS*%
%LPD*%
%AMOC8*
5,1,8,0,0,1.08239X$1,22.5*
%
%ADD10C,0.0000*%
%ADD11C,0.0866*%
%ADD12R,0.0787X0.0787*%
%ADD13R,0.0591X0.0591*%
%ADD14R,0.0394X0.0433*%
%ADD15R,0.0512X0.0610*%
%ADD16R,0.0531X0.0157*%
%ADD17R,0.0630X0.0827*%
%ADD18R,0.0748X0.0837*%
%ADD19R,0.0709X0.0748*%
%ADD20R,0.0276X0.0079*%
%ADD21OC8,0.0660*%
%ADD22C,0.0600*%
%ADD23C,0.0660*%
%ADD24R,0.0630X0.0460*%
%ADD25R,0.0433X0.0394*%
%ADD26R,0.0866X0.0551*%
%ADD27R,0.0354X0.0551*%
%ADD28R,0.1575X0.1575*%
%ADD29C,0.1181*%
D10*
X000519Y000100D02*
X000519Y020572D01*
X013511Y020572D01*
X013511Y000100D01*
X000519Y000100D01*
X000873Y000887D02*
X000875Y000928D01*
X000881Y000969D01*
X000891Y001009D01*
X000904Y001048D01*
X000921Y001085D01*
X000942Y001121D01*
X000966Y001155D01*
X000993Y001186D01*
X001022Y001214D01*
X001055Y001240D01*
X001089Y001262D01*
X001126Y001281D01*
X001164Y001296D01*
X001204Y001308D01*
X001244Y001316D01*
X001285Y001320D01*
X001327Y001320D01*
X001368Y001316D01*
X001408Y001308D01*
X001448Y001296D01*
X001486Y001281D01*
X001522Y001262D01*
X001557Y001240D01*
X001590Y001214D01*
X001619Y001186D01*
X001646Y001155D01*
X001670Y001121D01*
X001691Y001085D01*
X001708Y001048D01*
X001721Y001009D01*
X001731Y000969D01*
X001737Y000928D01*
X001739Y000887D01*
X001737Y000846D01*
X001731Y000805D01*
X001721Y000765D01*
X001708Y000726D01*
X001691Y000689D01*
X001670Y000653D01*
X001646Y000619D01*
X001619Y000588D01*
X001590Y000560D01*
X001557Y000534D01*
X001523Y000512D01*
X001486Y000493D01*
X001448Y000478D01*
X001408Y000466D01*
X001368Y000458D01*
X001327Y000454D01*
X001285Y000454D01*
X001244Y000458D01*
X001204Y000466D01*
X001164Y000478D01*
X001126Y000493D01*
X001090Y000512D01*
X001055Y000534D01*
X001022Y000560D01*
X000993Y000588D01*
X000966Y000619D01*
X000942Y000653D01*
X000921Y000689D01*
X000904Y000726D01*
X000891Y000765D01*
X000881Y000805D01*
X000875Y000846D01*
X000873Y000887D01*
X012290Y000887D02*
X012292Y000928D01*
X012298Y000969D01*
X012308Y001009D01*
X012321Y001048D01*
X012338Y001085D01*
X012359Y001121D01*
X012383Y001155D01*
X012410Y001186D01*
X012439Y001214D01*
X012472Y001240D01*
X012506Y001262D01*
X012543Y001281D01*
X012581Y001296D01*
X012621Y001308D01*
X012661Y001316D01*
X012702Y001320D01*
X012744Y001320D01*
X012785Y001316D01*
X012825Y001308D01*
X012865Y001296D01*
X012903Y001281D01*
X012939Y001262D01*
X012974Y001240D01*
X013007Y001214D01*
X013036Y001186D01*
X013063Y001155D01*
X013087Y001121D01*
X013108Y001085D01*
X013125Y001048D01*
X013138Y001009D01*
X013148Y000969D01*
X013154Y000928D01*
X013156Y000887D01*
X013154Y000846D01*
X013148Y000805D01*
X013138Y000765D01*
X013125Y000726D01*
X013108Y000689D01*
X013087Y000653D01*
X013063Y000619D01*
X013036Y000588D01*
X013007Y000560D01*
X012974Y000534D01*
X012940Y000512D01*
X012903Y000493D01*
X012865Y000478D01*
X012825Y000466D01*
X012785Y000458D01*
X012744Y000454D01*
X012702Y000454D01*
X012661Y000458D01*
X012621Y000466D01*
X012581Y000478D01*
X012543Y000493D01*
X012507Y000512D01*
X012472Y000534D01*
X012439Y000560D01*
X012410Y000588D01*
X012383Y000619D01*
X012359Y000653D01*
X012338Y000689D01*
X012321Y000726D01*
X012308Y000765D01*
X012298Y000805D01*
X012292Y000846D01*
X012290Y000887D01*
X012290Y019785D02*
X012292Y019826D01*
X012298Y019867D01*
X012308Y019907D01*
X012321Y019946D01*
X012338Y019983D01*
X012359Y020019D01*
X012383Y020053D01*
X012410Y020084D01*
X012439Y020112D01*
X012472Y020138D01*
X012506Y020160D01*
X012543Y020179D01*
X012581Y020194D01*
X012621Y020206D01*
X012661Y020214D01*
X012702Y020218D01*
X012744Y020218D01*
X012785Y020214D01*
X012825Y020206D01*
X012865Y020194D01*
X012903Y020179D01*
X012939Y020160D01*
X012974Y020138D01*
X013007Y020112D01*
X013036Y020084D01*
X013063Y020053D01*
X013087Y020019D01*
X013108Y019983D01*
X013125Y019946D01*
X013138Y019907D01*
X013148Y019867D01*
X013154Y019826D01*
X013156Y019785D01*
X013154Y019744D01*
X013148Y019703D01*
X013138Y019663D01*
X013125Y019624D01*
X013108Y019587D01*
X013087Y019551D01*
X013063Y019517D01*
X013036Y019486D01*
X013007Y019458D01*
X012974Y019432D01*
X012940Y019410D01*
X012903Y019391D01*
X012865Y019376D01*
X012825Y019364D01*
X012785Y019356D01*
X012744Y019352D01*
X012702Y019352D01*
X012661Y019356D01*
X012621Y019364D01*
X012581Y019376D01*
X012543Y019391D01*
X012507Y019410D01*
X012472Y019432D01*
X012439Y019458D01*
X012410Y019486D01*
X012383Y019517D01*
X012359Y019551D01*
X012338Y019587D01*
X012321Y019624D01*
X012308Y019663D01*
X012298Y019703D01*
X012292Y019744D01*
X012290Y019785D01*
X000873Y019785D02*
X000875Y019826D01*
X000881Y019867D01*
X000891Y019907D01*
X000904Y019946D01*
X000921Y019983D01*
X000942Y020019D01*
X000966Y020053D01*
X000993Y020084D01*
X001022Y020112D01*
X001055Y020138D01*
X001089Y020160D01*
X001126Y020179D01*
X001164Y020194D01*
X001204Y020206D01*
X001244Y020214D01*
X001285Y020218D01*
X001327Y020218D01*
X001368Y020214D01*
X001408Y020206D01*
X001448Y020194D01*
X001486Y020179D01*
X001522Y020160D01*
X001557Y020138D01*
X001590Y020112D01*
X001619Y020084D01*
X001646Y020053D01*
X001670Y020019D01*
X001691Y019983D01*
X001708Y019946D01*
X001721Y019907D01*
X001731Y019867D01*
X001737Y019826D01*
X001739Y019785D01*
X001737Y019744D01*
X001731Y019703D01*
X001721Y019663D01*
X001708Y019624D01*
X001691Y019587D01*
X001670Y019551D01*
X001646Y019517D01*
X001619Y019486D01*
X001590Y019458D01*
X001557Y019432D01*
X001523Y019410D01*
X001486Y019391D01*
X001448Y019376D01*
X001408Y019364D01*
X001368Y019356D01*
X001327Y019352D01*
X001285Y019352D01*
X001244Y019356D01*
X001204Y019364D01*
X001164Y019376D01*
X001126Y019391D01*
X001090Y019410D01*
X001055Y019432D01*
X001022Y019458D01*
X000993Y019486D01*
X000966Y019517D01*
X000942Y019551D01*
X000921Y019587D01*
X000904Y019624D01*
X000891Y019663D01*
X000881Y019703D01*
X000875Y019744D01*
X000873Y019785D01*
D11*
X001306Y019785D03*
X012723Y019785D03*
X012723Y000887D03*
X001306Y000887D03*
D12*
X001306Y003053D03*
X012723Y018407D03*
D13*
X012625Y016439D03*
X012625Y014864D03*
X012625Y013289D03*
X012625Y011714D03*
X011247Y011714D03*
X011247Y013289D03*
X011247Y014864D03*
X011247Y016439D03*
X001109Y009943D03*
X001109Y008565D03*
D14*
X001857Y008584D03*
X002527Y008584D03*
X009830Y011714D03*
X010499Y011714D03*
X010499Y013289D03*
X009830Y013289D03*
X009830Y014868D03*
X010499Y014868D03*
X010499Y016439D03*
X009830Y016439D03*
D15*
X010952Y010228D03*
X012723Y010228D03*
X012723Y007098D03*
X010952Y007098D03*
D16*
X002162Y006714D03*
X002162Y006458D03*
X002162Y006202D03*
X002162Y005946D03*
X002162Y005691D03*
D17*
X002113Y004982D03*
X002113Y007423D03*
D18*
X001109Y006719D03*
X001109Y005686D03*
D19*
X001109Y004637D03*
X001109Y007767D03*
D20*
X005657Y004943D03*
X005657Y004785D03*
X005657Y004628D03*
X005657Y004470D03*
X005657Y004313D03*
X005657Y004155D03*
X005657Y003998D03*
X005657Y003840D03*
X005657Y003683D03*
X005657Y003525D03*
X006870Y003525D03*
X006870Y003683D03*
X006870Y003840D03*
X006870Y003998D03*
X006870Y004155D03*
X006870Y004313D03*
X006870Y004470D03*
X006870Y004628D03*
X006870Y004785D03*
X006870Y004943D03*
D21*
X007031Y007080D03*
X007031Y008080D03*
X006031Y008080D03*
X006031Y007080D03*
X005031Y007080D03*
X005031Y008080D03*
X004031Y008080D03*
X004031Y007080D03*
X008031Y007080D03*
X008031Y008080D03*
X009031Y008080D03*
X009031Y007080D03*
X010031Y007080D03*
X010031Y008080D03*
D22*
X010515Y000836D03*
X011515Y000836D03*
X009515Y000836D03*
X008515Y000836D03*
X007515Y000836D03*
X006515Y000836D03*
X005515Y000836D03*
X004515Y000836D03*
X003515Y000836D03*
X002515Y000836D03*
X002515Y019836D03*
X003515Y019836D03*
X004515Y019836D03*
X005515Y019836D03*
X006515Y019836D03*
X007515Y019836D03*
X008515Y019836D03*
X009515Y019836D03*
X010515Y019836D03*
X011515Y019836D03*
D23*
X002595Y003269D03*
X002595Y002482D03*
D24*
X003767Y004229D03*
X003767Y004829D03*
D25*
X002940Y007246D03*
X002940Y007915D03*
D26*
X009594Y009667D03*
X009594Y010454D03*
D27*
X008590Y010454D03*
X008590Y009667D03*
D28*
X004653Y014273D03*
D29*
X004653Y018525D03*
X004653Y010021D03*
M02*
