G75*
G70*
%OFA0B0*%
%FSLAX24Y24*%
%IPPOS*%
%LPD*%
%AMOC8*
5,1,8,0,0,1.08239X$1,22.5*
%
%ADD10C,0.0000*%
%ADD11C,0.0030*%
%ADD12C,0.0080*%
%ADD13R,0.0167X0.0128*%
%ADD14R,0.0138X0.0138*%
%ADD15C,0.0050*%
%ADD16C,0.0060*%
%ADD17C,0.0040*%
%ADD18R,0.0128X0.0167*%
%ADD19C,0.0118*%
D10*
X000519Y000100D02*
X000519Y020572D01*
X013511Y020572D01*
X013511Y000100D01*
X000519Y000100D01*
X000873Y000887D02*
X000875Y000928D01*
X000881Y000969D01*
X000891Y001009D01*
X000904Y001048D01*
X000921Y001085D01*
X000942Y001121D01*
X000966Y001155D01*
X000993Y001186D01*
X001022Y001214D01*
X001055Y001240D01*
X001089Y001262D01*
X001126Y001281D01*
X001164Y001296D01*
X001204Y001308D01*
X001244Y001316D01*
X001285Y001320D01*
X001327Y001320D01*
X001368Y001316D01*
X001408Y001308D01*
X001448Y001296D01*
X001486Y001281D01*
X001522Y001262D01*
X001557Y001240D01*
X001590Y001214D01*
X001619Y001186D01*
X001646Y001155D01*
X001670Y001121D01*
X001691Y001085D01*
X001708Y001048D01*
X001721Y001009D01*
X001731Y000969D01*
X001737Y000928D01*
X001739Y000887D01*
X001737Y000846D01*
X001731Y000805D01*
X001721Y000765D01*
X001708Y000726D01*
X001691Y000689D01*
X001670Y000653D01*
X001646Y000619D01*
X001619Y000588D01*
X001590Y000560D01*
X001557Y000534D01*
X001523Y000512D01*
X001486Y000493D01*
X001448Y000478D01*
X001408Y000466D01*
X001368Y000458D01*
X001327Y000454D01*
X001285Y000454D01*
X001244Y000458D01*
X001204Y000466D01*
X001164Y000478D01*
X001126Y000493D01*
X001090Y000512D01*
X001055Y000534D01*
X001022Y000560D01*
X000993Y000588D01*
X000966Y000619D01*
X000942Y000653D01*
X000921Y000689D01*
X000904Y000726D01*
X000891Y000765D01*
X000881Y000805D01*
X000875Y000846D01*
X000873Y000887D01*
X012290Y000887D02*
X012292Y000928D01*
X012298Y000969D01*
X012308Y001009D01*
X012321Y001048D01*
X012338Y001085D01*
X012359Y001121D01*
X012383Y001155D01*
X012410Y001186D01*
X012439Y001214D01*
X012472Y001240D01*
X012506Y001262D01*
X012543Y001281D01*
X012581Y001296D01*
X012621Y001308D01*
X012661Y001316D01*
X012702Y001320D01*
X012744Y001320D01*
X012785Y001316D01*
X012825Y001308D01*
X012865Y001296D01*
X012903Y001281D01*
X012939Y001262D01*
X012974Y001240D01*
X013007Y001214D01*
X013036Y001186D01*
X013063Y001155D01*
X013087Y001121D01*
X013108Y001085D01*
X013125Y001048D01*
X013138Y001009D01*
X013148Y000969D01*
X013154Y000928D01*
X013156Y000887D01*
X013154Y000846D01*
X013148Y000805D01*
X013138Y000765D01*
X013125Y000726D01*
X013108Y000689D01*
X013087Y000653D01*
X013063Y000619D01*
X013036Y000588D01*
X013007Y000560D01*
X012974Y000534D01*
X012940Y000512D01*
X012903Y000493D01*
X012865Y000478D01*
X012825Y000466D01*
X012785Y000458D01*
X012744Y000454D01*
X012702Y000454D01*
X012661Y000458D01*
X012621Y000466D01*
X012581Y000478D01*
X012543Y000493D01*
X012507Y000512D01*
X012472Y000534D01*
X012439Y000560D01*
X012410Y000588D01*
X012383Y000619D01*
X012359Y000653D01*
X012338Y000689D01*
X012321Y000726D01*
X012308Y000765D01*
X012298Y000805D01*
X012292Y000846D01*
X012290Y000887D01*
X012290Y019785D02*
X012292Y019826D01*
X012298Y019867D01*
X012308Y019907D01*
X012321Y019946D01*
X012338Y019983D01*
X012359Y020019D01*
X012383Y020053D01*
X012410Y020084D01*
X012439Y020112D01*
X012472Y020138D01*
X012506Y020160D01*
X012543Y020179D01*
X012581Y020194D01*
X012621Y020206D01*
X012661Y020214D01*
X012702Y020218D01*
X012744Y020218D01*
X012785Y020214D01*
X012825Y020206D01*
X012865Y020194D01*
X012903Y020179D01*
X012939Y020160D01*
X012974Y020138D01*
X013007Y020112D01*
X013036Y020084D01*
X013063Y020053D01*
X013087Y020019D01*
X013108Y019983D01*
X013125Y019946D01*
X013138Y019907D01*
X013148Y019867D01*
X013154Y019826D01*
X013156Y019785D01*
X013154Y019744D01*
X013148Y019703D01*
X013138Y019663D01*
X013125Y019624D01*
X013108Y019587D01*
X013087Y019551D01*
X013063Y019517D01*
X013036Y019486D01*
X013007Y019458D01*
X012974Y019432D01*
X012940Y019410D01*
X012903Y019391D01*
X012865Y019376D01*
X012825Y019364D01*
X012785Y019356D01*
X012744Y019352D01*
X012702Y019352D01*
X012661Y019356D01*
X012621Y019364D01*
X012581Y019376D01*
X012543Y019391D01*
X012507Y019410D01*
X012472Y019432D01*
X012439Y019458D01*
X012410Y019486D01*
X012383Y019517D01*
X012359Y019551D01*
X012338Y019587D01*
X012321Y019624D01*
X012308Y019663D01*
X012298Y019703D01*
X012292Y019744D01*
X012290Y019785D01*
X000873Y019785D02*
X000875Y019826D01*
X000881Y019867D01*
X000891Y019907D01*
X000904Y019946D01*
X000921Y019983D01*
X000942Y020019D01*
X000966Y020053D01*
X000993Y020084D01*
X001022Y020112D01*
X001055Y020138D01*
X001089Y020160D01*
X001126Y020179D01*
X001164Y020194D01*
X001204Y020206D01*
X001244Y020214D01*
X001285Y020218D01*
X001327Y020218D01*
X001368Y020214D01*
X001408Y020206D01*
X001448Y020194D01*
X001486Y020179D01*
X001522Y020160D01*
X001557Y020138D01*
X001590Y020112D01*
X001619Y020084D01*
X001646Y020053D01*
X001670Y020019D01*
X001691Y019983D01*
X001708Y019946D01*
X001721Y019907D01*
X001731Y019867D01*
X001737Y019826D01*
X001739Y019785D01*
X001737Y019744D01*
X001731Y019703D01*
X001721Y019663D01*
X001708Y019624D01*
X001691Y019587D01*
X001670Y019551D01*
X001646Y019517D01*
X001619Y019486D01*
X001590Y019458D01*
X001557Y019432D01*
X001523Y019410D01*
X001486Y019391D01*
X001448Y019376D01*
X001408Y019364D01*
X001368Y019356D01*
X001327Y019352D01*
X001285Y019352D01*
X001244Y019356D01*
X001204Y019364D01*
X001164Y019376D01*
X001126Y019391D01*
X001090Y019410D01*
X001055Y019432D01*
X001022Y019458D01*
X000993Y019486D01*
X000966Y019517D01*
X000942Y019551D01*
X000921Y019587D01*
X000904Y019624D01*
X000891Y019663D01*
X000881Y019703D01*
X000875Y019744D01*
X000873Y019785D01*
D11*
X002096Y019112D02*
X002096Y018918D01*
X002144Y018870D01*
X002241Y018870D01*
X002289Y018918D01*
X002289Y019015D01*
X002192Y019015D01*
X002096Y019112D02*
X002144Y019160D01*
X002241Y019160D01*
X002289Y019112D01*
X002390Y019160D02*
X002390Y018870D01*
X002584Y018870D02*
X002390Y019160D01*
X002584Y019160D02*
X002584Y018870D01*
X002685Y018870D02*
X002685Y019160D01*
X002830Y019160D01*
X002878Y019112D01*
X002878Y018918D01*
X002830Y018870D01*
X002685Y018870D01*
X003379Y018918D02*
X003427Y018870D01*
X003524Y018870D01*
X003572Y018918D01*
X003572Y019015D01*
X003524Y019063D01*
X003475Y019063D01*
X003379Y019015D01*
X003379Y019160D01*
X003572Y019160D01*
X007503Y018786D02*
X007503Y018416D01*
X007503Y018539D02*
X007688Y018539D01*
X007750Y018601D01*
X007750Y018724D01*
X007688Y018786D01*
X007503Y018786D01*
X007872Y018786D02*
X007995Y018786D01*
X007933Y018786D02*
X007933Y018416D01*
X007872Y018416D02*
X007995Y018416D01*
X008117Y018478D02*
X008117Y018724D01*
X008179Y018786D01*
X008302Y018786D01*
X008364Y018724D01*
X008364Y018478D01*
X008302Y018416D01*
X008179Y018416D01*
X008117Y018478D01*
X008447Y018870D02*
X008398Y018918D01*
X008592Y019112D01*
X008592Y018918D01*
X008543Y018870D01*
X008447Y018870D01*
X008398Y018918D02*
X008398Y019112D01*
X008447Y019160D01*
X008543Y019160D01*
X008592Y019112D01*
X009251Y019180D02*
X009251Y018889D01*
X009251Y018986D02*
X009396Y018986D01*
X009444Y019035D01*
X009444Y019131D01*
X009396Y019180D01*
X009251Y019180D01*
X009348Y018986D02*
X009444Y018889D01*
X009546Y018889D02*
X009739Y019180D01*
X009546Y019180D02*
X009739Y018889D01*
X009905Y018727D02*
X009905Y018418D01*
X009967Y018357D01*
X010090Y018357D01*
X010152Y018418D01*
X010152Y018727D01*
X010136Y018889D02*
X010233Y018889D01*
X010281Y018938D01*
X010281Y019035D01*
X010185Y019035D01*
X010281Y019131D02*
X010233Y019180D01*
X010136Y019180D01*
X010088Y019131D01*
X010088Y018938D01*
X010136Y018889D01*
X010382Y018889D02*
X010382Y019180D01*
X010576Y018889D01*
X010576Y019180D01*
X010677Y019180D02*
X010677Y018889D01*
X010822Y018889D01*
X010871Y018938D01*
X010871Y019131D01*
X010822Y019180D01*
X010677Y019180D01*
X010642Y018727D02*
X010827Y018727D01*
X010889Y018665D01*
X010889Y018542D01*
X010827Y018480D01*
X010642Y018480D01*
X010642Y018357D02*
X010642Y018727D01*
X010521Y018604D02*
X010521Y018357D01*
X010521Y018542D02*
X010274Y018542D01*
X010274Y018604D02*
X010397Y018727D01*
X010521Y018604D01*
X010274Y018604D02*
X010274Y018357D01*
X010765Y018480D02*
X010889Y018357D01*
X011134Y018357D02*
X011134Y018727D01*
X011257Y018727D02*
X011010Y018727D01*
X011277Y018889D02*
X011277Y019180D01*
X011373Y019180D02*
X011180Y019180D01*
X011475Y019180D02*
X011668Y018889D01*
X011475Y018889D02*
X011668Y019180D01*
X011819Y017324D02*
X011819Y016954D01*
X012066Y016954D01*
X012188Y016954D02*
X012188Y017324D01*
X012373Y017324D01*
X012435Y017262D01*
X012435Y017015D01*
X012373Y016954D01*
X012188Y016954D01*
X012066Y017324D02*
X011819Y017324D01*
X011819Y017139D02*
X011943Y017139D01*
X011698Y016954D02*
X011451Y016954D01*
X011451Y017324D01*
X011451Y015749D02*
X011451Y015379D01*
X011698Y015379D01*
X011819Y015379D02*
X012066Y015379D01*
X012188Y015379D02*
X012373Y015379D01*
X012435Y015440D01*
X012435Y015687D01*
X012373Y015749D01*
X012188Y015749D01*
X012188Y015379D01*
X011943Y015564D02*
X011819Y015564D01*
X011819Y015749D02*
X011819Y015379D01*
X011819Y015749D02*
X012066Y015749D01*
X012556Y015564D02*
X012803Y015564D01*
X012741Y015379D02*
X012741Y015749D01*
X012556Y015564D01*
X012618Y016954D02*
X012556Y017015D01*
X012618Y016954D02*
X012741Y016954D01*
X012803Y017015D01*
X012803Y017139D01*
X012741Y017200D01*
X012679Y017200D01*
X012556Y017139D01*
X012556Y017324D01*
X012803Y017324D01*
X012741Y014174D02*
X012618Y014174D01*
X012556Y014113D01*
X012435Y014113D02*
X012435Y013866D01*
X012373Y013804D01*
X012188Y013804D01*
X012188Y014174D01*
X012373Y014174D01*
X012435Y014113D01*
X012556Y013866D02*
X012618Y013804D01*
X012741Y013804D01*
X012803Y013866D01*
X012803Y013927D01*
X012741Y013989D01*
X012679Y013989D01*
X012741Y013989D02*
X012803Y014051D01*
X012803Y014113D01*
X012741Y014174D01*
X012066Y014174D02*
X011819Y014174D01*
X011819Y013804D01*
X012066Y013804D01*
X011943Y013989D02*
X011819Y013989D01*
X011698Y013804D02*
X011451Y013804D01*
X011451Y014174D01*
X010426Y013857D02*
X010180Y013857D01*
X010365Y014042D01*
X010365Y013672D01*
X010058Y013672D02*
X009935Y013796D01*
X009996Y013796D02*
X009811Y013796D01*
X009811Y013672D02*
X009811Y014042D01*
X009996Y014042D01*
X010058Y013981D01*
X010058Y013857D01*
X009996Y013796D01*
X009996Y012468D02*
X009811Y012468D01*
X009811Y012097D01*
X009811Y012221D02*
X009996Y012221D01*
X010058Y012282D01*
X010058Y012406D01*
X009996Y012468D01*
X010180Y012406D02*
X010241Y012468D01*
X010365Y012468D01*
X010426Y012406D01*
X010426Y012344D01*
X010365Y012282D01*
X010426Y012221D01*
X010426Y012159D01*
X010365Y012097D01*
X010241Y012097D01*
X010180Y012159D01*
X010058Y012097D02*
X009935Y012221D01*
X010303Y012282D02*
X010365Y012282D01*
X011451Y012229D02*
X011698Y012229D01*
X011819Y012229D02*
X011819Y012599D01*
X012066Y012599D01*
X012188Y012599D02*
X012188Y012229D01*
X012373Y012229D01*
X012435Y012291D01*
X012435Y012538D01*
X012373Y012599D01*
X012188Y012599D01*
X012066Y012229D02*
X011819Y012229D01*
X011819Y012414D02*
X011943Y012414D01*
X011451Y012599D02*
X011451Y012229D01*
X012556Y012229D02*
X012803Y012476D01*
X012803Y012538D01*
X012741Y012599D01*
X012618Y012599D01*
X012556Y012538D01*
X012556Y012229D02*
X012803Y012229D01*
X012014Y010391D02*
X012014Y010021D01*
X012137Y010021D02*
X011890Y010021D01*
X011769Y010082D02*
X011769Y010144D01*
X011707Y010206D01*
X011584Y010206D01*
X011522Y010267D01*
X011522Y010329D01*
X011584Y010391D01*
X011707Y010391D01*
X011769Y010329D01*
X011890Y010267D02*
X012014Y010391D01*
X011769Y010082D02*
X011707Y010021D01*
X011584Y010021D01*
X011522Y010082D01*
X010414Y008988D02*
X010511Y008891D01*
X010511Y008794D01*
X010414Y008698D01*
X010313Y008746D02*
X010313Y008940D01*
X010119Y008746D01*
X010168Y008698D01*
X010264Y008698D01*
X010313Y008746D01*
X010313Y008940D02*
X010264Y008988D01*
X010168Y008988D01*
X010119Y008940D01*
X010119Y008746D01*
X010018Y008698D02*
X010018Y008891D01*
X009921Y008988D01*
X009825Y008891D01*
X009825Y008698D01*
X009725Y008698D02*
X009628Y008794D01*
X009628Y008891D01*
X009725Y008988D01*
X009825Y008843D02*
X010018Y008843D01*
X009507Y008794D02*
X009507Y008891D01*
X009410Y008988D01*
X009507Y008794D02*
X009410Y008698D01*
X009309Y008698D02*
X009115Y008698D01*
X009212Y008698D02*
X009212Y008988D01*
X009115Y008891D01*
X009014Y008891D02*
X009014Y008698D01*
X009014Y008843D02*
X008821Y008843D01*
X008821Y008891D02*
X008821Y008698D01*
X008721Y008698D02*
X008624Y008794D01*
X008624Y008891D01*
X008721Y008988D01*
X008821Y008891D02*
X008917Y008988D01*
X009014Y008891D01*
X008326Y008891D02*
X008326Y008794D01*
X008230Y008698D01*
X008128Y008746D02*
X008128Y008940D01*
X007935Y008746D01*
X007983Y008698D01*
X008080Y008698D01*
X008128Y008746D01*
X007935Y008746D02*
X007935Y008940D01*
X007983Y008988D01*
X008080Y008988D01*
X008128Y008940D01*
X008230Y008988D02*
X008326Y008891D01*
X008280Y009451D02*
X008156Y009451D01*
X008095Y009513D01*
X007973Y009513D02*
X007911Y009451D01*
X007726Y009451D01*
X007726Y009822D01*
X007911Y009822D01*
X007973Y009760D01*
X007973Y009513D01*
X008095Y009760D02*
X008156Y009822D01*
X008280Y009822D01*
X008341Y009760D01*
X008341Y009698D01*
X008280Y009636D01*
X008341Y009575D01*
X008341Y009513D01*
X008280Y009451D01*
X008280Y009636D02*
X008218Y009636D01*
X008280Y010160D02*
X008280Y010530D01*
X008095Y010345D01*
X008341Y010345D01*
X007973Y010222D02*
X007973Y010468D01*
X007911Y010530D01*
X007726Y010530D01*
X007726Y010160D01*
X007911Y010160D01*
X007973Y010222D01*
X007835Y008988D02*
X007738Y008891D01*
X007738Y008794D01*
X007835Y008698D01*
X007342Y008794D02*
X007342Y008891D01*
X007245Y008988D01*
X007342Y008794D02*
X007245Y008698D01*
X007144Y008698D02*
X006951Y008698D01*
X007047Y008698D02*
X007047Y008988D01*
X006951Y008891D01*
X006851Y008988D02*
X006754Y008891D01*
X006754Y008794D01*
X006851Y008698D01*
X006318Y008794D02*
X006318Y008891D01*
X006222Y008988D01*
X006120Y008940D02*
X006072Y008988D01*
X005975Y008988D01*
X005927Y008940D01*
X005827Y008988D02*
X005731Y008891D01*
X005731Y008794D01*
X005827Y008698D01*
X005927Y008698D02*
X006120Y008891D01*
X006120Y008940D01*
X006120Y008698D02*
X005927Y008698D01*
X006222Y008698D02*
X006318Y008794D01*
X005334Y008794D02*
X005334Y008891D01*
X005237Y008988D01*
X005136Y008940D02*
X005136Y008891D01*
X005088Y008843D01*
X005136Y008794D01*
X005136Y008746D01*
X005088Y008698D01*
X004991Y008698D01*
X004943Y008746D01*
X004843Y008698D02*
X004746Y008794D01*
X004746Y008891D01*
X004843Y008988D01*
X004943Y008940D02*
X004991Y008988D01*
X005088Y008988D01*
X005136Y008940D01*
X005088Y008843D02*
X005039Y008843D01*
X005237Y008698D02*
X005334Y008794D01*
X004350Y008794D02*
X004350Y008891D01*
X004253Y008988D01*
X004104Y008988D02*
X004104Y008698D01*
X004253Y008698D02*
X004350Y008794D01*
X004152Y008843D02*
X003958Y008843D01*
X004104Y008988D01*
X003859Y008988D02*
X003762Y008891D01*
X003762Y008794D01*
X003859Y008698D01*
X003147Y008580D02*
X003086Y008580D01*
X002839Y008827D01*
X002777Y008827D01*
X002777Y008580D01*
X002839Y008458D02*
X002962Y008458D01*
X003024Y008397D01*
X003024Y008211D01*
X003147Y008211D02*
X002777Y008211D01*
X002777Y008397D01*
X002839Y008458D01*
X003024Y008335D02*
X003147Y008458D01*
X002276Y008218D02*
X002215Y008280D01*
X002091Y008280D01*
X002030Y008218D01*
X001908Y008218D02*
X001908Y008095D01*
X001846Y008033D01*
X001661Y008033D01*
X001661Y007910D02*
X001661Y008280D01*
X001846Y008280D01*
X001908Y008218D01*
X001785Y008033D02*
X001908Y007910D01*
X002030Y007910D02*
X002276Y008157D01*
X002276Y008218D01*
X002276Y007910D02*
X002030Y007910D01*
X003526Y006436D02*
X003526Y006189D01*
X003588Y006127D01*
X003711Y006127D01*
X003773Y006189D01*
X003894Y006127D02*
X003894Y006498D01*
X004141Y006127D01*
X004141Y006498D01*
X004262Y006312D02*
X004509Y006312D01*
X004448Y006127D02*
X004448Y006498D01*
X004262Y006312D01*
X003773Y006436D02*
X003711Y006498D01*
X003588Y006498D01*
X003526Y006436D01*
X002916Y005234D02*
X002916Y004987D01*
X002916Y004865D02*
X002545Y004865D01*
X002669Y004987D02*
X002545Y005110D01*
X002916Y005110D01*
X002916Y004865D02*
X002545Y004619D01*
X002916Y004619D01*
X002854Y004497D02*
X002916Y004435D01*
X002916Y004312D01*
X002854Y004250D01*
X002607Y004250D01*
X002545Y004312D01*
X002545Y004435D01*
X002607Y004497D01*
X003270Y003399D02*
X003209Y003337D01*
X003209Y003214D01*
X003270Y003152D01*
X003209Y003031D02*
X003579Y003031D01*
X003209Y002784D01*
X003579Y002784D01*
X003517Y002662D02*
X003579Y002601D01*
X003579Y002477D01*
X003517Y002416D01*
X003270Y002416D01*
X003209Y002477D01*
X003209Y002601D01*
X003270Y002662D01*
X003579Y003152D02*
X003332Y003399D01*
X003270Y003399D01*
X003579Y003399D02*
X003579Y003152D01*
X003840Y001975D02*
X003743Y001878D01*
X003743Y001685D01*
X003743Y001830D02*
X003937Y001830D01*
X003937Y001878D02*
X003937Y001685D01*
X004038Y001685D02*
X004135Y001685D01*
X004086Y001685D02*
X004086Y001975D01*
X004038Y001975D02*
X004135Y001975D01*
X004234Y001927D02*
X004234Y001733D01*
X004283Y001685D01*
X004379Y001685D01*
X004428Y001733D01*
X004428Y001927D01*
X004379Y001975D01*
X004283Y001975D01*
X004234Y001927D01*
X003937Y001878D02*
X003840Y001975D01*
X003547Y001601D02*
X003596Y001553D01*
X003402Y001359D01*
X003450Y001311D01*
X003547Y001311D01*
X003596Y001359D01*
X003596Y001553D01*
X003547Y001601D02*
X003450Y001601D01*
X003402Y001553D01*
X003402Y001359D01*
X002888Y001357D02*
X002888Y001551D01*
X002840Y001599D01*
X002695Y001599D01*
X002695Y001309D01*
X002840Y001309D01*
X002888Y001357D01*
X002594Y001309D02*
X002594Y001599D01*
X002400Y001599D02*
X002594Y001309D01*
X002400Y001309D02*
X002400Y001599D01*
X002299Y001551D02*
X002251Y001599D01*
X002154Y001599D01*
X002106Y001551D01*
X002106Y001357D01*
X002154Y001309D01*
X002251Y001309D01*
X002299Y001357D01*
X002299Y001454D01*
X002202Y001454D01*
X005073Y004528D02*
X005011Y004590D01*
X005011Y004713D01*
X005073Y004775D01*
X005011Y004896D02*
X005382Y005143D01*
X005011Y005143D01*
X005073Y005265D02*
X005011Y005326D01*
X005011Y005450D01*
X005073Y005511D01*
X005135Y005511D01*
X005197Y005450D01*
X005258Y005511D01*
X005320Y005511D01*
X005382Y005450D01*
X005382Y005326D01*
X005320Y005265D01*
X005197Y005388D02*
X005197Y005450D01*
X005382Y004896D02*
X005011Y004896D01*
X005073Y004528D02*
X005320Y004528D01*
X005382Y004590D01*
X005382Y004713D01*
X005320Y004775D01*
X006242Y001963D02*
X006194Y001915D01*
X006194Y001866D01*
X006242Y001818D01*
X006339Y001818D01*
X006388Y001770D01*
X006388Y001721D01*
X006339Y001673D01*
X006242Y001673D01*
X006194Y001721D01*
X006242Y001963D02*
X006339Y001963D01*
X006388Y001915D01*
X006489Y001963D02*
X006489Y001673D01*
X006634Y001673D01*
X006682Y001721D01*
X006682Y001915D01*
X006634Y001963D01*
X006489Y001963D01*
X006783Y001866D02*
X006783Y001673D01*
X006783Y001818D02*
X006977Y001818D01*
X006977Y001866D02*
X006977Y001673D01*
X007139Y001741D02*
X007187Y001693D01*
X007284Y001693D01*
X007332Y001741D01*
X007332Y001789D01*
X007284Y001838D01*
X007187Y001838D01*
X007139Y001886D01*
X007139Y001935D01*
X007187Y001983D01*
X007284Y001983D01*
X007332Y001935D01*
X007434Y001935D02*
X007434Y001741D01*
X007482Y001693D01*
X007579Y001693D01*
X007627Y001741D01*
X007728Y001693D02*
X007922Y001693D01*
X007728Y001693D02*
X007728Y001983D01*
X007627Y001935D02*
X007579Y001983D01*
X007482Y001983D01*
X007434Y001935D01*
X007434Y001589D02*
X007627Y001589D01*
X007627Y001541D01*
X007434Y001347D01*
X007434Y001299D01*
X006977Y001866D02*
X006880Y001963D01*
X006783Y001866D01*
X006603Y001589D02*
X006507Y001541D01*
X006410Y001444D01*
X006555Y001444D01*
X006603Y001396D01*
X006603Y001347D01*
X006555Y001299D01*
X006458Y001299D01*
X006410Y001347D01*
X006410Y001444D01*
X005580Y001492D02*
X005580Y001541D01*
X005531Y001589D01*
X005435Y001589D01*
X005386Y001541D01*
X005580Y001492D02*
X005386Y001299D01*
X005580Y001299D01*
X008365Y001357D02*
X008414Y001309D01*
X008510Y001309D01*
X008559Y001357D01*
X008559Y001454D01*
X008462Y001454D01*
X008365Y001551D02*
X008365Y001357D01*
X008365Y001551D02*
X008414Y001599D01*
X008510Y001599D01*
X008559Y001551D01*
X008660Y001599D02*
X008660Y001309D01*
X008853Y001309D02*
X008660Y001599D01*
X008853Y001599D02*
X008853Y001309D01*
X008955Y001309D02*
X009100Y001309D01*
X009148Y001357D01*
X009148Y001551D01*
X009100Y001599D01*
X008955Y001599D01*
X008955Y001309D01*
X009344Y001456D02*
X009537Y001456D01*
X009440Y001553D02*
X009440Y001359D01*
X009638Y001359D02*
X009687Y001311D01*
X009783Y001311D01*
X009832Y001359D01*
X009832Y001407D01*
X009783Y001456D01*
X009735Y001456D01*
X009783Y001456D02*
X009832Y001504D01*
X009832Y001553D01*
X009783Y001601D01*
X009687Y001601D01*
X009638Y001553D01*
X009933Y001601D02*
X009933Y001407D01*
X010030Y001311D01*
X010126Y001407D01*
X010126Y001601D01*
X010312Y001456D02*
X010506Y001456D01*
X010607Y001456D02*
X010704Y001504D01*
X010752Y001504D01*
X010800Y001456D01*
X010800Y001359D01*
X010752Y001311D01*
X010655Y001311D01*
X010607Y001359D01*
X010607Y001456D02*
X010607Y001601D01*
X010800Y001601D01*
X010901Y001601D02*
X010901Y001407D01*
X010998Y001311D01*
X011095Y001407D01*
X011095Y001601D01*
X011267Y001601D02*
X011267Y001407D01*
X011364Y001311D01*
X011461Y001407D01*
X011461Y001601D01*
X011562Y001601D02*
X011707Y001601D01*
X011755Y001553D01*
X011755Y001504D01*
X011707Y001456D01*
X011562Y001456D01*
X011562Y001311D02*
X011562Y001601D01*
X011562Y001311D02*
X011707Y001311D01*
X011755Y001359D01*
X011755Y001407D01*
X011707Y001456D01*
X011857Y001456D02*
X012050Y001456D01*
X012050Y001504D02*
X012050Y001311D01*
X012050Y001504D02*
X011953Y001601D01*
X011857Y001504D01*
X011857Y001311D01*
X012248Y001311D02*
X012248Y001601D01*
X012151Y001601D02*
X012345Y001601D01*
X010409Y001553D02*
X010409Y001359D01*
X008110Y013797D02*
X007863Y013797D01*
X007801Y013859D01*
X007801Y013983D01*
X007863Y014044D01*
X007801Y014166D02*
X008171Y014413D01*
X007801Y014413D01*
X007801Y014534D02*
X007801Y014781D01*
X007863Y014781D01*
X008110Y014534D01*
X008171Y014534D01*
X008171Y014166D02*
X007801Y014166D01*
X008110Y014044D02*
X008171Y013983D01*
X008171Y013859D01*
X008110Y013797D01*
X009772Y015251D02*
X009772Y015621D01*
X009957Y015621D01*
X010019Y015559D01*
X010019Y015436D01*
X009957Y015374D01*
X009772Y015374D01*
X009895Y015374D02*
X010019Y015251D01*
X010140Y015313D02*
X010202Y015251D01*
X010325Y015251D01*
X010387Y015313D01*
X010387Y015436D01*
X010325Y015498D01*
X010264Y015498D01*
X010140Y015436D01*
X010140Y015621D01*
X010387Y015621D01*
X010325Y016822D02*
X010202Y016822D01*
X010140Y016883D01*
X010140Y017007D01*
X010325Y017007D01*
X010387Y016945D01*
X010387Y016883D01*
X010325Y016822D01*
X010140Y017007D02*
X010264Y017130D01*
X010387Y017192D01*
X010019Y017130D02*
X010019Y017007D01*
X009957Y016945D01*
X009772Y016945D01*
X009772Y016822D02*
X009772Y017192D01*
X009957Y017192D01*
X010019Y017130D01*
X009895Y016945D02*
X010019Y016822D01*
X002055Y010438D02*
X001808Y010438D01*
X001931Y010438D02*
X001931Y010808D01*
X001808Y010685D01*
X001686Y010746D02*
X001686Y010500D01*
X001625Y010438D01*
X001440Y010438D01*
X001440Y010808D01*
X001625Y010808D01*
X001686Y010746D01*
X001318Y010808D02*
X001071Y010808D01*
X001071Y010438D01*
X001318Y010438D01*
X001195Y010623D02*
X001071Y010623D01*
X000950Y010438D02*
X000703Y010438D01*
X000703Y010808D01*
D12*
X003245Y019450D02*
X003245Y019618D01*
X003245Y019450D02*
X008806Y019450D01*
X008806Y019618D01*
X009200Y019647D02*
X009200Y019450D01*
X011857Y019450D01*
X011857Y019647D01*
X011857Y020031D02*
X011857Y020208D01*
X009200Y020208D01*
X009200Y020041D01*
X008806Y020061D02*
X008806Y020208D01*
X003245Y020208D01*
X003245Y020061D01*
X010617Y009746D02*
X010617Y007580D01*
X011444Y007443D02*
X012231Y007443D01*
X011149Y008663D02*
X011151Y008715D01*
X011157Y008767D01*
X011167Y008818D01*
X011180Y008868D01*
X011198Y008918D01*
X011219Y008965D01*
X011243Y009011D01*
X011272Y009055D01*
X011303Y009097D01*
X011337Y009136D01*
X011374Y009173D01*
X011414Y009206D01*
X011457Y009237D01*
X011501Y009264D01*
X011547Y009288D01*
X011596Y009308D01*
X011645Y009324D01*
X011696Y009337D01*
X011747Y009346D01*
X011799Y009351D01*
X011851Y009352D01*
X011903Y009349D01*
X011955Y009342D01*
X012006Y009331D01*
X012056Y009317D01*
X012105Y009298D01*
X012152Y009276D01*
X012197Y009251D01*
X012241Y009222D01*
X012282Y009190D01*
X012321Y009155D01*
X012356Y009117D01*
X012389Y009076D01*
X012419Y009034D01*
X012445Y008989D01*
X012468Y008942D01*
X012487Y008893D01*
X012503Y008843D01*
X012515Y008793D01*
X012523Y008741D01*
X012527Y008689D01*
X012527Y008637D01*
X012523Y008585D01*
X012515Y008533D01*
X012503Y008483D01*
X012487Y008433D01*
X012468Y008384D01*
X012445Y008337D01*
X012419Y008292D01*
X012389Y008250D01*
X012356Y008209D01*
X012321Y008171D01*
X012282Y008136D01*
X012241Y008104D01*
X012197Y008075D01*
X012152Y008050D01*
X012105Y008028D01*
X012056Y008009D01*
X012006Y007995D01*
X011955Y007984D01*
X011903Y007977D01*
X011851Y007974D01*
X011799Y007975D01*
X011747Y007980D01*
X011696Y007989D01*
X011645Y008002D01*
X011596Y008018D01*
X011547Y008038D01*
X011501Y008062D01*
X011457Y008089D01*
X011414Y008120D01*
X011374Y008153D01*
X011337Y008190D01*
X011303Y008229D01*
X011272Y008271D01*
X011243Y008315D01*
X011219Y008361D01*
X011198Y008408D01*
X011180Y008458D01*
X011167Y008508D01*
X011157Y008559D01*
X011151Y008611D01*
X011149Y008663D01*
X011444Y009883D02*
X012231Y009883D01*
X013058Y009746D02*
X013058Y007580D01*
X007851Y001193D02*
X007851Y000996D01*
X007851Y001193D02*
X006178Y001193D01*
X006178Y000996D01*
X006178Y000651D02*
X006178Y000454D01*
X007851Y000454D01*
X007851Y000651D01*
X005834Y000651D02*
X005834Y000454D01*
X003176Y000454D01*
X003176Y000651D01*
X003176Y000996D02*
X003176Y001193D01*
X005834Y001193D01*
X005834Y000996D01*
D13*
X012157Y011444D03*
X012157Y011985D03*
X012157Y013018D03*
X012157Y013560D03*
X012157Y014593D03*
X012157Y015134D03*
X012157Y016168D03*
X012157Y016709D03*
D14*
X012005Y016439D03*
X012005Y014864D03*
X012005Y013289D03*
X012005Y011714D03*
X001109Y009322D03*
D15*
X000538Y007580D02*
X000125Y007580D01*
X000125Y004824D01*
X000538Y004824D01*
X000538Y007580D01*
X002271Y007580D01*
X002271Y004824D01*
X000538Y004824D01*
X000135Y004037D02*
X002595Y004037D01*
X002595Y001714D01*
X000135Y001714D01*
X000135Y004037D01*
X002595Y004037D02*
X003127Y004037D01*
X003127Y001714D01*
X002595Y001714D01*
X005476Y002147D02*
X013350Y002147D01*
X013350Y006320D01*
X005476Y006320D01*
X005476Y005218D01*
X005657Y005218D02*
X005657Y005533D01*
X006870Y005533D01*
X006870Y005218D01*
X006612Y005335D02*
X006614Y005350D01*
X006620Y005365D01*
X006629Y005377D01*
X006641Y005387D01*
X006655Y005394D01*
X006670Y005397D01*
X006686Y005396D01*
X006700Y005391D01*
X006714Y005383D01*
X006724Y005371D01*
X006732Y005358D01*
X006736Y005343D01*
X006736Y005327D01*
X006732Y005312D01*
X006724Y005299D01*
X006714Y005287D01*
X006700Y005279D01*
X006686Y005274D01*
X006670Y005273D01*
X006655Y005276D01*
X006641Y005283D01*
X006629Y005293D01*
X006620Y005305D01*
X006614Y005320D01*
X006612Y005335D01*
X006559Y005021D02*
X005968Y005021D01*
X005968Y003446D01*
X006559Y003446D01*
X006559Y005021D01*
X006870Y003250D02*
X006870Y002935D01*
X005657Y002935D01*
X005657Y003250D01*
X005476Y003250D02*
X005476Y002147D01*
X008708Y009352D02*
X008708Y009982D01*
X009436Y009982D01*
X009436Y009352D01*
X008708Y009352D01*
X008708Y010139D02*
X008708Y010769D01*
X009436Y010769D01*
X009436Y010139D01*
X008708Y010139D01*
X009436Y010139D02*
X009731Y010139D01*
X009731Y010769D01*
X009436Y010769D01*
X009436Y009982D02*
X009731Y009982D01*
X009731Y009352D01*
X009436Y009352D01*
D16*
X009281Y008580D02*
X009531Y008330D01*
X009531Y006830D01*
X009781Y006580D01*
X010281Y006580D01*
X010531Y006830D01*
X010531Y008330D01*
X010281Y008580D01*
X009781Y008580D01*
X009531Y008330D01*
X009281Y008580D02*
X008781Y008580D01*
X008531Y008330D01*
X008531Y006830D01*
X008781Y006580D01*
X009281Y006580D01*
X009531Y006830D01*
X008531Y006830D02*
X008281Y006580D01*
X007781Y006580D01*
X007531Y006830D01*
X007531Y008330D01*
X007781Y008580D01*
X008281Y008580D01*
X008531Y008330D01*
X007531Y008330D02*
X007281Y008580D01*
X006781Y008580D01*
X006531Y008330D01*
X006531Y006830D01*
X006781Y006580D01*
X007281Y006580D01*
X007531Y006830D01*
X006531Y006830D02*
X006281Y006580D01*
X005781Y006580D01*
X005531Y006830D01*
X005531Y008330D01*
X005781Y008580D01*
X006281Y008580D01*
X006531Y008330D01*
X005531Y008330D02*
X005281Y008580D01*
X004781Y008580D01*
X004531Y008330D01*
X004531Y006830D01*
X004781Y006580D01*
X005281Y006580D01*
X005531Y006830D01*
X004531Y006830D02*
X004281Y006580D01*
X003781Y006580D01*
X003531Y006830D01*
X003531Y008330D01*
X003781Y008580D01*
X004281Y008580D01*
X004531Y008330D01*
X004067Y005179D02*
X003467Y005179D01*
X003450Y005177D01*
X003433Y005173D01*
X003417Y005166D01*
X003403Y005156D01*
X003390Y005143D01*
X003380Y005129D01*
X003373Y005113D01*
X003369Y005096D01*
X003367Y005079D01*
X003367Y003979D01*
X003369Y003962D01*
X003373Y003945D01*
X003380Y003929D01*
X003390Y003915D01*
X003403Y003902D01*
X003417Y003892D01*
X003433Y003885D01*
X003450Y003881D01*
X003467Y003879D01*
X004067Y003879D01*
X004084Y003881D01*
X004101Y003885D01*
X004117Y003892D01*
X004131Y003902D01*
X004144Y003915D01*
X004154Y003929D01*
X004161Y003945D01*
X004165Y003962D01*
X004167Y003979D01*
X004167Y005079D01*
X004165Y005096D01*
X004161Y005113D01*
X004154Y005129D01*
X004144Y005143D01*
X004131Y005156D01*
X004117Y005166D01*
X004101Y005173D01*
X004084Y005177D01*
X004067Y005179D01*
D17*
X012215Y002064D02*
X012215Y001824D01*
X012275Y001764D01*
X012395Y001764D01*
X012455Y001824D01*
X012584Y001764D02*
X012584Y002124D01*
X012824Y001764D01*
X012824Y002124D01*
X012952Y001944D02*
X013132Y001944D01*
X013192Y001884D01*
X013192Y001824D01*
X013132Y001764D01*
X013012Y001764D01*
X012952Y001824D01*
X012952Y001944D01*
X013072Y002064D01*
X013192Y002124D01*
X012455Y002064D02*
X012395Y002124D01*
X012275Y002124D01*
X012215Y002064D01*
X001824Y018427D02*
X001703Y018427D01*
X001643Y018487D01*
X001643Y018607D02*
X001764Y018667D01*
X001824Y018667D01*
X001884Y018607D01*
X001884Y018487D01*
X001824Y018427D01*
X001643Y018607D02*
X001643Y018787D01*
X001884Y018787D01*
X001515Y018787D02*
X001515Y018427D01*
X001275Y018787D01*
X001275Y018427D01*
X001147Y018487D02*
X001087Y018427D01*
X000967Y018427D01*
X000907Y018487D01*
X000907Y018727D01*
X000967Y018787D01*
X001087Y018787D01*
X001147Y018727D01*
D18*
X001380Y009475D03*
X000839Y009475D03*
D19*
X002221Y011220D02*
X002140Y011342D01*
X002058Y011463D01*
X001896Y011707D01*
X001815Y011829D01*
X001734Y011951D01*
X001653Y012072D01*
X001708Y012156D02*
X001759Y012241D01*
X001808Y012327D01*
X001856Y012413D01*
X001901Y012501D01*
X001943Y012590D01*
X001984Y012679D01*
X002022Y012769D01*
X002091Y012951D01*
X002122Y013043D01*
X002150Y013135D01*
X002178Y013228D01*
X002202Y013322D01*
X002222Y013416D01*
X002243Y013510D01*
X002260Y013605D01*
X002288Y013795D01*
X002298Y013890D01*
X002305Y013986D01*
X002312Y014081D01*
X002316Y014177D01*
X002316Y014369D01*
X002312Y014465D01*
X002305Y014561D01*
X002298Y014656D01*
X002288Y014752D01*
X002260Y014942D01*
X002243Y015037D01*
X002222Y015131D01*
X002202Y015225D01*
X002178Y015318D01*
X002150Y015411D01*
X002122Y015504D01*
X002091Y015596D01*
X002057Y015687D01*
X002022Y015778D01*
X001984Y015868D01*
X001943Y015957D01*
X001901Y016045D01*
X001856Y016133D01*
X001808Y016219D01*
X001759Y016306D01*
X001708Y016391D01*
X001653Y016474D01*
X001734Y016596D02*
X001815Y016718D01*
X001896Y016839D01*
X002058Y017083D01*
X002140Y017205D01*
X002221Y017327D01*
X002302Y017448D01*
X002383Y017570D01*
X002465Y017692D01*
X002546Y017814D01*
X002627Y017936D01*
X002708Y018057D01*
X002789Y018179D01*
X002871Y018301D01*
X002952Y018423D01*
X002980Y018423D02*
X006554Y018423D01*
X006623Y018348D02*
X006691Y018273D01*
X006760Y018198D01*
X006829Y018123D01*
X006897Y018048D01*
X006966Y017973D01*
X007035Y017897D01*
X007103Y017822D01*
X007172Y017747D01*
X007241Y017672D01*
X007309Y017597D01*
X007378Y017522D01*
X007447Y017447D01*
X007515Y017372D01*
X007584Y017297D01*
X007653Y017222D01*
X007653Y011324D01*
X007584Y011249D02*
X007515Y011174D01*
X007447Y011099D01*
X007378Y011024D01*
X007309Y010949D01*
X007241Y010874D01*
X007172Y010799D01*
X007103Y010724D01*
X007035Y010649D01*
X006966Y010574D01*
X006897Y010499D01*
X006829Y010424D01*
X006760Y010349D01*
X006691Y010274D01*
X006623Y010199D01*
X006554Y010124D01*
X006526Y010124D02*
X002952Y010124D01*
X002871Y010245D02*
X002789Y010367D01*
X002708Y010489D01*
X002627Y010611D01*
X002546Y010733D01*
X002465Y010854D01*
X002383Y010976D01*
X002302Y011098D01*
X002221Y011220D01*
X004793Y011842D02*
X004801Y011811D01*
X004811Y011780D01*
X004820Y011749D01*
X004832Y011719D01*
X004844Y011689D01*
X004857Y011660D01*
X004870Y011631D01*
X004885Y011603D01*
X004900Y011575D01*
X004917Y011548D01*
X004935Y011522D01*
X004952Y011496D01*
X004971Y011470D01*
X005011Y011422D01*
X005033Y011399D01*
X005077Y011354D01*
X005100Y011333D01*
X005125Y011313D01*
X005149Y011293D01*
X005174Y011274D01*
X005201Y011256D01*
X005227Y011239D01*
X005254Y011222D01*
X005282Y011207D01*
X005310Y011192D01*
X005338Y011178D01*
X005368Y011165D01*
X005397Y011153D01*
X005427Y011142D01*
X005458Y011132D01*
X005489Y011123D01*
X005521Y011115D01*
X005585Y011102D01*
X005617Y011097D01*
X005650Y011093D01*
X005683Y011090D01*
X005717Y011088D01*
X005785Y011088D01*
X005818Y011090D01*
X005852Y011093D01*
X005885Y011097D01*
X005917Y011102D01*
X005949Y011108D01*
X005981Y011115D01*
X006013Y011123D01*
X006044Y011132D01*
X006074Y011142D01*
X006105Y011153D01*
X006134Y011165D01*
X006164Y011178D01*
X006192Y011192D01*
X006220Y011207D01*
X006248Y011222D01*
X006275Y011239D01*
X006301Y011256D01*
X006327Y011274D01*
X006353Y011293D01*
X006377Y011313D01*
X006401Y011333D01*
X006424Y011354D01*
X006447Y011376D01*
X006469Y011399D01*
X006490Y011422D01*
X006531Y011470D01*
X006549Y011496D01*
X006585Y011548D01*
X006601Y011575D01*
X006616Y011603D01*
X006631Y011631D01*
X006645Y011660D01*
X006658Y011689D01*
X006670Y011719D01*
X006681Y011749D01*
X006691Y011780D01*
X006700Y011811D01*
X006708Y011842D01*
X006722Y011906D01*
X006727Y011939D01*
X006733Y012005D01*
X006735Y012039D01*
X006735Y012106D01*
X006733Y012140D01*
X006730Y012173D01*
X006727Y012206D01*
X006722Y012239D01*
X006715Y012271D01*
X006708Y012303D01*
X006700Y012334D01*
X006691Y012365D01*
X006681Y012396D01*
X006670Y012426D01*
X006658Y012456D01*
X006645Y012485D01*
X006631Y012514D01*
X006616Y012542D01*
X006601Y012570D01*
X006585Y012597D01*
X006567Y012623D01*
X006549Y012649D01*
X006531Y012674D01*
X006510Y012699D01*
X006490Y012723D01*
X006469Y012746D01*
X006447Y012769D01*
X006424Y012791D01*
X006401Y012812D01*
X006377Y012832D01*
X006353Y012852D01*
X006327Y012871D01*
X006275Y012906D01*
X006248Y012923D01*
X006220Y012938D01*
X006192Y012953D01*
X006164Y012967D01*
X006134Y012979D01*
X006105Y012992D01*
X006074Y013003D01*
X006044Y013013D01*
X006013Y013022D01*
X005981Y013030D01*
X005949Y013037D01*
X005917Y013043D01*
X005885Y013048D01*
X005852Y013052D01*
X005818Y013055D01*
X005785Y013057D01*
X005717Y013057D01*
X005683Y013055D01*
X005650Y013052D01*
X005617Y013048D01*
X005585Y013043D01*
X005521Y013030D01*
X005489Y013022D01*
X005458Y013013D01*
X005427Y013003D01*
X005397Y012992D01*
X005368Y012979D01*
X005338Y012967D01*
X005310Y012953D01*
X005282Y012938D01*
X005254Y012923D01*
X005227Y012906D01*
X005201Y012889D01*
X005174Y012871D01*
X005149Y012852D01*
X005125Y012832D01*
X005100Y012812D01*
X005077Y012791D01*
X005033Y012746D01*
X005011Y012723D01*
X004991Y012699D01*
X004971Y012674D01*
X004952Y012649D01*
X004935Y012623D01*
X004917Y012597D01*
X004900Y012570D01*
X004885Y012542D01*
X004870Y012514D01*
X004857Y012485D01*
X004832Y012426D01*
X004820Y012396D01*
X004811Y012365D01*
X004801Y012334D01*
X004793Y012303D01*
X004787Y012271D01*
X004780Y012239D01*
X004775Y012206D01*
X004772Y012173D01*
X004768Y012140D01*
X004767Y012106D01*
X004767Y012039D01*
X004768Y012005D01*
X004775Y011939D01*
X004780Y011906D01*
X004793Y011842D01*
X005553Y015510D02*
X005585Y015503D01*
X005617Y015498D01*
X005650Y015495D01*
X005683Y015491D01*
X005717Y015490D01*
X005785Y015490D01*
X005818Y015491D01*
X005852Y015495D01*
X005885Y015498D01*
X005917Y015503D01*
X005949Y015510D01*
X005981Y015516D01*
X006013Y015524D01*
X006044Y015534D01*
X006074Y015544D01*
X006105Y015555D01*
X006134Y015567D01*
X006164Y015580D01*
X006192Y015593D01*
X006220Y015609D01*
X006248Y015624D01*
X006275Y015640D01*
X006327Y015676D01*
X006353Y015694D01*
X006377Y015715D01*
X006401Y015735D01*
X006424Y015756D01*
X006447Y015778D01*
X006469Y015800D01*
X006490Y015824D01*
X006510Y015848D01*
X006531Y015872D01*
X006549Y015898D01*
X006585Y015950D01*
X006601Y015977D01*
X006616Y016005D01*
X006631Y016033D01*
X006645Y016061D01*
X006658Y016091D01*
X006670Y016120D01*
X006681Y016151D01*
X006691Y016181D01*
X006700Y016212D01*
X006708Y016244D01*
X006715Y016276D01*
X006722Y016308D01*
X006727Y016340D01*
X006730Y016373D01*
X006733Y016406D01*
X006735Y016440D01*
X006735Y016508D01*
X006733Y016542D01*
X006727Y016608D01*
X006722Y016640D01*
X006715Y016672D01*
X006708Y016704D01*
X006700Y016736D01*
X006691Y016767D01*
X006681Y016798D01*
X006670Y016828D01*
X006658Y016857D01*
X006645Y016887D01*
X006631Y016915D01*
X006616Y016943D01*
X006601Y016971D01*
X006585Y016998D01*
X006549Y017050D01*
X006531Y017076D01*
X006510Y017100D01*
X006490Y017124D01*
X006469Y017148D01*
X006447Y017170D01*
X006424Y017192D01*
X006401Y017213D01*
X006377Y017233D01*
X006353Y017254D01*
X006327Y017272D01*
X006275Y017308D01*
X006248Y017324D01*
X006220Y017339D01*
X006192Y017355D01*
X006164Y017368D01*
X006134Y017381D01*
X006105Y017393D01*
X006074Y017404D01*
X006044Y017414D01*
X006013Y017424D01*
X005981Y017432D01*
X005949Y017438D01*
X005917Y017445D01*
X005885Y017450D01*
X005852Y017453D01*
X005818Y017457D01*
X005785Y017458D01*
X005717Y017458D01*
X005683Y017457D01*
X005650Y017453D01*
X005617Y017450D01*
X005585Y017445D01*
X005553Y017438D01*
X005521Y017432D01*
X005489Y017424D01*
X005458Y017414D01*
X005427Y017404D01*
X005397Y017393D01*
X005368Y017381D01*
X005338Y017368D01*
X005310Y017355D01*
X005282Y017339D01*
X005254Y017324D01*
X005227Y017308D01*
X005201Y017290D01*
X005174Y017272D01*
X005149Y017254D01*
X005125Y017233D01*
X005100Y017213D01*
X005077Y017192D01*
X005033Y017148D01*
X005011Y017124D01*
X004991Y017100D01*
X004971Y017076D01*
X004952Y017050D01*
X004935Y017024D01*
X004917Y016998D01*
X004900Y016971D01*
X004885Y016943D01*
X004870Y016915D01*
X004857Y016887D01*
X004844Y016857D01*
X004832Y016828D01*
X004820Y016798D01*
X004811Y016767D01*
X004801Y016736D01*
X004793Y016704D01*
X004787Y016672D01*
X004780Y016640D01*
X004775Y016608D01*
X004768Y016542D01*
X004767Y016508D01*
X004767Y016440D01*
X004768Y016406D01*
X004772Y016373D01*
X004775Y016340D01*
X004780Y016308D01*
X004787Y016276D01*
X004793Y016244D01*
X004801Y016212D01*
X004811Y016181D01*
X004820Y016151D01*
X004832Y016120D01*
X004844Y016091D01*
X004857Y016061D01*
X004870Y016033D01*
X004900Y015977D01*
X004917Y015950D01*
X004935Y015924D01*
X004952Y015898D01*
X004971Y015872D01*
X004991Y015848D01*
X005011Y015824D01*
X005033Y015800D01*
X005077Y015756D01*
X005100Y015735D01*
X005125Y015715D01*
X005149Y015694D01*
X005174Y015676D01*
X005201Y015658D01*
X005227Y015640D01*
X005254Y015624D01*
X005282Y015609D01*
X005310Y015593D01*
X005338Y015580D01*
X005368Y015567D01*
X005397Y015555D01*
X005427Y015544D01*
X005458Y015534D01*
X005489Y015524D01*
X005521Y015516D01*
X005553Y015510D01*
M02*
