G75*
G70*
%OFA0B0*%
%FSLAX24Y24*%
%IPPOS*%
%LPD*%
%AMOC8*
5,1,8,0,0,1.08239X$1,22.5*
%
%ADD10C,0.0000*%
%ADD11R,0.0787X0.0787*%
%ADD12R,0.0591X0.0591*%
%ADD13R,0.0394X0.0433*%
%ADD14R,0.0512X0.0610*%
%ADD15R,0.0531X0.0157*%
%ADD16R,0.0630X0.0827*%
%ADD17R,0.0748X0.0837*%
%ADD18R,0.0709X0.0748*%
%ADD19R,0.0276X0.0079*%
%ADD20OC8,0.0660*%
%ADD21C,0.0600*%
%ADD22C,0.0660*%
%ADD23R,0.0630X0.0460*%
%ADD24C,0.0120*%
%ADD25R,0.0433X0.0394*%
%ADD26R,0.0866X0.0551*%
%ADD27R,0.0354X0.0551*%
%ADD28R,0.1575X0.1575*%
%ADD29C,0.1181*%
%ADD30C,0.0080*%
%ADD31C,0.0277*%
%ADD32C,0.0079*%
%ADD33C,0.0160*%
%ADD34C,0.0356*%
%ADD35C,0.0320*%
%ADD36C,0.0315*%
D10*
X000519Y000100D02*
X000519Y020572D01*
X013511Y020572D01*
X013511Y000100D01*
X000519Y000100D01*
X000873Y000887D02*
X000875Y000928D01*
X000881Y000969D01*
X000891Y001009D01*
X000904Y001048D01*
X000921Y001085D01*
X000942Y001121D01*
X000966Y001155D01*
X000993Y001186D01*
X001022Y001214D01*
X001055Y001240D01*
X001089Y001262D01*
X001126Y001281D01*
X001164Y001296D01*
X001204Y001308D01*
X001244Y001316D01*
X001285Y001320D01*
X001327Y001320D01*
X001368Y001316D01*
X001408Y001308D01*
X001448Y001296D01*
X001486Y001281D01*
X001522Y001262D01*
X001557Y001240D01*
X001590Y001214D01*
X001619Y001186D01*
X001646Y001155D01*
X001670Y001121D01*
X001691Y001085D01*
X001708Y001048D01*
X001721Y001009D01*
X001731Y000969D01*
X001737Y000928D01*
X001739Y000887D01*
X001737Y000846D01*
X001731Y000805D01*
X001721Y000765D01*
X001708Y000726D01*
X001691Y000689D01*
X001670Y000653D01*
X001646Y000619D01*
X001619Y000588D01*
X001590Y000560D01*
X001557Y000534D01*
X001523Y000512D01*
X001486Y000493D01*
X001448Y000478D01*
X001408Y000466D01*
X001368Y000458D01*
X001327Y000454D01*
X001285Y000454D01*
X001244Y000458D01*
X001204Y000466D01*
X001164Y000478D01*
X001126Y000493D01*
X001090Y000512D01*
X001055Y000534D01*
X001022Y000560D01*
X000993Y000588D01*
X000966Y000619D01*
X000942Y000653D01*
X000921Y000689D01*
X000904Y000726D01*
X000891Y000765D01*
X000881Y000805D01*
X000875Y000846D01*
X000873Y000887D01*
X012290Y000887D02*
X012292Y000928D01*
X012298Y000969D01*
X012308Y001009D01*
X012321Y001048D01*
X012338Y001085D01*
X012359Y001121D01*
X012383Y001155D01*
X012410Y001186D01*
X012439Y001214D01*
X012472Y001240D01*
X012506Y001262D01*
X012543Y001281D01*
X012581Y001296D01*
X012621Y001308D01*
X012661Y001316D01*
X012702Y001320D01*
X012744Y001320D01*
X012785Y001316D01*
X012825Y001308D01*
X012865Y001296D01*
X012903Y001281D01*
X012939Y001262D01*
X012974Y001240D01*
X013007Y001214D01*
X013036Y001186D01*
X013063Y001155D01*
X013087Y001121D01*
X013108Y001085D01*
X013125Y001048D01*
X013138Y001009D01*
X013148Y000969D01*
X013154Y000928D01*
X013156Y000887D01*
X013154Y000846D01*
X013148Y000805D01*
X013138Y000765D01*
X013125Y000726D01*
X013108Y000689D01*
X013087Y000653D01*
X013063Y000619D01*
X013036Y000588D01*
X013007Y000560D01*
X012974Y000534D01*
X012940Y000512D01*
X012903Y000493D01*
X012865Y000478D01*
X012825Y000466D01*
X012785Y000458D01*
X012744Y000454D01*
X012702Y000454D01*
X012661Y000458D01*
X012621Y000466D01*
X012581Y000478D01*
X012543Y000493D01*
X012507Y000512D01*
X012472Y000534D01*
X012439Y000560D01*
X012410Y000588D01*
X012383Y000619D01*
X012359Y000653D01*
X012338Y000689D01*
X012321Y000726D01*
X012308Y000765D01*
X012298Y000805D01*
X012292Y000846D01*
X012290Y000887D01*
X012290Y019785D02*
X012292Y019826D01*
X012298Y019867D01*
X012308Y019907D01*
X012321Y019946D01*
X012338Y019983D01*
X012359Y020019D01*
X012383Y020053D01*
X012410Y020084D01*
X012439Y020112D01*
X012472Y020138D01*
X012506Y020160D01*
X012543Y020179D01*
X012581Y020194D01*
X012621Y020206D01*
X012661Y020214D01*
X012702Y020218D01*
X012744Y020218D01*
X012785Y020214D01*
X012825Y020206D01*
X012865Y020194D01*
X012903Y020179D01*
X012939Y020160D01*
X012974Y020138D01*
X013007Y020112D01*
X013036Y020084D01*
X013063Y020053D01*
X013087Y020019D01*
X013108Y019983D01*
X013125Y019946D01*
X013138Y019907D01*
X013148Y019867D01*
X013154Y019826D01*
X013156Y019785D01*
X013154Y019744D01*
X013148Y019703D01*
X013138Y019663D01*
X013125Y019624D01*
X013108Y019587D01*
X013087Y019551D01*
X013063Y019517D01*
X013036Y019486D01*
X013007Y019458D01*
X012974Y019432D01*
X012940Y019410D01*
X012903Y019391D01*
X012865Y019376D01*
X012825Y019364D01*
X012785Y019356D01*
X012744Y019352D01*
X012702Y019352D01*
X012661Y019356D01*
X012621Y019364D01*
X012581Y019376D01*
X012543Y019391D01*
X012507Y019410D01*
X012472Y019432D01*
X012439Y019458D01*
X012410Y019486D01*
X012383Y019517D01*
X012359Y019551D01*
X012338Y019587D01*
X012321Y019624D01*
X012308Y019663D01*
X012298Y019703D01*
X012292Y019744D01*
X012290Y019785D01*
X000873Y019785D02*
X000875Y019826D01*
X000881Y019867D01*
X000891Y019907D01*
X000904Y019946D01*
X000921Y019983D01*
X000942Y020019D01*
X000966Y020053D01*
X000993Y020084D01*
X001022Y020112D01*
X001055Y020138D01*
X001089Y020160D01*
X001126Y020179D01*
X001164Y020194D01*
X001204Y020206D01*
X001244Y020214D01*
X001285Y020218D01*
X001327Y020218D01*
X001368Y020214D01*
X001408Y020206D01*
X001448Y020194D01*
X001486Y020179D01*
X001522Y020160D01*
X001557Y020138D01*
X001590Y020112D01*
X001619Y020084D01*
X001646Y020053D01*
X001670Y020019D01*
X001691Y019983D01*
X001708Y019946D01*
X001721Y019907D01*
X001731Y019867D01*
X001737Y019826D01*
X001739Y019785D01*
X001737Y019744D01*
X001731Y019703D01*
X001721Y019663D01*
X001708Y019624D01*
X001691Y019587D01*
X001670Y019551D01*
X001646Y019517D01*
X001619Y019486D01*
X001590Y019458D01*
X001557Y019432D01*
X001523Y019410D01*
X001486Y019391D01*
X001448Y019376D01*
X001408Y019364D01*
X001368Y019356D01*
X001327Y019352D01*
X001285Y019352D01*
X001244Y019356D01*
X001204Y019364D01*
X001164Y019376D01*
X001126Y019391D01*
X001090Y019410D01*
X001055Y019432D01*
X001022Y019458D01*
X000993Y019486D01*
X000966Y019517D01*
X000942Y019551D01*
X000921Y019587D01*
X000904Y019624D01*
X000891Y019663D01*
X000881Y019703D01*
X000875Y019744D01*
X000873Y019785D01*
D11*
X001306Y003053D03*
X012723Y018407D03*
D12*
X012625Y016439D03*
X012625Y014864D03*
X012625Y013289D03*
X012625Y011714D03*
X011247Y011714D03*
X011247Y013289D03*
X011247Y014864D03*
X011247Y016439D03*
X001109Y009943D03*
X001109Y008565D03*
D13*
X001857Y008584D03*
X002527Y008584D03*
X009830Y011714D03*
X010499Y011714D03*
X010499Y013289D03*
X009830Y013289D03*
X009830Y014868D03*
X010499Y014868D03*
X010499Y016439D03*
X009830Y016439D03*
D14*
X010952Y010228D03*
X012723Y010228D03*
X012723Y007098D03*
X010952Y007098D03*
D15*
X002162Y006714D03*
X002162Y006458D03*
X002162Y006202D03*
X002162Y005946D03*
X002162Y005691D03*
D16*
X002113Y004982D03*
X002113Y007423D03*
D17*
X001109Y006719D03*
X001109Y005686D03*
D18*
X001109Y004637D03*
X001109Y007767D03*
D19*
X005657Y004943D03*
X005657Y004785D03*
X005657Y004628D03*
X005657Y004470D03*
X005657Y004313D03*
X005657Y004155D03*
X005657Y003998D03*
X005657Y003840D03*
X005657Y003683D03*
X005657Y003525D03*
X006870Y003525D03*
X006870Y003683D03*
X006870Y003840D03*
X006870Y003998D03*
X006870Y004155D03*
X006870Y004313D03*
X006870Y004470D03*
X006870Y004628D03*
X006870Y004785D03*
X006870Y004943D03*
D20*
X007031Y007080D03*
X007031Y008080D03*
X006031Y008080D03*
X006031Y007080D03*
X005031Y007080D03*
X005031Y008080D03*
X004031Y008080D03*
X004031Y007080D03*
X008031Y007080D03*
X008031Y008080D03*
X009031Y008080D03*
X009031Y007080D03*
X010031Y007080D03*
X010031Y008080D03*
D21*
X010515Y000836D03*
X011515Y000836D03*
X009515Y000836D03*
X008515Y000836D03*
X007515Y000836D03*
X006515Y000836D03*
X005515Y000836D03*
X004515Y000836D03*
X003515Y000836D03*
X002515Y000836D03*
X002515Y019836D03*
X003515Y019836D03*
X004515Y019836D03*
X005515Y019836D03*
X006515Y019836D03*
X007515Y019836D03*
X008515Y019836D03*
X009515Y019836D03*
X010515Y019836D03*
X011515Y019836D03*
D22*
X002595Y003269D03*
X002595Y002482D03*
D23*
X003767Y004229D03*
X003767Y004829D03*
D24*
X003767Y004779D02*
X003767Y004279D01*
X003547Y004284D02*
X003547Y004188D01*
X003561Y004174D01*
X003292Y004174D01*
X003292Y003978D01*
X003303Y003937D01*
X003324Y003901D01*
X003353Y003871D01*
X003390Y003850D01*
X003431Y003839D01*
X003712Y003839D01*
X003712Y004059D01*
X003822Y004059D01*
X003822Y003839D01*
X004103Y003839D01*
X004143Y003850D01*
X004180Y003871D01*
X004210Y003901D01*
X004231Y003937D01*
X004242Y003978D01*
X004242Y004081D01*
X004281Y003986D01*
X004335Y003932D01*
X004335Y003836D01*
X004729Y003443D01*
X004729Y002781D01*
X003315Y001368D01*
X003315Y001252D01*
X003254Y001226D01*
X003125Y001097D01*
X003055Y000928D01*
X003055Y000745D01*
X003125Y000576D01*
X003254Y000446D01*
X003423Y000376D01*
X003606Y000376D01*
X003775Y000446D01*
X003905Y000576D01*
X003975Y000745D01*
X003975Y000928D01*
X003905Y001097D01*
X003775Y001226D01*
X003749Y001237D01*
X004413Y001902D01*
X004464Y001779D01*
X004559Y001683D01*
X004684Y001632D01*
X004818Y001632D01*
X004943Y001683D01*
X005038Y001779D01*
X005089Y001903D01*
X005089Y002025D01*
X005345Y002281D01*
X005345Y003430D01*
X005363Y003449D01*
X005370Y003424D01*
X005391Y003388D01*
X005421Y003358D01*
X005457Y003337D01*
X005498Y003326D01*
X005657Y003326D01*
X005811Y003326D01*
X005811Y002387D01*
X004687Y001263D01*
X004606Y001296D01*
X004423Y001296D01*
X004254Y001226D01*
X004125Y001097D01*
X004055Y000928D01*
X004055Y000745D01*
X004125Y000576D01*
X004254Y000446D01*
X004423Y000376D01*
X004606Y000376D01*
X004775Y000446D01*
X004905Y000576D01*
X004975Y000745D01*
X004975Y000928D01*
X004957Y000969D01*
X006027Y002039D01*
X006027Y001806D01*
X005517Y001296D01*
X005423Y001296D01*
X005254Y001226D01*
X005125Y001097D01*
X005055Y000928D01*
X005055Y000745D01*
X005125Y000576D01*
X005254Y000446D01*
X005423Y000376D01*
X005606Y000376D01*
X005775Y000446D01*
X005905Y000576D01*
X005975Y000745D01*
X005975Y000928D01*
X005905Y001097D01*
X005894Y001107D01*
X006224Y001438D01*
X006224Y001196D01*
X006125Y001097D01*
X006055Y000928D01*
X006055Y000745D01*
X006125Y000576D01*
X006254Y000446D01*
X006423Y000376D01*
X006606Y000376D01*
X006775Y000446D01*
X006905Y000576D01*
X006975Y000745D01*
X006975Y000928D01*
X006905Y001097D01*
X006775Y001226D01*
X006624Y001289D01*
X006624Y001444D01*
X007080Y000988D01*
X007055Y000928D01*
X007055Y000745D01*
X007125Y000576D01*
X007254Y000446D01*
X007423Y000376D01*
X007606Y000376D01*
X007775Y000446D01*
X007905Y000576D01*
X007975Y000745D01*
X007975Y000928D01*
X007905Y001097D01*
X007775Y001226D01*
X007606Y001296D01*
X007423Y001296D01*
X007363Y001271D01*
X006821Y001813D01*
X006821Y003326D01*
X006870Y003326D01*
X007028Y003326D01*
X007069Y003337D01*
X007106Y003358D01*
X007135Y003388D01*
X007156Y003424D01*
X007167Y003465D01*
X007167Y003483D01*
X009418Y003483D01*
X009535Y003600D01*
X009535Y003601D01*
X010140Y004205D01*
X010140Y002363D01*
X010035Y002407D01*
X009900Y002407D01*
X009857Y002389D01*
X008307Y002389D01*
X008263Y002407D01*
X008129Y002407D01*
X008004Y002355D01*
X007909Y002260D01*
X007858Y002136D01*
X007858Y002001D01*
X007909Y001877D01*
X008004Y001782D01*
X008015Y001777D01*
X007985Y001765D01*
X007890Y001669D01*
X007838Y001545D01*
X007838Y001411D01*
X007890Y001286D01*
X007985Y001191D01*
X008109Y001140D01*
X008168Y001140D01*
X008164Y001136D01*
X008121Y001077D01*
X008088Y001013D01*
X008066Y000944D01*
X008055Y000876D01*
X008475Y000876D01*
X008475Y000796D01*
X008555Y000796D01*
X008555Y000876D01*
X008974Y000876D01*
X008963Y000944D01*
X008941Y001013D01*
X008908Y001077D01*
X008866Y001136D01*
X008844Y001158D01*
X009186Y001158D01*
X009125Y001097D01*
X009055Y000928D01*
X009055Y000745D01*
X009125Y000576D01*
X009254Y000446D01*
X009423Y000376D01*
X009606Y000376D01*
X009775Y000446D01*
X009905Y000576D01*
X009975Y000745D01*
X009975Y000928D01*
X009905Y001097D01*
X009844Y001158D01*
X010106Y001158D01*
X010223Y001207D01*
X010641Y001624D01*
X010731Y001714D01*
X010780Y001832D01*
X010780Y006473D01*
X010939Y006633D01*
X011274Y006633D01*
X011368Y006727D01*
X011368Y007065D01*
X011930Y007627D01*
X011978Y007744D01*
X011978Y009651D01*
X011930Y009768D01*
X011840Y009857D01*
X011368Y010330D01*
X011368Y010599D01*
X011274Y010693D01*
X010936Y010693D01*
X010905Y010723D01*
X010789Y010772D01*
X010187Y010772D01*
X010187Y010796D01*
X010093Y010890D01*
X009094Y010890D01*
X009000Y010796D01*
X009000Y010112D01*
X009052Y010061D01*
X009000Y010009D01*
X009000Y009354D01*
X008927Y009354D01*
X008927Y010009D01*
X008875Y010061D01*
X008927Y010112D01*
X008927Y010796D01*
X008833Y010890D01*
X008346Y010890D01*
X008252Y010796D01*
X008252Y010772D01*
X005022Y010772D01*
X004912Y010726D01*
X004802Y010772D01*
X004503Y010772D01*
X004227Y010658D01*
X004016Y010446D01*
X003972Y010339D01*
X003490Y010339D01*
X003440Y010359D01*
X003306Y010359D01*
X003182Y010308D01*
X003086Y010213D01*
X003035Y010089D01*
X003035Y009954D01*
X003086Y009830D01*
X003182Y009735D01*
X003306Y009683D01*
X003440Y009683D01*
X003490Y009704D01*
X003972Y009704D01*
X004016Y009596D01*
X004219Y009394D01*
X002494Y009394D01*
X002440Y009448D01*
X002330Y009493D01*
X002211Y009493D01*
X002101Y009448D01*
X002017Y009364D01*
X001972Y009254D01*
X001972Y009135D01*
X002017Y009025D01*
X002082Y008961D01*
X001594Y008961D01*
X001562Y008929D01*
X001471Y009020D01*
X000779Y009020D01*
X000779Y009487D01*
X001471Y009487D01*
X001565Y009581D01*
X001565Y009743D01*
X001717Y009743D01*
X001719Y009742D01*
X001838Y009742D01*
X001948Y009788D01*
X002032Y009872D01*
X002077Y009982D01*
X002077Y010100D01*
X002032Y010210D01*
X001948Y010294D01*
X001838Y010340D01*
X001719Y010340D01*
X001609Y010294D01*
X001565Y010249D01*
X001565Y010304D01*
X001471Y010398D01*
X000779Y010398D01*
X000779Y019112D01*
X000825Y019065D01*
X001137Y018936D01*
X001475Y018936D01*
X001787Y019065D01*
X002026Y019304D01*
X002137Y019573D01*
X002164Y019537D01*
X002215Y019485D01*
X002274Y019443D01*
X002338Y019410D01*
X002407Y019388D01*
X002475Y019377D01*
X002475Y019796D01*
X002555Y019796D01*
X002555Y019876D01*
X002974Y019876D01*
X002963Y019944D01*
X002941Y020013D01*
X002908Y020077D01*
X002866Y020136D01*
X002814Y020187D01*
X002756Y020230D01*
X002691Y020263D01*
X002622Y020285D01*
X002555Y020296D01*
X002555Y019876D01*
X002475Y019876D01*
X002475Y020296D01*
X002407Y020285D01*
X002338Y020263D01*
X002274Y020230D01*
X002215Y020187D01*
X002164Y020136D01*
X002121Y020077D01*
X002112Y020059D01*
X002026Y020266D01*
X001979Y020312D01*
X012050Y020312D01*
X012004Y020266D01*
X011919Y020062D01*
X011905Y020097D01*
X011775Y020226D01*
X011606Y020296D01*
X011423Y020296D01*
X011254Y020226D01*
X011125Y020097D01*
X011055Y019928D01*
X011055Y019745D01*
X011125Y019576D01*
X011254Y019446D01*
X011423Y019376D01*
X011606Y019376D01*
X011775Y019446D01*
X011895Y019566D01*
X012004Y019304D01*
X012243Y019065D01*
X012495Y018961D01*
X012263Y018961D01*
X012170Y018867D01*
X012170Y017947D01*
X012263Y017853D01*
X013183Y017853D01*
X013251Y017921D01*
X013251Y006480D01*
X011512Y006480D01*
X011492Y006461D01*
X011082Y006461D01*
X010989Y006367D01*
X010989Y001559D01*
X011082Y001466D01*
X011159Y001466D01*
X011156Y001128D01*
X011125Y001097D01*
X011055Y000928D01*
X011055Y000745D01*
X011125Y000576D01*
X011151Y000549D01*
X011150Y000360D01*
X001979Y000360D01*
X002026Y000406D01*
X002112Y000614D01*
X002121Y000595D01*
X002164Y000537D01*
X002215Y000485D01*
X002274Y000443D01*
X002338Y000410D01*
X002407Y000388D01*
X002475Y000377D01*
X002475Y000796D01*
X002555Y000796D01*
X002555Y000876D01*
X002974Y000876D01*
X002963Y000944D01*
X002941Y001013D01*
X002908Y001077D01*
X002866Y001136D01*
X002814Y001187D01*
X002756Y001230D01*
X002691Y001263D01*
X002622Y001285D01*
X003315Y001285D01*
X003351Y001404D02*
X001991Y001404D01*
X002026Y001368D02*
X001787Y001607D01*
X001475Y001736D01*
X001137Y001736D01*
X000825Y001607D01*
X000779Y001561D01*
X000779Y002566D01*
X000846Y002499D01*
X001766Y002499D01*
X001860Y002593D01*
X001860Y003513D01*
X001766Y003606D01*
X000846Y003606D01*
X000779Y003539D01*
X000779Y004103D01*
X001530Y004103D01*
X001624Y004197D01*
X001624Y004664D01*
X001638Y004664D01*
X001638Y004502D01*
X001732Y004409D01*
X002494Y004409D01*
X002588Y004502D01*
X002588Y005462D01*
X002546Y005504D01*
X002556Y005514D01*
X002577Y005550D01*
X002588Y005591D01*
X002588Y005691D01*
X002588Y005790D01*
X002586Y005799D01*
X002588Y005801D01*
X002588Y006171D01*
X002613Y006146D01*
X002723Y006100D01*
X002842Y006100D01*
X002952Y006146D01*
X003036Y006230D01*
X003081Y006340D01*
X003081Y006459D01*
X003074Y006476D01*
X003077Y006474D01*
X003196Y006474D01*
X003306Y006520D01*
X003390Y006604D01*
X003398Y006624D01*
X004294Y005727D01*
X007012Y005727D01*
X007012Y005142D01*
X006870Y005142D01*
X006870Y004984D01*
X006870Y004984D01*
X006870Y005142D01*
X006711Y005142D01*
X006670Y005131D01*
X006634Y005110D01*
X006604Y005080D01*
X006583Y005044D01*
X006572Y005003D01*
X006572Y004943D01*
X006624Y004943D01*
X006624Y004943D01*
X006572Y004943D01*
X006572Y004380D01*
X006241Y004710D01*
X006124Y004828D01*
X005955Y004828D01*
X005955Y004845D01*
X005950Y004864D01*
X005955Y004882D01*
X005955Y004943D01*
X005955Y005003D01*
X005944Y005044D01*
X005923Y005080D01*
X005893Y005110D01*
X005857Y005131D01*
X005816Y005142D01*
X005657Y005142D01*
X005657Y004943D01*
X005657Y004943D01*
X005657Y005142D01*
X005498Y005142D01*
X005457Y005131D01*
X005421Y005110D01*
X005391Y005080D01*
X005370Y005044D01*
X005359Y005003D01*
X005359Y004943D01*
X005411Y004943D01*
X005411Y004943D01*
X005359Y004943D01*
X005359Y004882D01*
X005364Y004864D01*
X005359Y004845D01*
X005359Y004785D01*
X005359Y004513D01*
X005050Y004513D01*
X004656Y004907D01*
X004539Y005024D01*
X004242Y005024D01*
X004242Y005125D01*
X004148Y005219D01*
X003556Y005219D01*
X003436Y005340D01*
X003436Y005415D01*
X003390Y005525D01*
X003306Y005609D01*
X003196Y005655D01*
X003077Y005655D01*
X002968Y005609D01*
X002884Y005525D01*
X002838Y005415D01*
X002838Y005296D01*
X002884Y005187D01*
X002968Y005103D01*
X003077Y005057D01*
X003153Y005057D01*
X003292Y004918D01*
X003292Y004533D01*
X003303Y004522D01*
X003303Y004521D01*
X003292Y004480D01*
X003292Y004284D01*
X003547Y004284D01*
X003547Y004248D02*
X001624Y004248D01*
X001624Y004366D02*
X003292Y004366D01*
X003293Y004485D02*
X002570Y004485D01*
X002588Y004603D02*
X003292Y004603D01*
X003292Y004722D02*
X002588Y004722D01*
X002588Y004840D02*
X003292Y004840D01*
X003251Y004959D02*
X002588Y004959D01*
X002588Y005077D02*
X003029Y005077D01*
X002880Y005196D02*
X002588Y005196D01*
X002588Y005314D02*
X002838Y005314D01*
X002845Y005433D02*
X002588Y005433D01*
X002578Y005551D02*
X002909Y005551D01*
X002588Y005670D02*
X007012Y005670D01*
X007012Y005551D02*
X003364Y005551D01*
X003428Y005433D02*
X007012Y005433D01*
X007012Y005314D02*
X003462Y005314D01*
X003997Y006025D02*
X002588Y006025D01*
X002588Y005907D02*
X004115Y005907D01*
X004234Y005788D02*
X002588Y005788D01*
X002588Y005691D02*
X002162Y005691D01*
X002162Y005691D01*
X002588Y005691D01*
X002588Y006144D02*
X002619Y006144D01*
X002946Y006144D02*
X003878Y006144D01*
X003760Y006262D02*
X003049Y006262D01*
X003081Y006381D02*
X003641Y006381D01*
X003523Y006499D02*
X003255Y006499D01*
X003396Y006618D02*
X003404Y006618D01*
X004172Y005196D02*
X007012Y005196D01*
X006870Y005077D02*
X006870Y005077D01*
X006602Y005077D02*
X005925Y005077D01*
X005955Y004959D02*
X006572Y004959D01*
X006572Y004840D02*
X005955Y004840D01*
X005955Y004943D02*
X005903Y004943D01*
X005955Y004943D01*
X005903Y004943D02*
X005903Y004943D01*
X005657Y004959D02*
X005657Y004959D01*
X005657Y005077D02*
X005657Y005077D01*
X005389Y005077D02*
X004242Y005077D01*
X004604Y004959D02*
X005359Y004959D01*
X005359Y004840D02*
X004723Y004840D01*
X004841Y004722D02*
X005359Y004722D01*
X005359Y004785D02*
X005411Y004785D01*
X005411Y004785D01*
X005411Y004785D01*
X005359Y004785D01*
X005359Y004603D02*
X004960Y004603D01*
X004543Y004454D02*
X004373Y004624D01*
X004242Y004624D01*
X004242Y004533D01*
X004230Y004522D01*
X004231Y004521D01*
X004242Y004480D01*
X004242Y004284D01*
X003987Y004284D01*
X003987Y004188D01*
X003973Y004174D01*
X004236Y004174D01*
X004236Y004215D01*
X004281Y004324D01*
X004365Y004408D01*
X004475Y004454D01*
X004543Y004454D01*
X004513Y004485D02*
X004241Y004485D01*
X004242Y004603D02*
X004394Y004603D01*
X004323Y004366D02*
X004242Y004366D01*
X004249Y004248D02*
X003987Y004248D01*
X003822Y004011D02*
X003712Y004011D01*
X003712Y003892D02*
X003822Y003892D01*
X004201Y003892D02*
X004335Y003892D01*
X004398Y003774D02*
X000779Y003774D01*
X000779Y003892D02*
X003333Y003892D01*
X003292Y004011D02*
X000779Y004011D01*
X000779Y003655D02*
X002288Y003655D01*
X002318Y003685D02*
X002180Y003547D01*
X002105Y003367D01*
X002105Y003172D01*
X002180Y002992D01*
X002299Y002872D01*
X002276Y002856D01*
X002222Y002801D01*
X002176Y002739D01*
X002141Y002670D01*
X002118Y002597D01*
X002105Y002520D01*
X002105Y002501D01*
X002577Y002501D01*
X002577Y002463D01*
X002614Y002463D01*
X002614Y001992D01*
X002634Y001992D01*
X002710Y002004D01*
X002784Y002028D01*
X002852Y002063D01*
X002915Y002108D01*
X002969Y002163D01*
X003015Y002225D01*
X003050Y002294D01*
X003073Y002367D01*
X003085Y002443D01*
X003085Y002463D01*
X002614Y002463D01*
X002614Y002501D01*
X003085Y002501D01*
X003085Y002520D01*
X003073Y002597D01*
X003050Y002670D01*
X003015Y002739D01*
X002969Y002801D01*
X002915Y002856D01*
X002892Y002872D01*
X003011Y002992D01*
X003085Y003172D01*
X003085Y003367D01*
X003011Y003547D01*
X002873Y003685D01*
X002693Y003759D01*
X002498Y003759D01*
X002318Y003685D01*
X002176Y003537D02*
X001836Y003537D01*
X001860Y003418D02*
X002127Y003418D01*
X002105Y003300D02*
X001860Y003300D01*
X001860Y003181D02*
X002105Y003181D01*
X002151Y003063D02*
X001860Y003063D01*
X001860Y002944D02*
X002228Y002944D01*
X002246Y002826D02*
X001860Y002826D01*
X001860Y002707D02*
X002160Y002707D01*
X002116Y002589D02*
X001856Y002589D01*
X002105Y002463D02*
X002105Y002443D01*
X002118Y002367D01*
X002141Y002294D01*
X002176Y002225D01*
X002222Y002163D01*
X002276Y002108D01*
X002339Y002063D01*
X002407Y002028D01*
X002481Y002004D01*
X002557Y001992D01*
X002577Y001992D01*
X002577Y002463D01*
X002105Y002463D01*
X002123Y002352D02*
X000779Y002352D01*
X000779Y002470D02*
X002577Y002470D01*
X002614Y002470D02*
X004418Y002470D01*
X004536Y002589D02*
X003075Y002589D01*
X003031Y002707D02*
X004655Y002707D01*
X004729Y002826D02*
X002945Y002826D01*
X002963Y002944D02*
X004729Y002944D01*
X004729Y003063D02*
X003040Y003063D01*
X003085Y003181D02*
X004729Y003181D01*
X004729Y003300D02*
X003085Y003300D01*
X003064Y003418D02*
X004729Y003418D01*
X004635Y003537D02*
X003015Y003537D01*
X002903Y003655D02*
X004516Y003655D01*
X004271Y004011D02*
X004242Y004011D01*
X003292Y004129D02*
X001555Y004129D01*
X001624Y004485D02*
X001656Y004485D01*
X001638Y004603D02*
X001624Y004603D01*
X002577Y002352D02*
X002614Y002352D01*
X002614Y002233D02*
X002577Y002233D01*
X002577Y002115D02*
X002614Y002115D01*
X002614Y001996D02*
X002577Y001996D01*
X002531Y001996D02*
X000779Y001996D01*
X000779Y001878D02*
X003825Y001878D01*
X003944Y001996D02*
X002660Y001996D01*
X002921Y002115D02*
X004062Y002115D01*
X004181Y002233D02*
X003019Y002233D01*
X003068Y002352D02*
X004299Y002352D01*
X004389Y001878D02*
X004423Y001878D01*
X004484Y001759D02*
X004271Y001759D01*
X004152Y001641D02*
X004663Y001641D01*
X004839Y001641D02*
X005065Y001641D01*
X005018Y001759D02*
X005183Y001759D01*
X005079Y001878D02*
X005302Y001878D01*
X005420Y001996D02*
X005089Y001996D01*
X005178Y002115D02*
X005539Y002115D01*
X005657Y002233D02*
X005297Y002233D01*
X005345Y002352D02*
X005776Y002352D01*
X005811Y002470D02*
X005345Y002470D01*
X005345Y002589D02*
X005811Y002589D01*
X005811Y002707D02*
X005345Y002707D01*
X005345Y002826D02*
X005811Y002826D01*
X005811Y002944D02*
X005345Y002944D01*
X005345Y003063D02*
X005811Y003063D01*
X005811Y003181D02*
X005345Y003181D01*
X005345Y003300D02*
X005811Y003300D01*
X005657Y003326D02*
X005657Y003483D01*
X005657Y003483D01*
X005657Y003326D01*
X005657Y003418D02*
X005657Y003418D01*
X005374Y003418D02*
X005345Y003418D01*
X006230Y004722D02*
X006572Y004722D01*
X006572Y004603D02*
X006349Y004603D01*
X006467Y004485D02*
X006572Y004485D01*
X006870Y003483D02*
X006870Y003483D01*
X006870Y003326D01*
X006870Y003483D01*
X006870Y003418D02*
X006870Y003418D01*
X006821Y003300D02*
X010140Y003300D01*
X010140Y003418D02*
X007153Y003418D01*
X006821Y003181D02*
X010140Y003181D01*
X010140Y003063D02*
X006821Y003063D01*
X006821Y002944D02*
X010140Y002944D01*
X010140Y002826D02*
X006821Y002826D01*
X006821Y002707D02*
X010140Y002707D01*
X010140Y002589D02*
X006821Y002589D01*
X006821Y002470D02*
X010140Y002470D01*
X010749Y001759D02*
X010989Y001759D01*
X010989Y001641D02*
X010657Y001641D01*
X010539Y001522D02*
X011026Y001522D01*
X011158Y001404D02*
X010420Y001404D01*
X010423Y001296D02*
X010254Y001226D01*
X010125Y001097D01*
X010055Y000928D01*
X010055Y000745D01*
X010125Y000576D01*
X010254Y000446D01*
X010423Y000376D01*
X010606Y000376D01*
X010775Y000446D01*
X010905Y000576D01*
X010975Y000745D01*
X010975Y000928D01*
X010905Y001097D01*
X010775Y001226D01*
X010606Y001296D01*
X010423Y001296D01*
X010396Y001285D02*
X010302Y001285D01*
X010195Y001167D02*
X010126Y001167D01*
X010105Y001048D02*
X009925Y001048D01*
X009974Y000930D02*
X010056Y000930D01*
X010055Y000811D02*
X009975Y000811D01*
X009953Y000693D02*
X010076Y000693D01*
X010126Y000574D02*
X009903Y000574D01*
X009785Y000456D02*
X010245Y000456D01*
X010785Y000456D02*
X011151Y000456D01*
X011126Y000574D02*
X010903Y000574D01*
X010953Y000693D02*
X011076Y000693D01*
X011055Y000811D02*
X010975Y000811D01*
X010974Y000930D02*
X011056Y000930D01*
X011105Y001048D02*
X010925Y001048D01*
X010835Y001167D02*
X011156Y001167D01*
X011157Y001285D02*
X010633Y001285D01*
X010780Y001878D02*
X010989Y001878D01*
X010989Y001996D02*
X010780Y001996D01*
X010780Y002115D02*
X010989Y002115D01*
X010989Y002233D02*
X010780Y002233D01*
X010780Y002352D02*
X010989Y002352D01*
X010989Y002470D02*
X010780Y002470D01*
X010780Y002589D02*
X010989Y002589D01*
X010989Y002707D02*
X010780Y002707D01*
X010780Y002826D02*
X010989Y002826D01*
X010989Y002944D02*
X010780Y002944D01*
X010780Y003063D02*
X010989Y003063D01*
X010989Y003181D02*
X010780Y003181D01*
X010780Y003300D02*
X010989Y003300D01*
X010989Y003418D02*
X010780Y003418D01*
X010780Y003537D02*
X010989Y003537D01*
X010989Y003655D02*
X010780Y003655D01*
X010780Y003774D02*
X010989Y003774D01*
X010989Y003892D02*
X010780Y003892D01*
X010780Y004011D02*
X010989Y004011D01*
X010989Y004129D02*
X010780Y004129D01*
X010780Y004248D02*
X010989Y004248D01*
X010989Y004366D02*
X010780Y004366D01*
X010780Y004485D02*
X010989Y004485D01*
X010989Y004603D02*
X010780Y004603D01*
X010780Y004722D02*
X010989Y004722D01*
X010989Y004840D02*
X010780Y004840D01*
X010780Y004959D02*
X010989Y004959D01*
X010989Y005077D02*
X010780Y005077D01*
X010780Y005196D02*
X010989Y005196D01*
X010989Y005314D02*
X010780Y005314D01*
X010780Y005433D02*
X010989Y005433D01*
X010989Y005551D02*
X010780Y005551D01*
X010780Y005670D02*
X010989Y005670D01*
X010989Y005788D02*
X010780Y005788D01*
X010780Y005907D02*
X010989Y005907D01*
X010989Y006025D02*
X010780Y006025D01*
X010780Y006144D02*
X010989Y006144D01*
X010989Y006262D02*
X010780Y006262D01*
X010780Y006381D02*
X011002Y006381D01*
X010805Y006499D02*
X013251Y006499D01*
X013251Y006618D02*
X010924Y006618D01*
X011368Y006736D02*
X012308Y006736D01*
X012308Y006727D02*
X012401Y006633D01*
X013046Y006633D01*
X013139Y006727D01*
X013139Y007469D01*
X013046Y007563D01*
X012979Y007563D01*
X013022Y007669D01*
X013022Y007787D01*
X012977Y007897D01*
X012923Y007950D01*
X012923Y009763D01*
X013046Y009763D01*
X013139Y009857D01*
X013139Y010599D01*
X013046Y010693D01*
X012401Y010693D01*
X012308Y010599D01*
X012308Y009857D01*
X012401Y009763D01*
X012523Y009763D01*
X012523Y007950D01*
X012470Y007897D01*
X012425Y007787D01*
X012425Y007669D01*
X012468Y007563D01*
X012401Y007563D01*
X012308Y007469D01*
X012308Y006727D01*
X012308Y006855D02*
X011368Y006855D01*
X011368Y006973D02*
X012308Y006973D01*
X012308Y007092D02*
X011394Y007092D01*
X011513Y007210D02*
X012308Y007210D01*
X012308Y007329D02*
X011631Y007329D01*
X011750Y007447D02*
X012308Y007447D01*
X012467Y007566D02*
X011868Y007566D01*
X011953Y007684D02*
X012425Y007684D01*
X012431Y007803D02*
X011978Y007803D01*
X011978Y007921D02*
X012494Y007921D01*
X012523Y008040D02*
X011978Y008040D01*
X011978Y008158D02*
X012523Y008158D01*
X012523Y008277D02*
X011978Y008277D01*
X011978Y008395D02*
X012523Y008395D01*
X012523Y008514D02*
X011978Y008514D01*
X011978Y008632D02*
X012523Y008632D01*
X012523Y008751D02*
X011978Y008751D01*
X011978Y008869D02*
X012523Y008869D01*
X012523Y008988D02*
X011978Y008988D01*
X011978Y009106D02*
X012523Y009106D01*
X012523Y009225D02*
X011978Y009225D01*
X011978Y009343D02*
X012523Y009343D01*
X012523Y009462D02*
X011978Y009462D01*
X011978Y009580D02*
X012523Y009580D01*
X012523Y009699D02*
X011958Y009699D01*
X011881Y009817D02*
X012347Y009817D01*
X012308Y009936D02*
X011762Y009936D01*
X011644Y010054D02*
X012308Y010054D01*
X012308Y010173D02*
X011525Y010173D01*
X011407Y010291D02*
X012308Y010291D01*
X012308Y010410D02*
X011368Y010410D01*
X011368Y010528D02*
X012308Y010528D01*
X012355Y010647D02*
X011320Y010647D01*
X011609Y011259D02*
X011702Y011353D01*
X011702Y012076D01*
X011609Y012169D01*
X010885Y012169D01*
X010792Y012076D01*
X010792Y012061D01*
X010762Y012091D01*
X010236Y012091D01*
X010164Y012019D01*
X010093Y012091D01*
X009667Y012091D01*
X008790Y012968D01*
X008790Y014007D01*
X009473Y013324D01*
X009473Y013006D01*
X009567Y012912D01*
X010093Y012912D01*
X010164Y012984D01*
X010236Y012912D01*
X010762Y012912D01*
X010792Y012942D01*
X010792Y012927D01*
X010885Y012834D01*
X011609Y012834D01*
X011702Y012927D01*
X011702Y013651D01*
X011609Y013744D01*
X010885Y013744D01*
X010792Y013651D01*
X010792Y013636D01*
X010762Y013666D01*
X010236Y013666D01*
X010164Y013594D01*
X010093Y013666D01*
X009697Y013666D01*
X009085Y014277D01*
X009085Y015286D01*
X009473Y014898D01*
X009473Y014585D01*
X009567Y014491D01*
X010093Y014491D01*
X010164Y014563D01*
X010236Y014491D01*
X010762Y014491D01*
X010792Y014521D01*
X010792Y014502D01*
X010885Y014409D01*
X011609Y014409D01*
X011702Y014502D01*
X011702Y015225D01*
X011609Y015319D01*
X010885Y015319D01*
X010792Y015225D01*
X010792Y015215D01*
X010762Y015244D01*
X010236Y015244D01*
X010164Y015173D01*
X010093Y015244D01*
X009693Y015244D01*
X009380Y015557D01*
X009380Y016566D01*
X009473Y016473D01*
X009473Y016156D01*
X009567Y016062D01*
X010093Y016062D01*
X010164Y016134D01*
X010236Y016062D01*
X010762Y016062D01*
X010792Y016092D01*
X010792Y016077D01*
X010885Y015983D01*
X011609Y015983D01*
X011702Y016077D01*
X011702Y016800D01*
X011609Y016894D01*
X010885Y016894D01*
X010792Y016800D01*
X010792Y016785D01*
X010762Y016815D01*
X010236Y016815D01*
X010164Y016744D01*
X010093Y016815D01*
X009697Y016815D01*
X009675Y016836D01*
X009675Y018231D01*
X009558Y018348D01*
X008530Y019376D01*
X008606Y019376D01*
X008775Y019446D01*
X008905Y019576D01*
X008975Y019745D01*
X008975Y019928D01*
X008905Y020097D01*
X008775Y020226D01*
X008606Y020296D01*
X008423Y020296D01*
X008254Y020226D01*
X008125Y020097D01*
X008055Y019928D01*
X008055Y019745D01*
X008125Y019576D01*
X008254Y019446D01*
X008379Y019394D01*
X007650Y019394D01*
X007775Y019446D01*
X007905Y019576D01*
X007975Y019745D01*
X007975Y019928D01*
X007905Y020097D01*
X007775Y020226D01*
X007606Y020296D01*
X007423Y020296D01*
X007254Y020226D01*
X007125Y020097D01*
X007055Y019928D01*
X007055Y019745D01*
X007125Y019576D01*
X007254Y019446D01*
X007379Y019394D01*
X006745Y019394D01*
X006717Y019422D01*
X006775Y019446D01*
X006905Y019576D01*
X006975Y019745D01*
X006975Y019928D01*
X006905Y020097D01*
X006775Y020226D01*
X006606Y020296D01*
X006423Y020296D01*
X006254Y020226D01*
X006125Y020097D01*
X006055Y019928D01*
X006055Y019745D01*
X006080Y019684D01*
X005921Y019525D01*
X005921Y019524D01*
X005910Y019513D01*
X005910Y018758D01*
X006027Y018641D01*
X007247Y017420D01*
X007481Y017420D01*
X007535Y017366D01*
X007644Y017321D01*
X007763Y017321D01*
X007873Y017366D01*
X007957Y017450D01*
X008002Y017560D01*
X008002Y017679D01*
X007958Y017786D01*
X008390Y017355D01*
X008390Y012803D01*
X008507Y012685D01*
X009473Y011719D01*
X009473Y011431D01*
X009567Y011338D01*
X010093Y011338D01*
X010164Y011409D01*
X010236Y011338D01*
X010762Y011338D01*
X010792Y011367D01*
X010792Y011353D01*
X010885Y011259D01*
X011609Y011259D01*
X011702Y011358D02*
X012181Y011358D01*
X012181Y011357D02*
X012202Y011321D01*
X012231Y011291D01*
X012268Y011270D01*
X012309Y011259D01*
X012565Y011259D01*
X012565Y011654D01*
X012685Y011654D01*
X012685Y011259D01*
X012941Y011259D01*
X012982Y011270D01*
X013019Y011291D01*
X013048Y011321D01*
X013069Y011357D01*
X013080Y011398D01*
X013080Y011654D01*
X012685Y011654D01*
X012685Y011774D01*
X013080Y011774D01*
X013080Y012031D01*
X013069Y012071D01*
X013048Y012108D01*
X013019Y012137D01*
X012982Y012159D01*
X012941Y012169D01*
X012685Y012169D01*
X012685Y011774D01*
X012565Y011774D01*
X012565Y011654D01*
X012170Y011654D01*
X012170Y011398D01*
X012181Y011357D01*
X012170Y011476D02*
X011702Y011476D01*
X011702Y011595D02*
X012170Y011595D01*
X012170Y011774D02*
X012565Y011774D01*
X012565Y012169D01*
X012309Y012169D01*
X012268Y012159D01*
X012231Y012137D01*
X012202Y012108D01*
X012181Y012071D01*
X012170Y012031D01*
X012170Y011774D01*
X012170Y011832D02*
X011702Y011832D01*
X011702Y011950D02*
X012170Y011950D01*
X012180Y012069D02*
X011702Y012069D01*
X011702Y011713D02*
X012565Y011713D01*
X012565Y011595D02*
X012685Y011595D01*
X012685Y011713D02*
X013251Y011713D01*
X013251Y011595D02*
X013080Y011595D01*
X013080Y011476D02*
X013251Y011476D01*
X013251Y011358D02*
X013069Y011358D01*
X013251Y011239D02*
X000779Y011239D01*
X000779Y011121D02*
X013251Y011121D01*
X013251Y011002D02*
X000779Y011002D01*
X000779Y010884D02*
X008340Y010884D01*
X008839Y010884D02*
X009088Y010884D01*
X009000Y010765D02*
X008927Y010765D01*
X008927Y010647D02*
X009000Y010647D01*
X009000Y010528D02*
X008927Y010528D01*
X008927Y010410D02*
X009000Y010410D01*
X009000Y010291D02*
X008927Y010291D01*
X008927Y010173D02*
X009000Y010173D01*
X009046Y010054D02*
X008882Y010054D01*
X008927Y009936D02*
X009000Y009936D01*
X009000Y009817D02*
X008927Y009817D01*
X008927Y009699D02*
X009000Y009699D01*
X009000Y009580D02*
X008927Y009580D01*
X008927Y009462D02*
X009000Y009462D01*
X010099Y010884D02*
X013251Y010884D01*
X013251Y010765D02*
X010805Y010765D01*
X010782Y011358D02*
X010792Y011358D01*
X010216Y011358D02*
X010113Y011358D01*
X009547Y011358D02*
X000779Y011358D01*
X000779Y011476D02*
X009473Y011476D01*
X009473Y011595D02*
X000779Y011595D01*
X000779Y011713D02*
X009473Y011713D01*
X009361Y011832D02*
X000779Y011832D01*
X000779Y011950D02*
X009242Y011950D01*
X009124Y012069D02*
X000779Y012069D01*
X000779Y012187D02*
X009005Y012187D01*
X008887Y012306D02*
X000779Y012306D01*
X000779Y012424D02*
X008768Y012424D01*
X008650Y012543D02*
X000779Y012543D01*
X000779Y012661D02*
X008531Y012661D01*
X008413Y012780D02*
X000779Y012780D01*
X000779Y012898D02*
X008390Y012898D01*
X008390Y013017D02*
X000779Y013017D01*
X000779Y013135D02*
X008390Y013135D01*
X008390Y013254D02*
X000779Y013254D01*
X000779Y013372D02*
X003753Y013372D01*
X003767Y013358D02*
X003803Y013337D01*
X003844Y013326D01*
X004593Y013326D01*
X004593Y014213D01*
X004713Y014213D01*
X004713Y014333D01*
X005600Y014333D01*
X005600Y015082D01*
X005589Y015122D01*
X005568Y015159D01*
X005538Y015189D01*
X005502Y015210D01*
X005461Y015221D01*
X004713Y015221D01*
X004713Y014333D01*
X004593Y014333D01*
X004593Y015221D01*
X003844Y015221D01*
X003803Y015210D01*
X003767Y015189D01*
X003737Y015159D01*
X003716Y015122D01*
X003705Y015082D01*
X003705Y014333D01*
X004593Y014333D01*
X004593Y014213D01*
X003705Y014213D01*
X003705Y013465D01*
X003716Y013424D01*
X003737Y013388D01*
X003767Y013358D01*
X003705Y013491D02*
X000779Y013491D01*
X000779Y013609D02*
X003705Y013609D01*
X003705Y013728D02*
X000779Y013728D01*
X000779Y013846D02*
X003705Y013846D01*
X003705Y013965D02*
X000779Y013965D01*
X000779Y014083D02*
X003705Y014083D01*
X003705Y014202D02*
X000779Y014202D01*
X000779Y014320D02*
X004593Y014320D01*
X004593Y014202D02*
X004713Y014202D01*
X004713Y014213D02*
X004713Y013326D01*
X005461Y013326D01*
X005502Y013337D01*
X005538Y013358D01*
X005568Y013388D01*
X005589Y013424D01*
X005600Y013465D01*
X005600Y014213D01*
X004713Y014213D01*
X004713Y014320D02*
X008390Y014320D01*
X008390Y014202D02*
X005600Y014202D01*
X005600Y014083D02*
X008390Y014083D01*
X008390Y013965D02*
X005600Y013965D01*
X005600Y013846D02*
X008390Y013846D01*
X008390Y013728D02*
X005600Y013728D01*
X005600Y013609D02*
X008390Y013609D01*
X008390Y013491D02*
X005600Y013491D01*
X005552Y013372D02*
X008390Y013372D01*
X008790Y013372D02*
X009424Y013372D01*
X009473Y013254D02*
X008790Y013254D01*
X008790Y013135D02*
X009473Y013135D01*
X009473Y013017D02*
X008790Y013017D01*
X008860Y012898D02*
X010821Y012898D01*
X010784Y012069D02*
X010792Y012069D01*
X010214Y012069D02*
X010115Y012069D01*
X009571Y012187D02*
X013251Y012187D01*
X013251Y012069D02*
X013070Y012069D01*
X013080Y011950D02*
X013251Y011950D01*
X013251Y011832D02*
X013080Y011832D01*
X013251Y012306D02*
X009452Y012306D01*
X009334Y012424D02*
X013251Y012424D01*
X013251Y012543D02*
X009215Y012543D01*
X009097Y012661D02*
X013251Y012661D01*
X013251Y012780D02*
X008978Y012780D01*
X008790Y013491D02*
X009306Y013491D01*
X009187Y013609D02*
X008790Y013609D01*
X008790Y013728D02*
X009069Y013728D01*
X008950Y013846D02*
X008790Y013846D01*
X008790Y013965D02*
X008832Y013965D01*
X009085Y014320D02*
X013251Y014320D01*
X013251Y014202D02*
X009161Y014202D01*
X009279Y014083D02*
X013251Y014083D01*
X013251Y013965D02*
X009398Y013965D01*
X009516Y013846D02*
X013251Y013846D01*
X013251Y013728D02*
X012992Y013728D01*
X012982Y013733D02*
X012941Y013744D01*
X012685Y013744D01*
X012685Y013349D01*
X012565Y013349D01*
X012565Y013744D01*
X012309Y013744D01*
X012268Y013733D01*
X012231Y013712D01*
X012202Y013682D01*
X012181Y013646D01*
X012170Y013605D01*
X012170Y013349D01*
X012565Y013349D01*
X012565Y013229D01*
X012170Y013229D01*
X012170Y012973D01*
X012181Y012932D01*
X012202Y012895D01*
X012231Y012866D01*
X012268Y012845D01*
X012309Y012834D01*
X012565Y012834D01*
X012565Y013229D01*
X012685Y013229D01*
X012685Y013349D01*
X013080Y013349D01*
X013080Y013605D01*
X013069Y013646D01*
X013048Y013682D01*
X013019Y013712D01*
X012982Y013733D01*
X013079Y013609D02*
X013251Y013609D01*
X013251Y013491D02*
X013080Y013491D01*
X013080Y013372D02*
X013251Y013372D01*
X013251Y013254D02*
X012685Y013254D01*
X012685Y013229D02*
X013080Y013229D01*
X013080Y012973D01*
X013069Y012932D01*
X013048Y012895D01*
X013019Y012866D01*
X012982Y012845D01*
X012941Y012834D01*
X012685Y012834D01*
X012685Y013229D01*
X012685Y013135D02*
X012565Y013135D01*
X012565Y013017D02*
X012685Y013017D01*
X012685Y012898D02*
X012565Y012898D01*
X012565Y013254D02*
X011702Y013254D01*
X011702Y013372D02*
X012170Y013372D01*
X012170Y013491D02*
X011702Y013491D01*
X011702Y013609D02*
X012171Y013609D01*
X012258Y013728D02*
X011625Y013728D01*
X011702Y013135D02*
X012170Y013135D01*
X012170Y013017D02*
X011702Y013017D01*
X011673Y012898D02*
X012200Y012898D01*
X012565Y013372D02*
X012685Y013372D01*
X012685Y013491D02*
X012565Y013491D01*
X012565Y013609D02*
X012685Y013609D01*
X012685Y013728D02*
X012565Y013728D01*
X012565Y014409D02*
X012309Y014409D01*
X012268Y014419D01*
X012231Y014440D01*
X012202Y014470D01*
X012181Y014507D01*
X012170Y014547D01*
X012170Y014804D01*
X012565Y014804D01*
X012565Y014924D01*
X012565Y015319D01*
X012309Y015319D01*
X012268Y015308D01*
X012231Y015287D01*
X012202Y015257D01*
X012181Y015221D01*
X012170Y015180D01*
X012170Y014924D01*
X012565Y014924D01*
X012685Y014924D01*
X012685Y015319D01*
X012941Y015319D01*
X012982Y015308D01*
X013019Y015287D01*
X013048Y015257D01*
X013069Y015221D01*
X013080Y015180D01*
X013080Y014924D01*
X012685Y014924D01*
X012685Y014804D01*
X013080Y014804D01*
X013080Y014547D01*
X013069Y014507D01*
X013048Y014470D01*
X013019Y014440D01*
X012982Y014419D01*
X012941Y014409D01*
X012685Y014409D01*
X012685Y014804D01*
X012565Y014804D01*
X012565Y014409D01*
X012565Y014439D02*
X012685Y014439D01*
X012685Y014557D02*
X012565Y014557D01*
X012565Y014676D02*
X012685Y014676D01*
X012685Y014794D02*
X012565Y014794D01*
X012565Y014913D02*
X011702Y014913D01*
X011702Y015031D02*
X012170Y015031D01*
X012170Y015150D02*
X011702Y015150D01*
X011660Y015268D02*
X012212Y015268D01*
X012170Y014794D02*
X011702Y014794D01*
X011702Y014676D02*
X012170Y014676D01*
X012170Y014557D02*
X011702Y014557D01*
X011639Y014439D02*
X012235Y014439D01*
X012565Y015031D02*
X012685Y015031D01*
X012685Y014913D02*
X013251Y014913D01*
X013251Y015031D02*
X013080Y015031D01*
X013080Y015150D02*
X013251Y015150D01*
X013251Y015268D02*
X013038Y015268D01*
X013251Y015387D02*
X009550Y015387D01*
X009432Y015505D02*
X013251Y015505D01*
X013251Y015624D02*
X009380Y015624D01*
X009380Y015742D02*
X013251Y015742D01*
X013251Y015861D02*
X009380Y015861D01*
X009380Y015979D02*
X013251Y015979D01*
X013251Y016098D02*
X013074Y016098D01*
X013069Y016082D02*
X013080Y016122D01*
X013080Y016379D01*
X012685Y016379D01*
X012685Y016499D01*
X012565Y016499D01*
X012565Y016894D01*
X012309Y016894D01*
X012268Y016883D01*
X012231Y016862D01*
X012202Y016832D01*
X012181Y016796D01*
X012170Y016755D01*
X012170Y016499D01*
X012565Y016499D01*
X012565Y016379D01*
X012170Y016379D01*
X012170Y016122D01*
X012181Y016082D01*
X012202Y016045D01*
X012231Y016015D01*
X012268Y015994D01*
X012309Y015983D01*
X012565Y015983D01*
X012565Y016379D01*
X012685Y016379D01*
X012685Y015983D01*
X012941Y015983D01*
X012982Y015994D01*
X013019Y016015D01*
X013048Y016045D01*
X013069Y016082D01*
X013080Y016216D02*
X013251Y016216D01*
X013251Y016335D02*
X013080Y016335D01*
X013080Y016499D02*
X013080Y016755D01*
X013069Y016796D01*
X013048Y016832D01*
X013019Y016862D01*
X012982Y016883D01*
X012941Y016894D01*
X012685Y016894D01*
X012685Y016499D01*
X013080Y016499D01*
X013080Y016572D02*
X013251Y016572D01*
X013251Y016690D02*
X013080Y016690D01*
X013062Y016809D02*
X013251Y016809D01*
X013251Y016927D02*
X009675Y016927D01*
X009675Y017046D02*
X013251Y017046D01*
X013251Y017164D02*
X009675Y017164D01*
X009675Y017283D02*
X013251Y017283D01*
X013251Y017401D02*
X009675Y017401D01*
X009675Y017520D02*
X013251Y017520D01*
X013251Y017638D02*
X009675Y017638D01*
X009675Y017757D02*
X013251Y017757D01*
X013251Y017875D02*
X013205Y017875D01*
X012685Y016809D02*
X012565Y016809D01*
X012565Y016690D02*
X012685Y016690D01*
X012685Y016572D02*
X012565Y016572D01*
X012565Y016453D02*
X011702Y016453D01*
X011702Y016335D02*
X012170Y016335D01*
X012170Y016216D02*
X011702Y016216D01*
X011702Y016098D02*
X012176Y016098D01*
X012565Y016098D02*
X012685Y016098D01*
X012685Y016216D02*
X012565Y016216D01*
X012565Y016335D02*
X012685Y016335D01*
X012685Y016453D02*
X013251Y016453D01*
X012685Y015268D02*
X012565Y015268D01*
X012565Y015150D02*
X012685Y015150D01*
X013080Y014794D02*
X013251Y014794D01*
X013251Y014676D02*
X013080Y014676D01*
X013080Y014557D02*
X013251Y014557D01*
X013251Y014439D02*
X013015Y014439D01*
X013080Y013135D02*
X013251Y013135D01*
X013251Y013017D02*
X013080Y013017D01*
X013050Y012898D02*
X013251Y012898D01*
X012685Y012069D02*
X012565Y012069D01*
X012565Y011950D02*
X012685Y011950D01*
X012685Y011832D02*
X012565Y011832D01*
X012565Y011476D02*
X012685Y011476D01*
X012685Y011358D02*
X012565Y011358D01*
X013092Y010647D02*
X013251Y010647D01*
X013251Y010528D02*
X013139Y010528D01*
X013139Y010410D02*
X013251Y010410D01*
X013251Y010291D02*
X013139Y010291D01*
X013139Y010173D02*
X013251Y010173D01*
X013251Y010054D02*
X013139Y010054D01*
X013139Y009936D02*
X013251Y009936D01*
X013251Y009817D02*
X013100Y009817D01*
X013251Y009699D02*
X012923Y009699D01*
X012923Y009580D02*
X013251Y009580D01*
X013251Y009462D02*
X012923Y009462D01*
X012923Y009343D02*
X013251Y009343D01*
X013251Y009225D02*
X012923Y009225D01*
X012923Y009106D02*
X013251Y009106D01*
X013251Y008988D02*
X012923Y008988D01*
X012923Y008869D02*
X013251Y008869D01*
X013251Y008751D02*
X012923Y008751D01*
X012923Y008632D02*
X013251Y008632D01*
X013251Y008514D02*
X012923Y008514D01*
X012923Y008395D02*
X013251Y008395D01*
X013251Y008277D02*
X012923Y008277D01*
X012923Y008158D02*
X013251Y008158D01*
X013251Y008040D02*
X012923Y008040D01*
X012953Y007921D02*
X013251Y007921D01*
X013251Y007803D02*
X013016Y007803D01*
X013022Y007684D02*
X013251Y007684D01*
X013251Y007566D02*
X012979Y007566D01*
X013139Y007447D02*
X013251Y007447D01*
X013251Y007329D02*
X013139Y007329D01*
X013139Y007210D02*
X013251Y007210D01*
X013251Y007092D02*
X013139Y007092D01*
X013139Y006973D02*
X013251Y006973D01*
X013251Y006855D02*
X013139Y006855D01*
X013139Y006736D02*
X013251Y006736D01*
X010140Y004129D02*
X010063Y004129D01*
X010140Y004011D02*
X009945Y004011D01*
X009826Y003892D02*
X010140Y003892D01*
X010140Y003774D02*
X009708Y003774D01*
X009589Y003655D02*
X010140Y003655D01*
X010140Y003537D02*
X009472Y003537D01*
X008001Y002352D02*
X006821Y002352D01*
X006821Y002233D02*
X007898Y002233D01*
X007858Y002115D02*
X006821Y002115D01*
X006821Y001996D02*
X007860Y001996D01*
X007909Y001878D02*
X006821Y001878D01*
X006875Y001759D02*
X007979Y001759D01*
X007878Y001641D02*
X006993Y001641D01*
X007112Y001522D02*
X007838Y001522D01*
X007841Y001404D02*
X007230Y001404D01*
X007349Y001285D02*
X007396Y001285D01*
X007633Y001285D02*
X007891Y001285D01*
X007835Y001167D02*
X008045Y001167D01*
X008106Y001048D02*
X007925Y001048D01*
X007974Y000930D02*
X008064Y000930D01*
X008055Y000796D02*
X008066Y000729D01*
X008088Y000660D01*
X008121Y000595D01*
X008164Y000537D01*
X008215Y000485D01*
X008274Y000443D01*
X008338Y000410D01*
X008407Y000388D01*
X008475Y000377D01*
X008475Y000796D01*
X008055Y000796D01*
X007975Y000811D02*
X008475Y000811D01*
X008555Y000811D02*
X009055Y000811D01*
X008974Y000796D02*
X008555Y000796D01*
X008555Y000377D01*
X008622Y000388D01*
X008691Y000410D01*
X008756Y000443D01*
X008814Y000485D01*
X008866Y000537D01*
X008908Y000595D01*
X008941Y000660D01*
X008963Y000729D01*
X008974Y000796D01*
X008952Y000693D02*
X009076Y000693D01*
X009126Y000574D02*
X008893Y000574D01*
X008773Y000456D02*
X009245Y000456D01*
X009056Y000930D02*
X008966Y000930D01*
X008923Y001048D02*
X009105Y001048D01*
X008555Y000693D02*
X008475Y000693D01*
X008475Y000574D02*
X008555Y000574D01*
X008555Y000456D02*
X008475Y000456D01*
X008256Y000456D02*
X007785Y000456D01*
X007903Y000574D02*
X008137Y000574D01*
X008078Y000693D02*
X007953Y000693D01*
X007245Y000456D02*
X006785Y000456D01*
X006903Y000574D02*
X007126Y000574D01*
X007076Y000693D02*
X006953Y000693D01*
X006975Y000811D02*
X007055Y000811D01*
X007056Y000930D02*
X006974Y000930D01*
X007020Y001048D02*
X006925Y001048D01*
X006902Y001167D02*
X006835Y001167D01*
X006783Y001285D02*
X006633Y001285D01*
X006624Y001404D02*
X006665Y001404D01*
X006224Y001404D02*
X006190Y001404D01*
X006224Y001285D02*
X006072Y001285D01*
X005953Y001167D02*
X006195Y001167D01*
X006105Y001048D02*
X005925Y001048D01*
X005974Y000930D02*
X006056Y000930D01*
X006055Y000811D02*
X005975Y000811D01*
X005953Y000693D02*
X006076Y000693D01*
X006126Y000574D02*
X005903Y000574D01*
X005785Y000456D02*
X006245Y000456D01*
X005624Y001404D02*
X005392Y001404D01*
X005396Y001285D02*
X005273Y001285D01*
X005195Y001167D02*
X005155Y001167D01*
X005105Y001048D02*
X005036Y001048D01*
X005056Y000930D02*
X004974Y000930D01*
X004975Y000811D02*
X005055Y000811D01*
X005076Y000693D02*
X004953Y000693D01*
X004903Y000574D02*
X005126Y000574D01*
X005245Y000456D02*
X004785Y000456D01*
X004245Y000456D02*
X003785Y000456D01*
X003903Y000574D02*
X004126Y000574D01*
X004076Y000693D02*
X003953Y000693D01*
X003975Y000811D02*
X004055Y000811D01*
X004056Y000930D02*
X003974Y000930D01*
X003925Y001048D02*
X004105Y001048D01*
X004195Y001167D02*
X003835Y001167D01*
X003797Y001285D02*
X004396Y001285D01*
X004633Y001285D02*
X004709Y001285D01*
X004828Y001404D02*
X003915Y001404D01*
X004034Y001522D02*
X004946Y001522D01*
X005510Y001522D02*
X005743Y001522D01*
X005629Y001641D02*
X005861Y001641D01*
X005747Y001759D02*
X005980Y001759D01*
X006027Y001878D02*
X005866Y001878D01*
X005984Y001996D02*
X006027Y001996D01*
X003707Y001759D02*
X000779Y001759D01*
X000779Y001641D02*
X000906Y001641D01*
X000779Y002115D02*
X002270Y002115D01*
X002172Y002233D02*
X000779Y002233D01*
X001706Y001641D02*
X003588Y001641D01*
X003470Y001522D02*
X001872Y001522D01*
X002026Y001368D02*
X002137Y001099D01*
X002164Y001136D01*
X002215Y001187D01*
X002274Y001230D01*
X002338Y001263D01*
X002407Y001285D01*
X002475Y001296D01*
X002475Y000876D01*
X002555Y000876D01*
X002555Y001296D01*
X002622Y001285D01*
X002555Y001285D02*
X002475Y001285D01*
X002408Y001285D02*
X002060Y001285D01*
X002109Y001167D02*
X002195Y001167D01*
X002475Y001167D02*
X002555Y001167D01*
X002555Y001048D02*
X002475Y001048D01*
X002475Y000930D02*
X002555Y000930D01*
X002555Y000811D02*
X003055Y000811D01*
X002974Y000796D02*
X002555Y000796D01*
X002555Y000377D01*
X002622Y000388D01*
X002691Y000410D01*
X002756Y000443D01*
X002814Y000485D01*
X002866Y000537D01*
X002908Y000595D01*
X002941Y000660D01*
X002963Y000729D01*
X002974Y000796D01*
X002952Y000693D02*
X003076Y000693D01*
X003126Y000574D02*
X002893Y000574D01*
X002773Y000456D02*
X003245Y000456D01*
X003056Y000930D02*
X002966Y000930D01*
X002923Y001048D02*
X003105Y001048D01*
X003195Y001167D02*
X002835Y001167D01*
X002555Y000693D02*
X002475Y000693D01*
X002475Y000574D02*
X002555Y000574D01*
X002555Y000456D02*
X002475Y000456D01*
X002256Y000456D02*
X002046Y000456D01*
X002095Y000574D02*
X002137Y000574D01*
X002055Y008988D02*
X001503Y008988D01*
X001984Y009106D02*
X000779Y009106D01*
X000779Y009225D02*
X001972Y009225D01*
X002009Y009343D02*
X000779Y009343D01*
X000779Y009462D02*
X002135Y009462D01*
X002407Y009462D02*
X004151Y009462D01*
X004032Y009580D02*
X001564Y009580D01*
X001565Y009699D02*
X003269Y009699D01*
X003477Y009699D02*
X003974Y009699D01*
X004001Y010410D02*
X000779Y010410D01*
X000779Y010528D02*
X004098Y010528D01*
X004216Y010647D02*
X000779Y010647D01*
X000779Y010765D02*
X004487Y010765D01*
X004818Y010765D02*
X005006Y010765D01*
X004713Y013372D02*
X004593Y013372D01*
X004593Y013491D02*
X004713Y013491D01*
X004713Y013609D02*
X004593Y013609D01*
X004593Y013728D02*
X004713Y013728D01*
X004713Y013846D02*
X004593Y013846D01*
X004593Y013965D02*
X004713Y013965D01*
X004713Y014083D02*
X004593Y014083D01*
X004593Y014439D02*
X004713Y014439D01*
X004713Y014557D02*
X004593Y014557D01*
X004593Y014676D02*
X004713Y014676D01*
X004713Y014794D02*
X004593Y014794D01*
X004593Y014913D02*
X004713Y014913D01*
X004713Y015031D02*
X004593Y015031D01*
X004593Y015150D02*
X004713Y015150D01*
X005573Y015150D02*
X008390Y015150D01*
X008390Y015268D02*
X000779Y015268D01*
X000779Y015150D02*
X003732Y015150D01*
X003705Y015031D02*
X000779Y015031D01*
X000779Y014913D02*
X003705Y014913D01*
X003705Y014794D02*
X000779Y014794D01*
X000779Y014676D02*
X003705Y014676D01*
X003705Y014557D02*
X000779Y014557D01*
X000779Y014439D02*
X003705Y014439D01*
X005600Y014439D02*
X008390Y014439D01*
X008390Y014557D02*
X005600Y014557D01*
X005600Y014676D02*
X008390Y014676D01*
X008390Y014794D02*
X005600Y014794D01*
X005600Y014913D02*
X008390Y014913D01*
X008390Y015031D02*
X005600Y015031D01*
X007148Y017520D02*
X000779Y017520D01*
X000779Y017638D02*
X007029Y017638D01*
X006911Y017757D02*
X000779Y017757D01*
X000779Y017875D02*
X004261Y017875D01*
X004227Y017889D02*
X004503Y017775D01*
X004802Y017775D01*
X005078Y017889D01*
X005289Y018100D01*
X005403Y018376D01*
X005403Y018674D01*
X005289Y018950D01*
X005078Y019161D01*
X005056Y019170D01*
X005334Y019413D01*
X005423Y019376D01*
X005606Y019376D01*
X005775Y019446D01*
X005905Y019576D01*
X005975Y019745D01*
X005975Y019928D01*
X005905Y020097D01*
X005775Y020226D01*
X005606Y020296D01*
X005423Y020296D01*
X005254Y020226D01*
X005125Y020097D01*
X005055Y019928D01*
X005055Y019745D01*
X005068Y019712D01*
X004852Y019523D01*
X004905Y019576D01*
X004975Y019745D01*
X004975Y019928D01*
X004905Y020097D01*
X004775Y020226D01*
X004606Y020296D01*
X004423Y020296D01*
X004254Y020226D01*
X004125Y020097D01*
X004055Y019928D01*
X004055Y019745D01*
X004080Y019684D01*
X003751Y019354D01*
X002779Y019354D01*
X002347Y018922D01*
X002270Y018922D01*
X002161Y018877D01*
X002076Y018793D01*
X002031Y018683D01*
X002031Y018564D01*
X002076Y018454D01*
X002161Y018370D01*
X002270Y018325D01*
X002389Y018325D01*
X002499Y018370D01*
X002576Y018447D01*
X002653Y018370D01*
X002762Y018325D01*
X002881Y018325D01*
X002991Y018370D01*
X003059Y018439D01*
X003086Y018373D01*
X003182Y018278D01*
X003306Y018226D01*
X003440Y018226D01*
X003484Y018245D01*
X003956Y018245D01*
X004016Y018100D01*
X004227Y017889D01*
X004123Y017994D02*
X000779Y017994D01*
X000779Y018112D02*
X004011Y018112D01*
X003962Y018231D02*
X003450Y018231D01*
X003296Y018231D02*
X000779Y018231D01*
X000779Y018349D02*
X002212Y018349D01*
X002071Y018468D02*
X000779Y018468D01*
X000779Y018586D02*
X002031Y018586D01*
X002040Y018705D02*
X000779Y018705D01*
X000779Y018823D02*
X002107Y018823D01*
X002366Y018942D02*
X001488Y018942D01*
X001124Y018942D02*
X000779Y018942D01*
X000779Y019060D02*
X000838Y019060D01*
X001774Y019060D02*
X002484Y019060D01*
X002603Y019179D02*
X001900Y019179D01*
X002019Y019297D02*
X002721Y019297D01*
X002691Y019410D02*
X002756Y019443D01*
X002814Y019485D01*
X002866Y019537D01*
X002908Y019595D01*
X002941Y019660D01*
X002963Y019729D01*
X002974Y019796D01*
X002555Y019796D01*
X002555Y019377D01*
X002622Y019388D01*
X002691Y019410D01*
X002702Y019416D02*
X003328Y019416D01*
X003254Y019446D02*
X003423Y019376D01*
X003606Y019376D01*
X003775Y019446D01*
X003905Y019576D01*
X003975Y019745D01*
X003975Y019928D01*
X003905Y020097D01*
X003775Y020226D01*
X003606Y020296D01*
X003423Y020296D01*
X003254Y020226D01*
X003125Y020097D01*
X003055Y019928D01*
X003055Y019745D01*
X003125Y019576D01*
X003254Y019446D01*
X003166Y019534D02*
X002863Y019534D01*
X002937Y019653D02*
X003093Y019653D01*
X003055Y019771D02*
X002970Y019771D01*
X002972Y019890D02*
X003055Y019890D01*
X003088Y020008D02*
X002943Y020008D01*
X002872Y020127D02*
X003155Y020127D01*
X003300Y020245D02*
X002726Y020245D01*
X002555Y020245D02*
X002475Y020245D01*
X002475Y020127D02*
X002555Y020127D01*
X002555Y020008D02*
X002475Y020008D01*
X002475Y019890D02*
X002555Y019890D01*
X002555Y019771D02*
X002475Y019771D01*
X002475Y019653D02*
X002555Y019653D01*
X002555Y019534D02*
X002475Y019534D01*
X002475Y019416D02*
X002555Y019416D01*
X002327Y019416D02*
X002072Y019416D01*
X002121Y019534D02*
X002166Y019534D01*
X002157Y020127D02*
X002084Y020127D01*
X002034Y020245D02*
X002304Y020245D01*
X002447Y018349D02*
X002704Y018349D01*
X002940Y018349D02*
X003110Y018349D01*
X003701Y019416D02*
X003812Y019416D01*
X003863Y019534D02*
X003931Y019534D01*
X003937Y019653D02*
X004049Y019653D01*
X004055Y019771D02*
X003975Y019771D01*
X003975Y019890D02*
X004055Y019890D01*
X004088Y020008D02*
X003941Y020008D01*
X003875Y020127D02*
X004155Y020127D01*
X004300Y020245D02*
X003730Y020245D01*
X004730Y020245D02*
X005300Y020245D01*
X005155Y020127D02*
X004875Y020127D01*
X004941Y020008D02*
X005088Y020008D01*
X005055Y019890D02*
X004975Y019890D01*
X004975Y019771D02*
X005055Y019771D01*
X005000Y019653D02*
X004937Y019653D01*
X004865Y019534D02*
X004863Y019534D01*
X005066Y019179D02*
X005910Y019179D01*
X005910Y019297D02*
X005201Y019297D01*
X005179Y019060D02*
X005910Y019060D01*
X005910Y018942D02*
X005292Y018942D01*
X005342Y018823D02*
X005910Y018823D01*
X005963Y018705D02*
X005391Y018705D01*
X005403Y018586D02*
X006081Y018586D01*
X006200Y018468D02*
X005403Y018468D01*
X005392Y018349D02*
X006318Y018349D01*
X006437Y018231D02*
X005343Y018231D01*
X005294Y018112D02*
X006555Y018112D01*
X006674Y017994D02*
X005182Y017994D01*
X005044Y017875D02*
X006792Y017875D01*
X007500Y017401D02*
X000779Y017401D01*
X000779Y017283D02*
X008390Y017283D01*
X008390Y017164D02*
X000779Y017164D01*
X000779Y017046D02*
X008390Y017046D01*
X008390Y016927D02*
X000779Y016927D01*
X000779Y016809D02*
X008390Y016809D01*
X008390Y016690D02*
X000779Y016690D01*
X000779Y016572D02*
X008390Y016572D01*
X008390Y016453D02*
X000779Y016453D01*
X000779Y016335D02*
X008390Y016335D01*
X008390Y016216D02*
X000779Y016216D01*
X000779Y016098D02*
X008390Y016098D01*
X008390Y015979D02*
X000779Y015979D01*
X000779Y015861D02*
X008390Y015861D01*
X008390Y015742D02*
X000779Y015742D01*
X000779Y015624D02*
X008390Y015624D01*
X008390Y015505D02*
X000779Y015505D01*
X000779Y015387D02*
X008390Y015387D01*
X009085Y015268D02*
X009103Y015268D01*
X009085Y015150D02*
X009222Y015150D01*
X009340Y015031D02*
X009085Y015031D01*
X009085Y014913D02*
X009459Y014913D01*
X009473Y014794D02*
X009085Y014794D01*
X009085Y014676D02*
X009473Y014676D01*
X009501Y014557D02*
X009085Y014557D01*
X009085Y014439D02*
X010855Y014439D01*
X010869Y013728D02*
X009635Y013728D01*
X010149Y013609D02*
X010179Y013609D01*
X010159Y014557D02*
X010170Y014557D01*
X009669Y015268D02*
X010834Y015268D01*
X010200Y016098D02*
X010128Y016098D01*
X009531Y016098D02*
X009380Y016098D01*
X009380Y016216D02*
X009473Y016216D01*
X009473Y016335D02*
X009380Y016335D01*
X009380Y016453D02*
X009473Y016453D01*
X010099Y016809D02*
X010229Y016809D01*
X010769Y016809D02*
X010800Y016809D01*
X011694Y016809D02*
X012188Y016809D01*
X012170Y016690D02*
X011702Y016690D01*
X011702Y016572D02*
X012170Y016572D01*
X012242Y017875D02*
X009675Y017875D01*
X009675Y017994D02*
X012170Y017994D01*
X012170Y018112D02*
X009675Y018112D01*
X009675Y018231D02*
X012170Y018231D01*
X012170Y018349D02*
X009557Y018349D01*
X009439Y018468D02*
X012170Y018468D01*
X012170Y018586D02*
X009320Y018586D01*
X009202Y018705D02*
X012170Y018705D01*
X012170Y018823D02*
X009083Y018823D01*
X008965Y018942D02*
X012244Y018942D01*
X012255Y019060D02*
X008846Y019060D01*
X008728Y019179D02*
X012129Y019179D01*
X012011Y019297D02*
X008609Y019297D01*
X008701Y019416D02*
X009328Y019416D01*
X009254Y019446D02*
X009423Y019376D01*
X009606Y019376D01*
X009775Y019446D01*
X009905Y019576D01*
X009975Y019745D01*
X009975Y019928D01*
X009905Y020097D01*
X009775Y020226D01*
X009606Y020296D01*
X009423Y020296D01*
X009254Y020226D01*
X009125Y020097D01*
X009055Y019928D01*
X009055Y019745D01*
X009125Y019576D01*
X009254Y019446D01*
X009166Y019534D02*
X008863Y019534D01*
X008937Y019653D02*
X009093Y019653D01*
X009055Y019771D02*
X008975Y019771D01*
X008975Y019890D02*
X009055Y019890D01*
X009088Y020008D02*
X008941Y020008D01*
X008875Y020127D02*
X009155Y020127D01*
X009300Y020245D02*
X008730Y020245D01*
X008300Y020245D02*
X007730Y020245D01*
X007875Y020127D02*
X008155Y020127D01*
X008088Y020008D02*
X007941Y020008D01*
X007975Y019890D02*
X008055Y019890D01*
X008055Y019771D02*
X007975Y019771D01*
X007937Y019653D02*
X008093Y019653D01*
X008166Y019534D02*
X007863Y019534D01*
X007701Y019416D02*
X008328Y019416D01*
X007328Y019416D02*
X006724Y019416D01*
X006863Y019534D02*
X007166Y019534D01*
X007093Y019653D02*
X006937Y019653D01*
X006975Y019771D02*
X007055Y019771D01*
X007055Y019890D02*
X006975Y019890D01*
X006941Y020008D02*
X007088Y020008D01*
X007155Y020127D02*
X006875Y020127D01*
X006730Y020245D02*
X007300Y020245D01*
X006300Y020245D02*
X005730Y020245D01*
X005875Y020127D02*
X006155Y020127D01*
X006088Y020008D02*
X005941Y020008D01*
X005975Y019890D02*
X006055Y019890D01*
X006055Y019771D02*
X005975Y019771D01*
X005937Y019653D02*
X006048Y019653D01*
X005930Y019534D02*
X005863Y019534D01*
X005910Y019416D02*
X005701Y019416D01*
X007970Y017757D02*
X007988Y017757D01*
X008002Y017638D02*
X008106Y017638D01*
X008225Y017520D02*
X007986Y017520D01*
X007908Y017401D02*
X008343Y017401D01*
X009701Y019416D02*
X010327Y019416D01*
X010338Y019410D02*
X010407Y019388D01*
X010475Y019377D01*
X010475Y019796D01*
X010555Y019796D01*
X010555Y019876D01*
X010974Y019876D01*
X010963Y019944D01*
X010941Y020013D01*
X010908Y020077D01*
X010866Y020136D01*
X010814Y020187D01*
X010756Y020230D01*
X010691Y020263D01*
X010622Y020285D01*
X010555Y020296D01*
X010555Y019876D01*
X010475Y019876D01*
X010475Y019796D01*
X010055Y019796D01*
X010066Y019729D01*
X010088Y019660D01*
X010121Y019595D01*
X010164Y019537D01*
X010215Y019485D01*
X010274Y019443D01*
X010338Y019410D01*
X010475Y019416D02*
X010555Y019416D01*
X010555Y019377D02*
X010622Y019388D01*
X010691Y019410D01*
X010756Y019443D01*
X010814Y019485D01*
X010866Y019537D01*
X010908Y019595D01*
X010941Y019660D01*
X010963Y019729D01*
X010974Y019796D01*
X010555Y019796D01*
X010555Y019377D01*
X010702Y019416D02*
X011328Y019416D01*
X011166Y019534D02*
X010863Y019534D01*
X010937Y019653D02*
X011093Y019653D01*
X011055Y019771D02*
X010970Y019771D01*
X010972Y019890D02*
X011055Y019890D01*
X011088Y020008D02*
X010943Y020008D01*
X010872Y020127D02*
X011155Y020127D01*
X011300Y020245D02*
X010726Y020245D01*
X010555Y020245D02*
X010475Y020245D01*
X010475Y020296D02*
X010475Y019876D01*
X010055Y019876D01*
X010066Y019944D01*
X010088Y020013D01*
X010121Y020077D01*
X010164Y020136D01*
X010215Y020187D01*
X010274Y020230D01*
X010338Y020263D01*
X010407Y020285D01*
X010475Y020296D01*
X010475Y020127D02*
X010555Y020127D01*
X010555Y020008D02*
X010475Y020008D01*
X010475Y019890D02*
X010555Y019890D01*
X010555Y019771D02*
X010475Y019771D01*
X010475Y019653D02*
X010555Y019653D01*
X010555Y019534D02*
X010475Y019534D01*
X010166Y019534D02*
X009863Y019534D01*
X009937Y019653D02*
X010092Y019653D01*
X010059Y019771D02*
X009975Y019771D01*
X009975Y019890D02*
X010057Y019890D01*
X010087Y020008D02*
X009941Y020008D01*
X009875Y020127D02*
X010157Y020127D01*
X010304Y020245D02*
X009730Y020245D01*
X011701Y019416D02*
X011958Y019416D01*
X011908Y019534D02*
X011863Y019534D01*
X011875Y020127D02*
X011946Y020127D01*
X011995Y020245D02*
X011730Y020245D01*
X003165Y010291D02*
X001951Y010291D01*
X002047Y010173D02*
X003070Y010173D01*
X003035Y010054D02*
X002077Y010054D01*
X002058Y009936D02*
X003043Y009936D01*
X003099Y009817D02*
X001977Y009817D01*
X001606Y010291D02*
X001565Y010291D01*
D25*
X002940Y007915D03*
X002940Y007246D03*
D26*
X009594Y009667D03*
X009594Y010454D03*
D27*
X008590Y010454D03*
X008590Y009667D03*
D28*
X004653Y014273D03*
D29*
X004653Y018525D03*
X004653Y010021D03*
D30*
X006523Y007553D02*
X006031Y007080D01*
X005003Y006104D02*
X004031Y007076D01*
X004031Y007080D01*
X005003Y006104D02*
X007231Y006104D01*
X007408Y005926D01*
X007408Y004663D01*
X007373Y004628D01*
X006870Y004628D01*
X006870Y004470D02*
X007490Y004470D01*
X007605Y004586D01*
X007605Y005986D01*
X007290Y006301D01*
X007385Y006498D02*
X007802Y006080D01*
X007802Y004540D01*
X007575Y004313D01*
X006870Y004313D01*
X006870Y004155D02*
X007658Y004155D01*
X007999Y004496D01*
X008196Y004447D02*
X007747Y003998D01*
X006870Y003998D01*
X006870Y003840D02*
X008973Y003840D01*
X009335Y003683D02*
X006870Y003683D01*
X006870Y003525D02*
X006870Y002617D01*
X006621Y001730D02*
X007515Y000836D01*
X006621Y001730D02*
X006621Y004048D01*
X006041Y004628D01*
X005657Y004628D01*
X005657Y004785D02*
X005657Y004943D01*
X005657Y004470D02*
X005931Y004470D01*
X006424Y003977D01*
X006424Y001065D01*
X006515Y000986D01*
X006515Y000836D01*
X006227Y001724D02*
X005515Y001011D01*
X005515Y000836D01*
X006227Y001724D02*
X006227Y003904D01*
X005976Y004155D01*
X005657Y004155D01*
X005657Y004313D02*
X004975Y004313D01*
X004971Y004309D01*
X004456Y004824D01*
X003767Y004824D01*
X003767Y004829D01*
X003664Y004829D01*
X003137Y005356D01*
X005145Y003513D02*
X005145Y002364D01*
X004751Y001970D01*
X005657Y002748D02*
X005657Y003525D01*
X005657Y003683D02*
X005315Y003683D01*
X005145Y003513D01*
X001562Y008565D02*
X001109Y008565D01*
X007408Y018013D02*
X008014Y018013D01*
X008590Y017437D01*
X008590Y012885D01*
X009830Y011645D01*
X009830Y011714D01*
X010499Y011714D02*
X011247Y011714D01*
X011247Y013289D02*
X010499Y013289D01*
X009830Y013289D02*
X009830Y013250D01*
X008885Y014194D01*
X008885Y017711D01*
X008189Y018407D01*
X007113Y018407D01*
X006818Y018801D02*
X008333Y018801D01*
X009180Y017954D01*
X009180Y015474D01*
X009830Y014824D01*
X009830Y014868D01*
X009830Y014864D01*
X010499Y014868D02*
X011247Y014868D01*
X011247Y014864D01*
X011247Y016439D02*
X010499Y016439D01*
X009830Y016439D02*
X009830Y016399D01*
X009475Y016754D01*
X009475Y018148D01*
X008429Y019194D01*
X006523Y019194D01*
X006121Y019443D02*
X006515Y019836D01*
X005515Y019836D02*
X004893Y019293D01*
X012723Y010228D02*
X012723Y007728D01*
X012723Y007098D01*
D31*
X012723Y007728D03*
X011090Y009254D03*
X009968Y006163D03*
X009534Y006163D03*
X008786Y004824D03*
X008471Y004509D03*
X007015Y002659D03*
X005440Y002659D03*
X004968Y003998D03*
X004534Y004155D03*
X003767Y005523D03*
X003137Y005356D03*
X002782Y006399D03*
X003137Y006773D03*
X003471Y008446D03*
X002271Y009194D03*
X001779Y010041D03*
X006582Y008998D03*
X007704Y017620D03*
X007408Y018013D03*
X007113Y018407D03*
X006818Y018801D03*
X006523Y019194D03*
X002822Y018624D03*
X002330Y018624D03*
D32*
X002861Y019155D01*
X003834Y019155D01*
X004515Y019836D01*
X004357Y019293D02*
X003983Y018919D01*
X003117Y018919D01*
X002822Y018624D01*
X004357Y019293D02*
X004893Y019293D01*
X006109Y019431D02*
X006109Y018840D01*
X007330Y017620D01*
X007704Y017620D01*
X006109Y019431D02*
X006121Y019443D01*
X001779Y010041D02*
X001680Y009943D01*
X001109Y009943D01*
X001562Y008565D02*
X001838Y008565D01*
X001857Y008584D01*
X002271Y009194D02*
X005204Y009194D01*
X005676Y009667D01*
X008590Y009667D01*
X008156Y009391D02*
X008393Y009155D01*
X009416Y009155D01*
X009594Y009332D01*
X009594Y009667D01*
X008865Y008919D02*
X010755Y008919D01*
X011090Y009254D01*
X010031Y007080D02*
X009782Y007080D01*
X008786Y006084D01*
X008786Y004824D01*
X008471Y004509D02*
X008471Y006163D01*
X009031Y006722D01*
X009031Y007080D01*
X009534Y006163D02*
X009534Y004401D01*
X008973Y003840D01*
X009335Y003683D02*
X009968Y004315D01*
X009968Y006163D01*
X008196Y006261D02*
X008196Y004447D01*
X007999Y004496D02*
X007999Y006163D01*
X007082Y007080D01*
X007031Y007080D01*
X007385Y006498D02*
X006613Y006498D01*
X006031Y007080D01*
X006523Y007553D02*
X006523Y008939D01*
X006582Y008998D01*
X005794Y009391D02*
X008156Y009391D01*
X008865Y008919D02*
X008031Y008084D01*
X008031Y008080D01*
X008031Y007080D02*
X008019Y007069D01*
X008019Y006439D01*
X008196Y006261D01*
X007290Y006301D02*
X005810Y006301D01*
X005031Y007080D01*
X004377Y005927D02*
X003432Y006872D01*
X003432Y008407D01*
X003471Y008446D01*
X002940Y007915D02*
X002704Y007915D01*
X002527Y008092D01*
X002527Y008584D01*
X002527Y008761D01*
X002684Y008919D01*
X005322Y008919D01*
X005794Y009391D01*
X007133Y005927D02*
X004377Y005927D01*
X004534Y004155D02*
X004534Y003919D01*
X004928Y003525D01*
X005243Y003840D01*
X005657Y003840D01*
X005657Y003998D02*
X005893Y003998D01*
X006011Y003880D01*
X006011Y002305D01*
X004542Y000836D01*
X004515Y000836D01*
X003515Y000836D02*
X003515Y001285D01*
X004928Y002698D01*
X004928Y003525D01*
X004968Y003998D02*
X005657Y003998D01*
X005657Y004943D02*
X006870Y004943D01*
X006870Y004785D02*
X007172Y004785D01*
X007212Y004824D01*
X007212Y005848D01*
X007133Y005927D01*
X003137Y006773D02*
X002940Y006970D01*
X002940Y007246D01*
D33*
X002553Y006714D02*
X002782Y006485D01*
X002782Y006399D01*
X002553Y006714D02*
X002162Y006714D01*
D34*
X003373Y010021D03*
X008196Y002069D03*
X008176Y001478D03*
X009968Y002069D03*
X004751Y001970D03*
X003373Y018565D03*
D35*
X004613Y018565D01*
X004653Y018525D01*
X010952Y007098D02*
X010460Y006606D01*
X010460Y001896D01*
X010042Y001478D01*
X009515Y001478D01*
X008176Y001478D01*
X008196Y002069D02*
X009968Y002069D01*
X009515Y001478D02*
X009515Y000836D01*
D36*
X010952Y007098D02*
X011660Y007807D01*
X011660Y009588D01*
X011021Y010228D01*
X010952Y010228D01*
X010725Y010454D01*
X009594Y010454D01*
X009594Y009667D01*
X008590Y010454D02*
X005086Y010454D01*
X004653Y010021D01*
X003373Y010021D01*
M02*
