%
M48
M72
T01C0.0157
T02C0.0236
T03C0.0315
T04C0.0400
T05C0.0787
T06C0.0866
%
T01
X3137Y5356
X3767Y5523
X3137Y6773
X2782Y6399
X3471Y8446
X2271Y9194
X1779Y10041
X4534Y4155
X4968Y3998
X5440Y2659
X7015Y2659
X8471Y4509
X8786Y4824
X9534Y6163
X9968Y6163
X11090Y9254
X12723Y7728
X6582Y8998
X7704Y17620
X7408Y18013
X7113Y18407
X6818Y18801
X6523Y19194
X2822Y18624
X2330Y18624
T02
X3373Y18565
X3373Y10021
X8196Y2069
X8176Y1478
X9968Y2069
X4751Y1970
T03
X2595Y2482
X2595Y3269
T04
X2515Y836
X3515Y836
X4515Y836
X5515Y836
X6515Y836
X7515Y836
X8515Y836
X9515Y836
X10515Y836
X11515Y836
X10031Y7080
X10031Y8080
X9031Y8080
X9031Y7080
X8031Y7080
X8031Y8080
X7031Y8080
X7031Y7080
X6031Y7080
X6031Y8080
X5031Y8080
X5031Y7080
X4031Y7080
X4031Y8080
X4515Y19836
X5515Y19836
X6515Y19836
X7515Y19836
X8515Y19836
X9515Y19836
X10515Y19836
X11515Y19836
X3515Y19836
X2515Y19836
T05
X4653Y18525
X4653Y10021
T06
X1306Y887
X12723Y887
X12723Y19785
X1306Y19785
M30
