<?xml version="1.0" encoding="UTF-8" standalone="no"?>
<!-- Generator: Adobe Illustrator 15.0.0, SVG Export Plug-In  -->

<svg
   xmlns:dc="http://purl.org/dc/elements/1.1/"
   xmlns:cc="http://creativecommons.org/ns#"
   xmlns:rdf="http://www.w3.org/1999/02/22-rdf-syntax-ns#"
   xmlns:svg="http://www.w3.org/2000/svg"
   xmlns="http://www.w3.org/2000/svg"
   xmlns:sodipodi="http://sodipodi.sourceforge.net/DTD/sodipodi-0.dtd"
   xmlns:inkscape="http://www.inkscape.org/namespaces/inkscape"
   version="1.1"
   x="0px"
   y="0px"
   width="215px"
   height="341px"
   viewBox="-0.093 -0.593 215 341"
   overflow="visible"
   enable-background="new -0.093 -0.593 215 341"
   xml:space="preserve"
   id="svg2"
   inkscape:version="0.91 r13725"
   sodipodi:docname="Monaka_schematic.svg"><metadata
     id="metadata144"><rdf:RDF><cc:Work
         rdf:about=""><dc:format>image/svg+xml</dc:format><dc:type
           rdf:resource="http://purl.org/dc/dcmitype/StillImage" /></cc:Work></rdf:RDF></metadata><sodipodi:namedview
     pagecolor="#ffffff"
     bordercolor="#666666"
     borderopacity="1"
     objecttolerance="10"
     gridtolerance="10"
     guidetolerance="10"
     inkscape:pageopacity="0"
     inkscape:pageshadow="2"
     inkscape:window-width="1131"
     inkscape:window-height="720"
     id="namedview142"
     showgrid="false"
     inkscape:zoom="2.7683284"
     inkscape:cx="99.141467"
     inkscape:cy="233.24467"
     inkscape:window-x="0"
     inkscape:window-y="0"
     inkscape:window-maximized="0"
     inkscape:current-layer="svg2" /><defs
     id="defs4" /><rect
     id="connector32pin_1_"
     x="203.167"
     y="60.603"
     fill="none"
     width="10.487"
     height="2.101" /><rect
     id="connector32terminal_1_"
     x="211.663"
     y="60.603"
     fill="none"
     width="1.992"
     height="2.101" /><rect
     id="connector31pin_1_"
     x="203.167"
     y="81.839"
     fill="none"
     width="10.487"
     height="2.099" /><rect
     id="connector31terminal_1_"
     x="211.663"
     y="81.839"
     fill="none"
     width="1.992"
     height="2.099" /><rect
     id="connector30pin_1_"
     x="203.167"
     y="103.077"
     fill="none"
     width="10.487"
     height="2.099" /><rect
     id="connector30terminal_1_"
     x="211.663"
     y="103.077"
     fill="none"
     width="1.992"
     height="2.099" /><rect
     id="connector29pin_1_"
     x="203.167"
     y="124.312"
     fill="none"
     width="10.487"
     height="2.102" /><rect
     id="connector29terminal_1_"
     x="211.663"
     y="124.312"
     fill="none"
     width="1.992"
     height="2.102" /><rect
     id="connector28pin_1_"
     x="203.167"
     y="145.549"
     fill="none"
     width="10.487"
     height="2.103" /><rect
     id="connector28terminal_1_"
     x="211.663"
     y="145.549"
     fill="none"
     width="1.992"
     height="2.103" /><rect
     id="connector27pin_1_"
     x="203.167"
     y="166.786"
     fill="none"
     width="10.487"
     height="2.098" /><rect
     id="connector27terminal_1_"
     x="211.663"
     y="166.786"
     fill="none"
     width="1.992"
     height="2.098" /><rect
     id="connector26pin_1_"
     x="203.167"
     y="188.02"
     fill="none"
     width="10.487"
     height="2.102" /><rect
     id="connector26terminal_1_"
     x="211.663"
     y="188.02"
     fill="none"
     width="1.992"
     height="2.102" /><rect
     id="connector25pin_1_"
     x="203.167"
     y="209.258"
     fill="none"
     width="10.487"
     height="2.1" /><rect
     id="connector25terminal_1_"
     x="211.663"
     y="209.258"
     fill="none"
     width="1.992"
     height="2.1" /><rect
     id="connector24pin_1_"
     x="106.358"
     y="328.124"
     fill="none"
     width="2.1"
     height="10.488" /><rect
     id="connector24terminal_1_"
     x="106.358"
     y="336.62"
     fill="none"
     width="2.1"
     height="1.992" /><rect
     id="connector22pin_1_"
     x="203.12"
     y="273.853"
     fill="none"
     width="10.487"
     height="2.102" /><rect
     id="connector22terminal_1_"
     x="211.616"
     y="273.853"
     fill="none"
     width="1.992"
     height="2.102" /><rect
     id="connector21pin_1_"
     x="203.12"
     y="252.618"
     fill="none"
     width="10.487"
     height="2.1" /><rect
     id="connector21terminal_1_"
     x="211.616"
     y="252.618"
     fill="none"
     width="1.992"
     height="2.1" /><rect
     id="connector19pin_1_"
     x="203.12"
     y="252.618"
     fill="none"
     width="10.487"
     height="2.1" /><rect
     id="connector19terminal_1_"
     x="211.616"
     y="252.618"
     fill="none"
     width="1.992"
     height="2.1" /><rect
     id="connector18pin_1_"
     x="203.12"
     y="273.853"
     fill="none"
     width="10.487"
     height="2.102" /><rect
     id="connector18terminal_1_"
     x="211.616"
     y="273.853"
     fill="none"
     width="1.992"
     height="2.102" /><rect
     id="connector17pin_11_"
     x="85.136"
     y="1.202"
     fill="none"
     width="2.098"
     height="10.486" /><rect
     id="connector17terminal_2_"
     x="85.136"
     y="1.202"
     fill="none"
     width="2.098"
     height="1.995" /><rect
     id="connector16pin_1_"
     x="106.358"
     y="328.124"
     fill="none"
     width="2.1"
     height="10.488" /><rect
     id="connector16terminal_1_"
     x="106.358"
     y="336.62"
     fill="none"
     width="2.1"
     height="1.992" /><rect
     id="connector14pin_3_"
     x="106.372"
     y="1.202"
     fill="none"
     width="2.103"
     height="10.486" /><rect
     id="connector14terminal_2_"
     x="106.372"
     y="1.202"
     fill="none"
     width="2.103"
     height="1.995" /><rect
     id="connector13pin_1_"
     x="106.358"
     y="328.124"
     fill="none"
     width="2.1"
     height="10.488" /><rect
     id="connector13terminal_1_"
     x="106.358"
     y="336.62"
     fill="none"
     width="2.1"
     height="1.992" /><rect
     id="connector11pin_11_"
     x="85.136"
     y="1.202"
     fill="none"
     width="2.098"
     height="10.486" /><rect
     id="connector11terminal_2_"
     x="85.136"
     y="1.202"
     fill="none"
     width="2.098"
     height="1.995" /><rect
     id="connector10terminal_1_"
     x="1.208"
     y="231.375"
     fill="none"
     width="1.995"
     height="2.098" /><rect
     id="connector9terminal_1_"
     x="1.208"
     y="210.115"
     fill="none"
     width="1.995"
     height="2.099" /><rect
     id="connector8terminal_1_"
     x="1.208"
     y="188.853"
     fill="none"
     width="1.995"
     height="2.102" /><rect
     id="connector7pin_1_"
     x="1.208"
     y="167.619"
     fill="none"
     width="10.487"
     height="2.101" /><rect
     id="connector7terminal_1_"
     x="1.208"
     y="167.619"
     fill="none"
     width="1.995"
     height="2.101" /><rect
     id="connector6pin_1_"
     x="1.208"
     y="146.385"
     fill="none"
     width="10.487"
     height="2.101" /><rect
     id="connector6terminal_1_"
     x="1.208"
     y="146.385"
     fill="none"
     width="1.995"
     height="2.101" /><rect
     id="connector5pin_1_"
     x="1.208"
     y="125.147"
     fill="none"
     width="10.487"
     height="2.101" /><rect
     id="connector5terminal_1_"
     x="1.208"
     y="125.147"
     fill="none"
     width="1.995"
     height="2.101" /><rect
     x="22.394"
     y="23.406"
     fill="none"
     stroke="#040000"
     stroke-width="2.415"
     stroke-linecap="round"
     stroke-linejoin="round"
     width="169.972"
     height="293.969"
     id="rect51" /><line
     fill="none"
     stroke="#040000"
     stroke-width="2.415"
     stroke-linecap="round"
     stroke-linejoin="round"
     x1="1.208"
     y1="126.225"
     x2="22.394"
     y2="126.225"
     id="line53" /><line
     fill="none"
     stroke="#040000"
     stroke-width="2.415"
     stroke-linecap="round"
     stroke-linejoin="round"
     x1="1.208"
     y1="147.461"
     x2="22.394"
     y2="147.461"
     id="line55" /><line
     fill="none"
     stroke="#040000"
     stroke-width="2.415"
     stroke-linecap="round"
     stroke-linejoin="round"
     x1="1.208"
     y1="168.696"
     x2="22.394"
     y2="168.696"
     id="line57" /><line
     fill="none"
     stroke="#040000"
     stroke-width="2.415"
     stroke-linecap="round"
     stroke-linejoin="round"
     x1="213.655"
     y1="61.821"
     x2="192.413"
     y2="61.821"
     id="line59" /><line
     fill="none"
     stroke="#040000"
     stroke-width="2.415"
     stroke-linecap="round"
     stroke-linejoin="round"
     x1="213.655"
     y1="83.057"
     x2="192.413"
     y2="83.057"
     id="line61" /><line
     fill="none"
     stroke="#040000"
     stroke-width="2.415"
     stroke-linecap="round"
     stroke-linejoin="round"
     x1="213.655"
     y1="104.293"
     x2="192.413"
     y2="104.293"
     id="line63" /><line
     fill="none"
     stroke="#040000"
     stroke-width="2.415"
     stroke-linecap="round"
     stroke-linejoin="round"
     x1="213.655"
     y1="125.53"
     x2="192.413"
     y2="125.53"
     id="line65" /><line
     fill="none"
     stroke="#040000"
     stroke-width="2.415"
     stroke-linecap="round"
     stroke-linejoin="round"
     x1="213.655"
     y1="146.766"
     x2="192.413"
     y2="146.766"
     id="line67" /><line
     fill="none"
     stroke="#040000"
     stroke-width="2.415"
     stroke-linecap="round"
     stroke-linejoin="round"
     x1="213.655"
     y1="168.002"
     x2="192.413"
     y2="168.002"
     id="line69" /><line
     fill="none"
     stroke="#040000"
     stroke-width="2.415"
     stroke-linecap="round"
     stroke-linejoin="round"
     x1="213.655"
     y1="189.239"
     x2="192.413"
     y2="189.239"
     id="line71" /><line
     fill="none"
     stroke="#040000"
     stroke-width="2.415"
     stroke-linecap="round"
     stroke-linejoin="round"
     x1="213.655"
     y1="210.475"
     x2="192.413"
     y2="210.475"
     id="line73" /><line
     fill="none"
     stroke="#040000"
     stroke-width="2.415"
     stroke-linecap="round"
     stroke-linejoin="round"
     x1="213.608"
     y1="253.836"
     x2="192.366"
     y2="253.836"
     id="line75" /><line
     fill="none"
     stroke="#040000"
     stroke-width="2.415"
     stroke-linecap="round"
     stroke-linejoin="round"
     x1="213.608"
     y1="275.073"
     x2="192.366"
     y2="275.073"
     id="line77" /><text
     transform="matrix(1 0 0 1 32.2407 128.7173)"
     fill="#040000"
     font-family="'ArialMT'"
     font-size="9.9889"
     id="text79">AIO0</text>
<text
     transform="matrix(1 0 0 1 32.2407 150.1528)"
     fill="#040000"
     font-family="'ArialMT'"
     font-size="9.9889"
     id="text81">AIO1</text>
<text
     transform="matrix(1 0 0 1 32.2407 171.5923)"
     fill="#040000"
     font-family="'ArialMT'"
     font-size="9.9889"
     id="text83">AIO2</text>
<line
     fill="none"
     stroke="#040000"
     stroke-width="1.9517"
     stroke-linecap="round"
     stroke-linejoin="round"
     x1="107.419"
     y1="22.437"
     x2="107.419"
     y2="1.202"
     id="line85" /><line
     fill="none"
     stroke="#040000"
     stroke-width="1.9517"
     stroke-linecap="round"
     stroke-linejoin="round"
     x1="86.14"
     y1="22.437"
     x2="86.14"
     y2="1.202"
     id="line87" /><text
     transform="matrix(1 0 0 1 95.8599 35.9312)"
     fill="#040000"
     font-family="'ArialMT'"
     font-size="9.9889"
     id="text89">+5V</text>
<text
     transform="matrix(1 0 0 1 73.6133 35.9312)"
     fill="#040000"
     font-family="'ArialMT'"
     font-size="9.9889"
     id="text91">+3V</text>
<text
     transform="matrix(0 1 -1 0 64.8325 120.9058)"
     fill="#040000"
     font-family="'ArialMT'"
     font-size="9.9889"
     id="text93">Aanalog I/O</text>
<text
     transform="matrix(1 0 0 1 158.2095 64.5767)"
     fill="#040000"
     font-family="'ArialMT'"
     font-size="9.9889"
     id="text95">PIO7</text>
<text
     transform="matrix(1 0 0 1 158.2095 85.3325)"
     fill="#040000"
     font-family="'ArialMT'"
     font-size="9.9889"
     id="text97">PIO6</text>
<text
     transform="matrix(1 0 0 1 158.2095 106.9438)"
     fill="#040000"
     font-family="'ArialMT'"
     font-size="9.9889"
     id="text99">PIO5</text>
<text
     transform="matrix(1 0 0 1 158.2095 127.7017)"
     fill="#040000"
     font-family="'ArialMT'"
     font-size="9.9889"
     id="text101">PIO4</text>
<text
     transform="matrix(1 0 0 1 158.2095 149.3071)"
     fill="#040000"
     font-family="'ArialMT'"
     font-size="9.9889"
     id="text103">PIO3</text>
<text
     transform="matrix(1 0 0 1 158.2095 170.4907)"
     fill="#040000"
     font-family="'ArialMT'"
     font-size="9.9889"
     id="text105">PIO2</text>
<text
     transform="matrix(1 0 0 1 158.2095 192.0981)"
     fill="#040000"
     font-family="'ArialMT'"
     font-size="9.9889"
     id="text107">PIO1</text>
<text
     transform="matrix(1 0 0 1 195.6997 58.9028)"
     fill="#040000"
     font-family="'ArialMT'"
     font-size="6.9922"
     id="text109">SCL</text>
<text
     transform="matrix(1 0 0 1 158.2095 212.854)"
     fill="#040000"
     font-family="'ArialMT'"
     font-size="9.9889"
     id="text111">PIO0</text>
<text
     transform="matrix(1 0 0 1 168.1626 256.5884)"
     fill="#040000"
     font-family="'ArialMT'"
     font-size="9.9889"
     id="text113">TX</text>
<text
     transform="matrix(1 0 0 1 168.1626 277.77)"
     fill="#040000"
     font-family="'ArialMT'"
     font-size="9.9889"
     id="text115">RX</text>
<text
     transform="matrix(0 -1 1 0 149.9292 181.5337)"
     fill="#040000"
     font-family="'ArialMT'"
     font-size="9.9889"
     id="text117">Programable I/O</text>
<text
     transform="translate(76.6128,86.4097)"
     font-size="17.98"
     id="text119"
     style="font-size:17.97999954px;font-family:ArialMT;fill:#040000">Konashi</text>
<line
     fill="none"
     stroke="#040000"
     stroke-width="1.9517"
     stroke-linecap="round"
     stroke-linejoin="round"
     x1="107.406"
     y1="338.611"
     x2="107.406"
     y2="317.374"
     id="line121" /><text
     transform="matrix(1 0 0 1 96.8755 307.186)"
     fill="#040000"
     font-family="'ArialMT'"
     font-size="9.9889"
     id="text123">GND</text>
<text
     transform="matrix(0 -1 1 0 149.8813 276.3872)"
     fill="#040000"
     font-family="'ArialMT'"
     font-size="9.9889"
     id="text125">UART</text>
<rect
     id="connector17pin_10_"
     x="106.372"
     fill="none"
     width="2.098"
     height="10.486" /><rect
     id="connector11pin_10_"
     x="106.372"
     fill="none"
     width="2.098"
     height="10.486" /><rect
     id="connector17pin_9_"
     x="106.372"
     y="0.802"
     fill="none"
     width="2.098"
     height="10.486" /><rect
     id="connector11pin_9_"
     x="106.372"
     y="0.802"
     fill="none"
     width="2.098"
     height="10.486" /><rect
     id="connector14pin_2_"
     x="127.603"
     y="1.272"
     fill="none"
     width="2.103"
     height="10.486" /><line
     fill="none"
     stroke="#040000"
     stroke-width="1.9517"
     stroke-linecap="round"
     stroke-linejoin="round"
     x1="128.651"
     y1="22.507"
     x2="128.651"
     y2="1.272"
     id="line132" /><rect
     id="connector17pin_8_"
     x="127.603"
     y="0.07"
     fill="none"
     width="2.098"
     height="10.486" /><rect
     id="connector11pin_8_"
     x="127.603"
     y="0.07"
     fill="none"
     width="2.098"
     height="10.486" /><rect
     id="connector17pin_7_"
     x="127.603"
     y="0.873"
     fill="none"
     width="2.098"
     height="10.486" /><rect
     id="connector11pin_7_"
     x="127.603"
     y="0.873"
     fill="none"
     width="2.098"
     height="10.486" /><text
     transform="matrix(1 0 0 1 116.8716 35.9312)"
     fill="#040000"
     font-family="'ArialMT'"
     font-size="9.9889"
     id="text138">VBAT</text>
<text
     transform="matrix(1 0 0 1 195.6997 79.9028)"
     fill="#040000"
     font-family="'ArialMT'"
     font-size="6.9922"
     id="text140">SDA</text>
</svg>