<?xml version='1.0' encoding='UTF-8' standalone='no'?>
<svg width="2.02in" x="0in" xmlns="http://www.w3.org/2000/svg" version="1.2" y="0in" height="1.02in" viewBox="0 0 2020 1020" baseProfile="tiny" xmlns:svg="http://www.w3.org/2000/svg">
 <g id="copper1" stroke-width="0">
  <g id="copper0" stroke-width="0">
   <rect width="55" x="32.5" y="32.5" fill="none" height="55" stroke="rgb(255, 191, 0)" stroke-width="20"/>
   <circle fill="none" cx="60" cy="60" stroke="rgb(255, 191, 0)" id="connector0pin" r="27.5" stroke-width="20"/>
   <circle fill="none" cx="1960" cy="60" stroke="rgb(255, 191, 0)" id="connector19pin" r="27.5" stroke-width="20"/>
   <circle fill="none" cx="60" cy="160" stroke="rgb(255, 191, 0)" id="connector1pin" r="27.5" stroke-width="20"/>
   <circle fill="none" cx="1960" cy="160" stroke="rgb(255, 191, 0)" id="connector18pin" r="27.5" stroke-width="20"/>
   <circle fill="none" cx="60" cy="260" stroke="rgb(255, 191, 0)" id="connector2pin" r="27.5" stroke-width="20"/>
   <circle fill="none" cx="1960" cy="260" stroke="rgb(255, 191, 0)" id="connector17pin" r="27.5" stroke-width="20"/>
   <circle fill="none" cx="60" cy="360" stroke="rgb(255, 191, 0)" id="connector3pin" r="27.5" stroke-width="20"/>
   <circle fill="none" cx="1960" cy="360" stroke="rgb(255, 191, 0)" id="connector16pin" r="27.5" stroke-width="20"/>
   <circle fill="none" cx="60" cy="460" stroke="rgb(255, 191, 0)" id="connector4pin" r="27.5" stroke-width="20"/>
   <circle fill="none" cx="1960" cy="460" stroke="rgb(255, 191, 0)" id="connector15pin" r="27.5" stroke-width="20"/>
   <circle fill="none" cx="60" cy="560" stroke="rgb(255, 191, 0)" id="connector5pin" r="27.5" stroke-width="20"/>
   <circle fill="none" cx="1960" cy="560" stroke="rgb(255, 191, 0)" id="connector14pin" r="27.5" stroke-width="20"/>
   <circle fill="none" cx="60" cy="660" stroke="rgb(255, 191, 0)" id="connector6pin" r="27.5" stroke-width="20"/>
   <circle fill="none" cx="1960" cy="660" stroke="rgb(255, 191, 0)" id="connector13pin" r="27.5" stroke-width="20"/>
   <circle fill="none" cx="60" cy="760" stroke="rgb(255, 191, 0)" id="connector7pin" r="27.5" stroke-width="20"/>
   <circle fill="none" cx="1960" cy="760" stroke="rgb(255, 191, 0)" id="connector12pin" r="27.5" stroke-width="20"/>
   <circle fill="none" cx="60" cy="860" stroke="rgb(255, 191, 0)" id="connector8pin" r="27.5" stroke-width="20"/>
   <circle fill="none" cx="1960" cy="860" stroke="rgb(255, 191, 0)" id="connector11pin" r="27.5" stroke-width="20"/>
   <circle fill="none" cx="60" cy="960" stroke="rgb(255, 191, 0)" id="connector9pin" r="27.5" stroke-width="20"/>
   <circle fill="none" cx="1960" cy="960" stroke="rgb(255, 191, 0)" id="connector10pin" r="27.5" stroke-width="20"/>
  </g>
 </g>
 <g id="silkscreen" stroke-width="0">
  <line stroke="white" y1="10" stroke-width="10" x1="10" y2="1010" x2="10"/>
  <line stroke="white" y1="10" stroke-width="10" x1="10" y2="10" x2="2010"/>
  <line stroke="white" y1="1010" stroke-width="10" x1="2010" y2="10" x2="2010"/>
  <line stroke="white" y1="1010" stroke-width="10" x1="10" y2="1010" x2="2010"/>
 </g>
</svg>
